{
classes = (
{
automatic = 1;
code = "A Aacute Abreve Acircumflex Adieresis Agrave Amacron Aogonek Aring Aringacute Atilde AE AEacute B C Cacute Ccaron Ccedilla Ccircumflex Cdotaccent D Eth Dcaron Dcroat E Eacute Ebreve Ecaron Ecircumflex Edieresis Edotaccent Egrave Emacron Eogonek F G Gbreve Gcircumflex Gcommaaccent Gdotaccent H Hbar Hcircumflex I IJ Iacute Ibreve Icircumflex Idieresis Idotaccent Igrave Imacron Iogonek Itilde J Jcircumflex K Kcommaaccent L Lacute Lcaron Lcommaaccent Ldot Lslash M N Nacute Ncaron Ncommaaccent Eng Ntilde O Oacute Obreve Ocircumflex Odieresis Ograve Ohungarumlaut Omacron Oslash Oslashacute Otilde OE P Thorn Q R Racute Rcaron Rcommaaccent S Sacute Scaron Scedilla Scircumflex Scommaaccent T Tbar Tcaron Tcedilla Tcommaaccent U Uacute Ubreve Ucircumflex Udieresis Ugrave Uhungarumlaut Umacron Uogonek Uring Utilde V W Wacute Wcircumflex Wdieresis Wgrave X Y Yacute Ycircumflex Ydieresis Ygrave Z Zacute Zcaron Zdotaccent A-cy Be-cy Ve-cy Ge-cy Gje-cy Gheupturn-cy De-cy Ie-cy Iegrave-cy Io-cy Zhe-cy Ze-cy Ii-cy Iishort-cy Iigrave-cy Ka-cy Kje-cy El-cy Em-cy En-cy O-cy Pe-cy Er-cy Es-cy Te-cy U-cy Ushort-cy Ef-cy Ha-cy Che-cy Tse-cy Sha-cy Shcha-cy Dzhe-cy Ia-cy Softsign-cy Hardsign-cy Yeru-cy Lje-cy Nje-cy Dze-cy E-cy Ereversed-cy I-cy Yi-cy Je-cy Tshe-cy Iu-cy Dje-cy Ustraitstroke-cy Gamma Delta Pi Omega";
name = Uppercase;
}
);
copyright = "Copyright (c) 2011-2013, Sol Matas (www.huertatipografica.com.ar), with Reserved Font Name \"Bitter\".";
customParameters = (
{
name = openTypeNameLicenseURL;
value = "http://scripts.sil.org/OFL";
},
{
name = trademark;
value = "Bitter is a trademark of Sol Matas (www.huertatipografica.com.ar).";
},
{
name = openTypeNameLicense;
value = "This Font Software is licensed under the SIL Open Font License, Version 1.1. This license is available with a FAQ at: http://scripts.sil.org/OFL";
}
);
date = "2013-05-19 21:02:16 +0000";
designer = "Sol Matas";
designerURL = www.huertatipografica.com.ar;

glyphs = (
{
glyphname = A;
lastChange = "2014-11-10 22:19:58 +0100";
layers = (
{
layerId = UUID0;
name = Regular;
paths = (
{
closed = 1;
nodes = (
"5 0 LINE",
"280 0 LINE",
"280 60 LINE",
"186 79 LINE",
"225 190 LINE",
"485 190 LINE",
"523 79 LINE",
"430 60 LINE",
"430 0 LINE",
"720 0 LINE",
"720 60 LINE",
"637 79 LINE",
"415 700 LINE",
"315 695 LINE",
"87 79 LINE",
"5 60 LINE"
);
},
{
closed = 1;
nodes = (
"357 571 LINE",
"458 270 LINE",
"252 270 LINE"
);
}
);
width = 725;
}
);
leftKerningGroup = A;
rightKerningGroup = A;
unicode = 0041;
},
{
glyphname = Acircumflex;
lastChange = "2014-11-10 22:19:58 +0100";
layers = (
{
layerId = UUID0;
name = Regular;
paths = (
{
closed = 1;
nodes = (
"5 0 LINE",
"280 0 LINE",
"280 60 LINE",
"186 79 LINE",
"225 190 LINE",
"485 190 LINE",
"523 79 LINE",
"430 60 LINE",
"430 0 LINE",
"720 0 LINE",
"720 60 LINE",
"637 79 LINE",
"415 700 LINE",
"315 695 LINE",
"87 79 LINE",
"5 60 LINE"
);
},
{
closed = 1;
nodes = (
"357 571 LINE",
"458 270 LINE",
"252 270 LINE"
);
},
{
closed = 1;
nodes = (
"495 750 LINE",
"535 795 LINE",
"390 920 LINE",
"330 915 LINE",
"185 795 LINE",
"225 750 LINE",
"362 843 LINE"
);
}
);
width = 726;
}
);
leftKerningGroup = A;
rightKerningGroup = A;
unicode = 00C2;
},
{
glyphname = Adieresis;
lastChange = "2014-11-10 22:19:58 +0100";
layers = (
{
layerId = UUID0;
name = Regular;
paths = (
{
closed = 1;
nodes = (
"5 0 LINE",
"280 0 LINE",
"280 60 LINE",
"186 79 LINE",
"225 190 LINE",
"485 190 LINE",
"523 79 LINE",
"430 60 LINE",
"430 0 LINE",
"720 0 LINE",
"720 60 LINE",
"637 79 LINE",
"415 700 LINE",
"315 695 LINE",
"87 79 LINE",
"5 60 LINE"
);
},
{
closed = 1;
nodes = (
"357 571 LINE",
"458 270 LINE",
"252 270 LINE"
);
},
{
closed = 1;
nodes = (
"215 787 OFFCURVE",
"236 765 OFFCURVE",
"270 765 CURVE SMOOTH",
"300 765 OFFCURVE",
"325 787 OFFCURVE",
"325 825 CURVE SMOOTH",
"325 863 OFFCURVE",
"304 885 OFFCURVE",
"270 885 CURVE SMOOTH",
"240 885 OFFCURVE",
"215 863 OFFCURVE",
"215 825 CURVE SMOOTH"
);
},
{
closed = 1;
nodes = (
"420 787 OFFCURVE",
"441 765 OFFCURVE",
"475 765 CURVE SMOOTH",
"505 765 OFFCURVE",
"530 787 OFFCURVE",
"530 825 CURVE SMOOTH",
"530 863 OFFCURVE",
"509 885 OFFCURVE",
"475 885 CURVE SMOOTH",
"445 885 OFFCURVE",
"420 863 OFFCURVE",
"420 825 CURVE SMOOTH"
);
}
);
width = 725;
}
);
leftKerningGroup = A;
rightKerningGroup = A;
unicode = 00C4;
},
{
glyphname = Amacron;
lastChange = "2014-11-10 22:19:58 +0100";
layers = (
{
layerId = UUID0;
name = Regular;
paths = (
{
closed = 1;
nodes = (
"5 0 LINE",
"280 0 LINE",
"280 60 LINE",
"186 79 LINE",
"225 190 LINE",
"485 190 LINE",
"523 79 LINE",
"430 60 LINE",
"430 0 LINE",
"720 0 LINE",
"720 60 LINE",
"637 79 LINE",
"415 700 LINE",
"315 695 LINE",
"87 79 LINE",
"5 60 LINE"
);
},
{
closed = 1;
nodes = (
"357 571 LINE",
"458 270 LINE",
"252 270 LINE"
);
},
{
closed = 1;
nodes = (
"235 790 LINE",
"505 790 LINE",
"505 865 LINE",
"235 865 LINE"
);
}
);
width = 725;
}
);
leftKerningGroup = A;
rightKerningGroup = A;
unicode = 0100;
},
{
glyphname = Aogonek;
lastChange = "2014-11-10 22:19:58 +0100";
layers = (
{
layerId = UUID0;
name = Regular;
paths = (
{
closed = 1;
nodes = (
"5 0 LINE",
"280 0 LINE",
"280 60 LINE",
"186 79 LINE",
"225 190 LINE",
"485 190 LINE",
"523 79 LINE",
"430 60 LINE",
"430 0 LINE",
"580 0 LINE",
"550 -13 OFFCURVE",
"470 -55 OFFCURVE",
"470 -125 CURVE SMOOTH",
"470 -185 OFFCURVE",
"515 -220 OFFCURVE",
"570 -220 CURVE SMOOTH",
"610 -220 OFFCURVE",
"650 -200 OFFCURVE",
"650 -200 CURVE",
"640 -153 LINE",
"640 -153 OFFCURVE",
"615 -160 OFFCURVE",
"595 -160 CURVE SMOOTH",
"570 -160 OFFCURVE",
"550 -145 OFFCURVE",
"550 -115 CURVE SMOOTH",
"550 -57 OFFCURVE",
"650 -15 OFFCURVE",
"720 0 CURVE",
"720 59 LINE",
"638 75 LINE",
"415 700 LINE",
"315 695 LINE",
"87 79 LINE",
"5 60 LINE"
);
},
{
closed = 1;
nodes = (
"357 571 LINE",
"458 270 LINE",
"252 270 LINE"
);
}
);
width = 725;
}
);
leftKerningGroup = A;
rightKerningGroup = A;
unicode = 0104;
},
{
glyphname = Aring;
lastChange = "2014-11-10 22:19:58 +0100";
layers = (
{
layerId = UUID0;
name = Regular;
paths = (
{
closed = 1;
nodes = (
"250 745 OFFCURVE",
"278 711 OFFCURVE",
"315 695 CURVE",
"87 79 LINE",
"5 60 LINE",
"5 0 LINE",
"280 0 LINE",
"280 60 LINE",
"186 79 LINE",
"225 190 LINE",
"485 190 LINE",
"523 79 LINE",
"430 60 LINE",
"430 0 LINE",
"720 0 LINE",
"720 60 LINE",
"637 79 LINE",
"416 697 LINE",
"452 714 OFFCURVE",
"480 750 OFFCURVE",
"480 800 CURVE SMOOTH",
"480 871 OFFCURVE",
"422 910 OFFCURVE",
"365 910 CURVE SMOOTH",
"308 910 OFFCURVE",
"250 866 OFFCURVE",
"250 795 CURVE SMOOTH"
);
},
{
closed = 1;
nodes = (
"357 571 LINE",
"458 270 LINE",
"252 270 LINE"
);
},
{
closed = 1;
nodes = (
"310 837 OFFCURVE",
"334 860 OFFCURVE",
"365 860 CURVE SMOOTH",
"400 860 OFFCURVE",
"420 838 OFFCURVE",
"420 798 CURVE SMOOTH",
"420 758 OFFCURVE",
"396 735 OFFCURVE",
"365 735 CURVE SMOOTH",
"330 735 OFFCURVE",
"310 757 OFFCURVE",
"310 797 CURVE SMOOTH"
);
}
);
width = 725;
}
);
leftKerningGroup = A;
rightKerningGroup = A;
unicode = 00C5;
},
{
glyphname = Atilde;
lastChange = "2014-11-10 22:19:58 +0100";
layers = (
{
layerId = UUID0;
name = Regular;
paths = (
{
closed = 1;
nodes = (
"5 0 LINE",
"280 0 LINE",
"280 60 LINE",
"186 79 LINE",
"225 190 LINE",
"485 190 LINE",
"523 79 LINE",
"430 60 LINE",
"430 0 LINE",
"720 0 LINE",
"720 60 LINE",
"637 79 LINE",
"415 700 LINE",
"315 695 LINE",
"87 79 LINE",
"5 60 LINE"
);
},
{
closed = 1;
nodes = (
"357 571 LINE",
"458 270 LINE",
"252 270 LINE"
);
},
{
closed = 1;
nodes = (
"238 766 LINE",
"238 766 OFFCURVE",
"268 810 OFFCURVE",
"308 810 CURVE SMOOTH",
"368 810 OFFCURVE",
"413 766 OFFCURVE",
"483 766 CURVE SMOOTH",
"553 766 OFFCURVE",
"588 856 OFFCURVE",
"588 856 CURVE",
"553 886 LINE",
"553 886 OFFCURVE",
"528 844 OFFCURVE",
"488 844 CURVE SMOOTH",
"428 844 OFFCURVE",
"383 890 OFFCURVE",
"313 890 CURVE SMOOTH",
"243 890 OFFCURVE",
"203 796 OFFCURVE",
"203 796 CURVE"
);
}
);
width = 725;
}
);
leftKerningGroup = A;
rightKerningGroup = A;
unicode = 00C3;
},
{
glyphname = AE;
lastChange = "2014-11-10 22:19:58 +0100";
layers = (
{
layerId = UUID0;
name = Regular;
paths = (
{
closed = 1;
nodes = (
"390 0 LINE",
"899 0 LINE",
"899 180 LINE",
"834 180 LINE",
"814 80 LINE",
"585 80 LINE",
"585 325 LINE",
"814 325 LINE",
"814 405 LINE",
"585 405 LINE",
"585 620 LINE",
"799 620 LINE",
"824 530 LINE",
"889 530 LINE",
"889 700 LINE",
"412 700 LINE",
"286 695 LINE",
"286 640 LINE",
"371 620 LINE",
"94 80 LINE",
"5 60 LINE",
"5 0 LINE",
"275 0 LINE",
"275 60 LINE",
"197 77 LINE",
"260 205 LINE",
"480 205 LINE",
"480 80 LINE",
"390 60 LINE"
);
},
{
closed = 1;
nodes = (
"300 285 LINE",
"465 620 LINE",
"480 620 LINE",
"480 285 LINE"
);
}
);
width = 959;
}
);
leftKerningGroup = A;
rightKerningGroup = E;
unicode = 00C6;
},
{
glyphname = B;
lastChange = "2014-11-10 22:19:58 +0100";
layers = (
{
layerId = UUID0;
name = Regular;
paths = (
{
closed = 1;
nodes = (
"40 0 LINE",
"325 0 LINE SMOOTH",
"490 0 OFFCURVE",
"580 60 OFFCURVE",
"580 200 CURVE SMOOTH",
"580 280 OFFCURVE",
"530 339 OFFCURVE",
"425 363 CURVE",
"509 384 OFFCURVE",
"555 435 OFFCURVE",
"555 525 CURVE SMOOTH",
"555 645 OFFCURVE",
"465 700 OFFCURVE",
"340 700 CURVE SMOOTH",
"225 700 LINE",
"40 695 LINE",
"40 640 LINE",
"125 620 LINE",
"125 80 LINE",
"40 60 LINE"
);
},
{
closed = 1;
nodes = (
"225 325 LINE",
"300 325 LINE",
"410 325 OFFCURVE",
"475 295 OFFCURVE",
"475 195 CURVE SMOOTH",
"475 120 OFFCURVE",
"425 80 OFFCURVE",
"330 80 CURVE SMOOTH",
"225 80 LINE"
);
},
{
closed = 1;
nodes = (
"225 620 LINE",
"335 620 LINE",
"400 620 OFFCURVE",
"450 585 OFFCURVE",
"450 515 CURVE SMOOTH",
"450 435 OFFCURVE",
"390 400 OFFCURVE",
"300 400 CURVE SMOOTH",
"225 400 LINE"
);
}
);
width = 630;
}
);
rightKerningGroup = B;
unicode = 0042;
},
{
glyphname = C;
lastChange = "2014-11-10 22:19:58 +0100";
layers = (
{
layerId = UUID0;
name = Regular;
paths = (
{
closed = 1;
nodes = (
"540 490 LINE",
"615 490 LINE",
"620 660 LINE",
"620 660 OFFCURVE",
"505 710 OFFCURVE",
"395 710 CURVE SMOOTH",
"190 710 OFFCURVE",
"60 565 OFFCURVE",
"60 335 CURVE SMOOTH",
"60 110 OFFCURVE",
"180 -10 OFFCURVE",
"380 -10 CURVE SMOOTH",
"530 -10 OFFCURVE",
"630 95 OFFCURVE",
"630 95 CURVE",
"590 160 LINE",
"590 160 OFFCURVE",
"495 80 OFFCURVE",
"390 80 CURVE SMOOTH",
"265 80 OFFCURVE",
"175 160 OFFCURVE",
"175 340 CURVE SMOOTH",
"175 525 OFFCURVE",
"250 625 OFFCURVE",
"385 625 CURVE SMOOTH",
"460 625 OFFCURVE",
"513 605 OFFCURVE",
"513 605 CURVE"
);
}
);
width = 665;
}
);
leftKerningGroup = O;
rightKerningGroup = C;
unicode = 0043;
},
{
glyphname = Ccedilla;
lastChange = "2014-11-10 22:19:58 +0100";
layers = (
{
layerId = UUID0;
name = Regular;
paths = (
{
closed = 1;
nodes = (
"615 491 LINE",
"620 660 LINE",
"620 660 OFFCURVE",
"505 710 OFFCURVE",
"395 710 CURVE SMOOTH",
"190 710 OFFCURVE",
"60 565 OFFCURVE",
"60 335 CURVE SMOOTH",
"60 117 OFFCURVE",
"172 -1 OFFCURVE",
"360 -9 CURVE",
"360 -80 LINE",
"410 -80 OFFCURVE",
"440 -100 OFFCURVE",
"440 -130 CURVE SMOOTH",
"440 -155 OFFCURVE",
"420 -170 OFFCURVE",
"395 -170 CURVE SMOOTH",
"355 -170 OFFCURVE",
"309 -147 OFFCURVE",
"309 -147 CURVE",
"283 -189 LINE",
"283 -189 OFFCURVE",
"335 -220 OFFCURVE",
"400 -220 CURVE SMOOTH",
"460 -220 OFFCURVE",
"510 -185 OFFCURVE",
"510 -133 CURVE SMOOTH",
"510 -82 OFFCURVE",
"476 -53 OFFCURVE",
"425 -44 CURVE",
"425 -7 LINE",
"549 11 OFFCURVE",
"630 95 OFFCURVE",
"630 95 CURVE",
"590 160 LINE",
"590 160 OFFCURVE",
"495 80 OFFCURVE",
"390 80 CURVE SMOOTH",
"265 80 OFFCURVE",
"175 160 OFFCURVE",
"175 340 CURVE SMOOTH",
"175 525 OFFCURVE",
"250 625 OFFCURVE",
"385 625 CURVE SMOOTH",
"460 625 OFFCURVE",
"513 605 OFFCURVE",
"513 605 CURVE",
"540 491 LINE"
);
}
);
width = 665;
}
);
leftKerningGroup = O;
rightKerningGroup = C;
unicode = 00C7;
},
{
glyphname = Ccircumflex;
lastChange = "2014-11-10 22:19:58 +0100";
layers = (
{
layerId = UUID0;
name = Regular;
paths = (
{
closed = 1;
nodes = (
"515 750 LINE",
"555 795 LINE",
"410 920 LINE",
"350 915 LINE",
"205 795 LINE",
"245 750 LINE",
"382 843 LINE"
);
},
{
closed = 1;
nodes = (
"540 491 LINE",
"615 491 LINE",
"620 660 LINE",
"620 660 OFFCURVE",
"505 710 OFFCURVE",
"395 710 CURVE SMOOTH",
"190 710 OFFCURVE",
"60 565 OFFCURVE",
"60 335 CURVE SMOOTH",
"60 110 OFFCURVE",
"180 -10 OFFCURVE",
"380 -10 CURVE SMOOTH",
"530 -10 OFFCURVE",
"630 95 OFFCURVE",
"630 95 CURVE",
"590 160 LINE",
"590 160 OFFCURVE",
"495 80 OFFCURVE",
"390 80 CURVE SMOOTH",
"265 80 OFFCURVE",
"175 160 OFFCURVE",
"175 340 CURVE SMOOTH",
"175 525 OFFCURVE",
"250 625 OFFCURVE",
"385 625 CURVE SMOOTH",
"460 625 OFFCURVE",
"513 605 OFFCURVE",
"513 605 CURVE"
);
}
);
width = 665;
}
);
leftKerningGroup = O;
rightKerningGroup = C;
unicode = 0108;
},
{
glyphname = Cdotaccent;
lastChange = "2014-11-10 22:19:58 +0100";
layers = (
{
guideLines = (
{
position = "{515, 765}";
}
);
layerId = UUID0;
name = Regular;
paths = (
{
closed = 1;
nodes = (
"540 491 LINE",
"615 491 LINE",
"620 660 LINE",
"620 660 OFFCURVE",
"505 710 OFFCURVE",
"395 710 CURVE SMOOTH",
"190 710 OFFCURVE",
"60 565 OFFCURVE",
"60 335 CURVE SMOOTH",
"60 110 OFFCURVE",
"180 -10 OFFCURVE",
"380 -10 CURVE SMOOTH",
"530 -10 OFFCURVE",
"630 95 OFFCURVE",
"630 95 CURVE",
"590 160 LINE",
"590 160 OFFCURVE",
"495 80 OFFCURVE",
"390 80 CURVE SMOOTH",
"265 80 OFFCURVE",
"175 160 OFFCURVE",
"175 340 CURVE SMOOTH",
"175 525 OFFCURVE",
"250 625 OFFCURVE",
"385 625 CURVE SMOOTH",
"460 625 OFFCURVE",
"513 605 OFFCURVE",
"513 605 CURVE"
);
},
{
closed = 1;
nodes = (
"330 787 OFFCURVE",
"351 765 OFFCURVE",
"385 765 CURVE SMOOTH",
"415 765 OFFCURVE",
"440 787 OFFCURVE",
"440 825 CURVE SMOOTH",
"440 863 OFFCURVE",
"419 885 OFFCURVE",
"385 885 CURVE SMOOTH",
"355 885 OFFCURVE",
"330 863 OFFCURVE",
"330 825 CURVE SMOOTH"
);
}
);
width = 665;
}
);
leftKerningGroup = O;
rightKerningGroup = C;
unicode = 010A;
},
{
glyphname = D;
lastChange = "2014-11-10 22:19:58 +0100";
layers = (
{
layerId = UUID0;
name = Regular;
paths = (
{
closed = 1;
nodes = (
"235 80 LINE",
"235 620 LINE",
"355 620 LINE SMOOTH",
"480 620 OFFCURVE",
"560 540 OFFCURVE",
"560 355 CURVE SMOOTH",
"560 165 OFFCURVE",
"475 80 OFFCURVE",
"350 80 CURVE SMOOTH"
);
},
{
closed = 1;
nodes = (
"45 0 LINE",
"345 0 LINE SMOOTH",
"545 0 OFFCURVE",
"675 140 OFFCURVE",
"675 360 CURVE SMOOTH",
"675 580 OFFCURVE",
"555 700 OFFCURVE",
"360 700 CURVE SMOOTH",
"235 700 LINE",
"45 695 LINE",
"45 640 LINE",
"130 620 LINE",
"130 80 LINE",
"45 60 LINE"
);
}
);
width = 730;
}
);
leftKerningGroup = H;
rightKerningGroup = O;
unicode = 0044;
},
{
glyphname = Eth;
lastChange = "2014-11-10 22:19:58 +0100";
layers = (
{
layerId = UUID0;
name = Regular;
paths = (
{
closed = 1;
nodes = (
"45 330 LINE",
"130 330 LINE",
"130 80 LINE",
"45 60 LINE",
"45 0 LINE",
"348 0 LINE SMOOTH",
"548 0 OFFCURVE",
"678 140 OFFCURVE",
"678 360 CURVE SMOOTH",
"678 580 OFFCURVE",
"558 700 OFFCURVE",
"363 700 CURVE SMOOTH",
"235 700 LINE",
"45 695 LINE",
"45 640 LINE",
"130 620 LINE",
"130 409 LINE",
"45 409 LINE"
);
},
{
closed = 1;
nodes = (
"234 620 LINE",
"358 620 LINE",
"483 620 OFFCURVE",
"563 540 OFFCURVE",
"563 355 CURVE SMOOTH",
"563 165 OFFCURVE",
"478 80 OFFCURVE",
"353 80 CURVE SMOOTH",
"234 80 LINE",
"234 330 LINE",
"390 330 LINE",
"390 409 LINE",
"234 409 LINE"
);
}
);
width = 738;
}
);
leftKerningGroup = H;
rightKerningGroup = O;
unicode = 00D0;
},
{
glyphname = Dcroat;
lastChange = "2014-11-10 22:19:58 +0100";
layers = (
{
layerId = UUID0;
name = Regular;
paths = (
{
closed = 1;
nodes = (
"45 330 LINE",
"130 330 LINE",
"130 80 LINE",
"45 60 LINE",
"45 0 LINE",
"348 0 LINE SMOOTH",
"548 0 OFFCURVE",
"678 140 OFFCURVE",
"678 360 CURVE SMOOTH",
"678 580 OFFCURVE",
"558 700 OFFCURVE",
"363 700 CURVE SMOOTH",
"235 700 LINE",
"45 695 LINE",
"45 640 LINE",
"130 620 LINE",
"130 410 LINE",
"45 410 LINE"
);
},
{
closed = 1;
nodes = (
"234 620 LINE",
"358 620 LINE SMOOTH",
"483 620 OFFCURVE",
"563 540 OFFCURVE",
"563 355 CURVE SMOOTH",
"563 165 OFFCURVE",
"478 80 OFFCURVE",
"353 80 CURVE SMOOTH",
"234 80 LINE",
"234 330 LINE",
"390 330 LINE",
"390 410 LINE",
"234 410 LINE"
);
}
);
width = 738;
}
);
leftKerningGroup = H;
rightKerningGroup = O;
unicode = 0110;
},
{
glyphname = E;
lastChange = "2014-11-10 22:19:58 +0100";
layers = (
{
guideLines = (
{
position = "{188, 80}";
}
);
layerId = UUID0;
name = Regular;
paths = (
{
closed = 1;
nodes = (
"455 620 LINE",
"480 530 LINE",
"545 530 LINE",
"545 700 LINE",
"240 700 LINE",
"50 695 LINE",
"50 640 LINE",
"135 620 LINE",
"135 80 LINE",
"50 60 LINE",
"50 0 LINE",
"555 0 LINE",
"555 180 LINE",
"490 180 LINE",
"470 80 LINE",
"240 80 LINE",
"240 325 LINE",
"470 325 LINE",
"470 405 LINE",
"240 405 LINE",
"240 620 LINE"
);
}
);
width = 615;
}
);
leftKerningGroup = E;
rightKerningGroup = E;
unicode = 0045;
},
{
glyphname = Ecircumflex;
lastChange = "2014-11-10 22:19:58 +0100";
layers = (
{
layerId = UUID0;
name = Regular;
paths = (
{
closed = 1;
nodes = (
"445 750 LINE",
"485 795 LINE",
"340 920 LINE",
"280 915 LINE",
"135 795 LINE",
"175 750 LINE",
"312 843 LINE"
);
},
{
closed = 1;
nodes = (
"455 620 LINE",
"480 530 LINE",
"545 530 LINE",
"545 700 LINE",
"240 700 LINE",
"50 695 LINE",
"50 640 LINE",
"135 620 LINE",
"135 80 LINE",
"50 60 LINE",
"50 0 LINE",
"555 0 LINE",
"555 180 LINE",
"490 180 LINE",
"470 80 LINE",
"240 80 LINE",
"240 325 LINE",
"470 325 LINE",
"470 405 LINE",
"240 405 LINE",
"240 620 LINE"
);
}
);
width = 615;
}
);
leftKerningGroup = E;
rightKerningGroup = E;
unicode = 00CA;
},
{
glyphname = Edotaccent;
lastChange = "2014-11-10 22:19:58 +0100";
layers = (
{
layerId = UUID0;
name = Regular;
paths = (
{
closed = 1;
nodes = (
"455 620 LINE",
"480 530 LINE",
"545 530 LINE",
"545 700 LINE",
"240 700 LINE",
"50 695 LINE",
"50 640 LINE",
"135 620 LINE",
"135 80 LINE",
"50 60 LINE",
"50 0 LINE",
"555 0 LINE",
"555 180 LINE",
"490 180 LINE",
"470 80 LINE",
"240 80 LINE",
"240 325 LINE",
"470 325 LINE",
"470 405 LINE",
"240 405 LINE",
"240 620 LINE"
);
},
{
closed = 1;
nodes = (
"260 787 OFFCURVE",
"281 765 OFFCURVE",
"315 765 CURVE SMOOTH",
"345 765 OFFCURVE",
"370 787 OFFCURVE",
"370 825 CURVE SMOOTH",
"370 863 OFFCURVE",
"349 885 OFFCURVE",
"315 885 CURVE SMOOTH",
"285 885 OFFCURVE",
"260 863 OFFCURVE",
"260 825 CURVE SMOOTH"
);
}
);
width = 615;
}
);
leftKerningGroup = E;
rightKerningGroup = E;
unicode = 0116;
},
{
glyphname = Emacron;
lastChange = "2014-11-10 22:19:58 +0100";
layers = (
{
layerId = UUID0;
name = Regular;
paths = (
{
closed = 1;
nodes = (
"455 620 LINE",
"480 530 LINE",
"545 530 LINE",
"545 700 LINE",
"240 700 LINE",
"50 695 LINE",
"50 640 LINE",
"135 620 LINE",
"135 80 LINE",
"50 60 LINE",
"50 0 LINE",
"555 0 LINE",
"555 180 LINE",
"490 180 LINE",
"470 80 LINE",
"240 80 LINE",
"240 325 LINE",
"470 325 LINE",
"470 405 LINE",
"240 405 LINE",
"240 620 LINE"
);
},
{
closed = 1;
nodes = (
"200 790 LINE",
"470 790 LINE",
"470 865 LINE",
"200 865 LINE"
);
}
);
width = 615;
}
);
leftKerningGroup = E;
rightKerningGroup = E;
unicode = 0112;
},
{
glyphname = Eogonek;
lastChange = "2014-11-10 22:19:58 +0100";
layers = (
{
layerId = UUID0;
name = Regular;
paths = (
{
closed = 1;
nodes = (
"540 -153 LINE",
"540 -153 OFFCURVE",
"515 -160 OFFCURVE",
"495 -160 CURVE SMOOTH",
"470 -160 OFFCURVE",
"450 -145 OFFCURVE",
"450 -115 CURVE SMOOTH",
"450 -55 OFFCURVE",
"555 0 OFFCURVE",
"555 0 CURVE",
"555 180 LINE",
"490 180 LINE",
"470 80 LINE",
"240 80 LINE",
"240 325 LINE",
"470 325 LINE",
"470 405 LINE",
"240 405 LINE",
"240 620 LINE",
"455 620 LINE",
"480 530 LINE",
"545 530 LINE",
"545 700 LINE",
"240 700 LINE",
"50 695 LINE",
"50 640 LINE",
"135 620 LINE",
"135 80 LINE",
"50 60 LINE",
"50 0 LINE",
"465 0 LINE",
"465 0 OFFCURVE",
"370 -45 OFFCURVE",
"370 -125 CURVE SMOOTH",
"370 -185 OFFCURVE",
"415 -220 OFFCURVE",
"470 -220 CURVE SMOOTH",
"510 -220 OFFCURVE",
"550 -200 OFFCURVE",
"550 -200 CURVE"
);
}
);
width = 615;
}
);
leftKerningGroup = E;
rightKerningGroup = E;
unicode = 0118;
},
{
glyphname = F;
lastChange = "2014-11-10 22:19:58 +0100";
layers = (
{
layerId = UUID0;
name = Regular;
paths = (
{
closed = 1;
nodes = (
"445 620 LINE",
"470 535 LINE",
"535 535 LINE",
"535 700 LINE",
"230 700 LINE",
"40 695 LINE",
"40 640 LINE",
"125 620 LINE",
"125 80 LINE",
"40 60 LINE",
"40 0 LINE",
"330 0 LINE",
"330 60 LINE",
"230 80 LINE",
"230 315 LINE",
"460 315 LINE",
"460 395 LINE",
"230 395 LINE",
"230 620 LINE"
);
}
);
width = 570;
}
);
leftKerningGroup = H;
rightKerningGroup = F;
unicode = 0046;
},
{
glyphname = G;
lastChange = "2014-11-10 22:19:58 +0100";
layers = (
{
layerId = UUID0;
name = Regular;
paths = (
{
closed = 1;
nodes = (
"635 264 LINE",
"710 284 LINE",
"710 344 LINE",
"450 339 LINE",
"450 284 LINE",
"535 264 LINE",
"535 100 LINE",
"535 100 OFFCURVE",
"465 75 OFFCURVE",
"395 75 CURVE SMOOTH",
"265 75 OFFCURVE",
"175 160 OFFCURVE",
"175 340 CURVE SMOOTH",
"175 525 OFFCURVE",
"250 625 OFFCURVE",
"385 625 CURVE SMOOTH",
"460 625 OFFCURVE",
"520 605 OFFCURVE",
"520 605 CURVE",
"550 495 LINE",
"615 495 LINE",
"620 660 LINE",
"620 660 OFFCURVE",
"505 710 OFFCURVE",
"395 710 CURVE SMOOTH",
"190 710 OFFCURVE",
"60 565 OFFCURVE",
"60 335 CURVE SMOOTH",
"60 110 OFFCURVE",
"180 -10 OFFCURVE",
"380 -10 CURVE SMOOTH",
"529 -10 OFFCURVE",
"635 50 OFFCURVE",
"635 50 CURVE"
);
}
);
width = 750;
}
);
leftKerningGroup = O;
rightKerningGroup = G;
unicode = 0047;
},
{
glyphname = Gcircumflex;
lastChange = "2014-11-10 22:19:58 +0100";
layers = (
{
layerId = UUID0;
name = Regular;
paths = (
{
closed = 1;
nodes = (
"635 264 LINE",
"710 284 LINE",
"710 344 LINE",
"450 339 LINE",
"450 284 LINE",
"535 264 LINE",
"535 100 LINE",
"535 100 OFFCURVE",
"465 75 OFFCURVE",
"395 75 CURVE SMOOTH",
"265 75 OFFCURVE",
"175 160 OFFCURVE",
"175 340 CURVE SMOOTH",
"175 525 OFFCURVE",
"250 625 OFFCURVE",
"385 625 CURVE SMOOTH",
"460 625 OFFCURVE",
"520 605 OFFCURVE",
"520 605 CURVE",
"550 495 LINE",
"615 495 LINE",
"620 660 LINE",
"620 660 OFFCURVE",
"505 710 OFFCURVE",
"395 710 CURVE SMOOTH",
"190 710 OFFCURVE",
"60 565 OFFCURVE",
"60 335 CURVE SMOOTH",
"60 110 OFFCURVE",
"180 -10 OFFCURVE",
"380 -10 CURVE SMOOTH",
"529 -10 OFFCURVE",
"635 50 OFFCURVE",
"635 50 CURVE"
);
},
{
closed = 1;
nodes = (
"510 750 LINE",
"550 795 LINE",
"405 920 LINE",
"345 915 LINE",
"200 795 LINE",
"240 750 LINE",
"377 843 LINE"
);
}
);
width = 750;
}
);
leftKerningGroup = O;
rightKerningGroup = G;
unicode = 011C;
},
{
glyphname = Gdotaccent;
lastChange = "2014-11-10 22:19:58 +0100";
layers = (
{
layerId = UUID0;
name = Regular;
paths = (
{
closed = 1;
nodes = (
"635 264 LINE",
"710 284 LINE",
"710 344 LINE",
"450 339 LINE",
"450 284 LINE",
"535 264 LINE",
"535 100 LINE",
"535 100 OFFCURVE",
"465 75 OFFCURVE",
"395 75 CURVE SMOOTH",
"265 75 OFFCURVE",
"175 160 OFFCURVE",
"175 340 CURVE SMOOTH",
"175 525 OFFCURVE",
"250 625 OFFCURVE",
"385 625 CURVE SMOOTH",
"460 625 OFFCURVE",
"520 605 OFFCURVE",
"520 605 CURVE",
"550 495 LINE",
"615 495 LINE",
"620 660 LINE",
"620 660 OFFCURVE",
"505 710 OFFCURVE",
"395 710 CURVE SMOOTH",
"190 710 OFFCURVE",
"60 565 OFFCURVE",
"60 335 CURVE SMOOTH",
"60 110 OFFCURVE",
"180 -10 OFFCURVE",
"380 -10 CURVE SMOOTH",
"529 -10 OFFCURVE",
"635 50 OFFCURVE",
"635 50 CURVE"
);
},
{
closed = 1;
nodes = (
"315 787 OFFCURVE",
"336 765 OFFCURVE",
"370 765 CURVE SMOOTH",
"400 765 OFFCURVE",
"425 787 OFFCURVE",
"425 825 CURVE SMOOTH",
"425 863 OFFCURVE",
"404 885 OFFCURVE",
"370 885 CURVE SMOOTH",
"340 885 OFFCURVE",
"315 863 OFFCURVE",
"315 825 CURVE SMOOTH"
);
}
);
width = 750;
}
);
leftKerningGroup = O;
rightKerningGroup = G;
unicode = 0120;
},
{
glyphname = H;
lastChange = "2014-11-10 22:19:58 +0100";
layers = (
{
layerId = UUID0;
name = Regular;
paths = (
{
closed = 1;
nodes = (
"325 60 LINE",
"230 80 LINE",
"230 320 LINE",
"565 320 LINE",
"565 80 LINE",
"470 60 LINE",
"470 0 LINE",
"755 0 LINE",
"755 60 LINE",
"670 80 LINE",
"670 620 LINE",
"755 640 LINE",
"755 700 LINE",
"470 695 LINE",
"470 640 LINE",
"565 620 LINE",
"565 400 LINE",
"230 400 LINE",
"230 620 LINE",
"325 640 LINE",
"325 700 LINE",
"40 695 LINE",
"40 640 LINE",
"125 620 LINE",
"125 80 LINE",
"40 60 LINE",
"40 0 LINE",
"325 0 LINE"
);
}
);
width = 795;
}
);
unicode = 0048;
},
{
glyphname = Hbar;
lastChange = "2014-11-10 22:19:58 +0100";
layers = (
{
layerId = UUID0;
name = Regular;
paths = (
{
closed = 1;
nodes = (
"45 485 LINE",
"130 485 LINE",
"130 80 LINE",
"45 60 LINE",
"45 0 LINE",
"330 0 LINE",
"330 60 LINE",
"235 80 LINE",
"235 320 LINE",
"570 320 LINE",
"570 80 LINE",
"475 60 LINE",
"475 0 LINE",
"760 0 LINE",
"760 60 LINE",
"675 80 LINE",
"675 485 LINE",
"760 485 LINE",
"760 560 LINE",
"675 560 LINE",
"675 620 LINE",
"760 640 LINE",
"760 700 LINE",
"475 695 LINE",
"475 640 LINE",
"570 620 LINE",
"570 560 LINE",
"235 560 LINE",
"235 620 LINE",
"330 640 LINE",
"330 700 LINE",
"45 695 LINE",
"45 640 LINE",
"130 620 LINE",
"130 560 LINE",
"45 560 LINE"
);
},
{
closed = 1;
nodes = (
"235 400 LINE",
"235 485 LINE",
"570 485 LINE",
"570 400 LINE"
);
}
);
width = 805;
}
);
leftKerningGroup = H;
rightKerningGroup = H;
unicode = 0126;
},
{
glyphname = Hcircumflex;
lastChange = "2014-11-10 22:19:58 +0100";
layers = (
{
layerId = UUID0;
name = Regular;
paths = (
{
closed = 1;
nodes = (
"325 60 LINE",
"230 80 LINE",
"230 320 LINE",
"565 320 LINE",
"565 80 LINE",
"470 60 LINE",
"470 0 LINE",
"755 0 LINE",
"755 60 LINE",
"670 80 LINE",
"670 620 LINE",
"755 640 LINE",
"755 700 LINE",
"470 695 LINE",
"470 640 LINE",
"565 620 LINE",
"565 400 LINE",
"230 400 LINE",
"230 620 LINE",
"325 640 LINE",
"325 700 LINE",
"40 695 LINE",
"40 640 LINE",
"125 620 LINE",
"125 80 LINE",
"40 60 LINE",
"40 0 LINE",
"325 0 LINE"
);
},
{
closed = 1;
nodes = (
"532 750 LINE",
"572 795 LINE",
"427 920 LINE",
"367 915 LINE",
"222 795 LINE",
"262 750 LINE",
"399 843 LINE"
);
}
);
width = 795;
}
);
leftKerningGroup = H;
rightKerningGroup = H;
unicode = 0124;
},
{
glyphname = I;
lastChange = "2014-11-10 22:19:58 +0100";
layers = (
{
layerId = UUID0;
name = Regular;
paths = (
{
closed = 1;
nodes = (
"320 60 LINE",
"235 80 LINE",
"235 620 LINE",
"320 640 LINE",
"320 700 LINE",
"45 695 LINE",
"45 640 LINE",
"130 620 LINE",
"130 80 LINE",
"45 60 LINE",
"45 0 LINE",
"320 0 LINE"
);
}
);
width = 365;
}
);
leftKerningGroup = I;
rightKerningGroup = I;
unicode = 0049;
},
{
glyphname = IJ;
lastChange = "2014-11-10 22:19:58 +0100";
layers = (
{
layerId = UUID0;
name = Regular;
paths = (
{
closed = 1;
nodes = (
"320 60 LINE",
"235 80 LINE",
"235 620 LINE",
"320 640 LINE",
"320 700 LINE",
"45 695 LINE",
"45 640 LINE",
"130 620 LINE",
"130 80 LINE",
"45 60 LINE",
"45 0 LINE",
"320 0 LINE"
);
},
{
closed = 1;
nodes = (
"389 695 LINE",
"389 640 LINE",
"474 620 LINE",
"474 25 LINE SMOOTH",
"474 -35 OFFCURVE",
"449 -70 OFFCURVE",
"384 -70 CURVE SMOOTH",
"334 -70 LINE",
"325 -145 LINE",
"325 -145 OFFCURVE",
"364 -150 OFFCURVE",
"389 -150 CURVE SMOOTH",
"509 -150 OFFCURVE",
"579 -75 OFFCURVE",
"579 45 CURVE SMOOTH",
"579 620 LINE",
"664 640 LINE",
"664 700 LINE"
);
}
);
width = 704;
}
);
rightKerningGroup = J;
unicode = 0132;
},
{
glyphname = Ibreve;
lastChange = "2014-11-10 22:19:58 +0100";
layers = (
{
components = (
{
name = I;
transform = "{1, 0, 0, 1, -5, 0}";
},
{
name = breve;
transform = "{1, 0, 0, 1, -40, 145}";
}
);
layerId = UUID0;
name = Regular;
paths = (
{
closed = 0;
nodes = (
"216 660 LINE"
);
}
);
width = 355;
}
);
leftKerningGroup = I;
rightKerningGroup = I;
unicode = 012C;
},
{
glyphname = Icircumflex;
lastChange = "2014-11-10 22:19:58 +0100";
layers = (
{
layerId = UUID0;
name = Regular;
paths = (
{
closed = 1;
nodes = (
"316 750 LINE",
"356 795 LINE",
"218 920 LINE",
"158 915 LINE",
"20 795 LINE",
"60 750 LINE",
"190 843 LINE"
);
},
{
closed = 1;
nodes = (
"328 60 LINE",
"243 80 LINE",
"243 620 LINE",
"328 640 LINE",
"328 700 LINE",
"53 695 LINE",
"53 640 LINE",
"138 620 LINE",
"138 80 LINE",
"53 60 LINE",
"53 0 LINE",
"328 0 LINE"
);
}
);
width = 376;
}
);
leftKerningGroup = I;
rightKerningGroup = I;
unicode = 00CE;
},
{
glyphname = Idieresis;
lastChange = "2014-11-10 22:19:58 +0100";
layers = (
{
layerId = UUID0;
name = Regular;
paths = (
{
closed = 1;
nodes = (
"315 60 LINE",
"230 80 LINE",
"230 620 LINE",
"315 640 LINE",
"315 700 LINE",
"40 695 LINE",
"40 640 LINE",
"125 620 LINE",
"125 80 LINE",
"40 60 LINE",
"40 0 LINE",
"315 0 LINE"
);
},
{
closed = 1;
nodes = (
"20 787 OFFCURVE",
"41 765 OFFCURVE",
"75 765 CURVE SMOOTH",
"105 765 OFFCURVE",
"130 787 OFFCURVE",
"130 825 CURVE SMOOTH",
"130 863 OFFCURVE",
"109 885 OFFCURVE",
"75 885 CURVE SMOOTH",
"45 885 OFFCURVE",
"20 863 OFFCURVE",
"20 825 CURVE SMOOTH"
);
},
{
closed = 1;
nodes = (
"225 787 OFFCURVE",
"246 765 OFFCURVE",
"280 765 CURVE SMOOTH",
"310 765 OFFCURVE",
"335 787 OFFCURVE",
"335 825 CURVE SMOOTH",
"335 863 OFFCURVE",
"314 885 OFFCURVE",
"280 885 CURVE SMOOTH",
"250 885 OFFCURVE",
"225 863 OFFCURVE",
"225 825 CURVE SMOOTH"
);
}
);
width = 355;
}
);
leftKerningGroup = I;
rightKerningGroup = I;
unicode = 00CF;
},
{
glyphname = Idotaccent;
lastChange = "2014-11-10 22:19:58 +0100";
layers = (
{
layerId = UUID0;
name = Regular;
paths = (
{
closed = 1;
nodes = (
"315 60 LINE",
"230 80 LINE",
"230 620 LINE",
"315 640 LINE",
"315 700 LINE",
"40 695 LINE",
"40 640 LINE",
"125 620 LINE",
"125 80 LINE",
"40 60 LINE",
"40 0 LINE",
"315 0 LINE"
);
},
{
closed = 1;
nodes = (
"123 787 OFFCURVE",
"144 765 OFFCURVE",
"178 765 CURVE SMOOTH",
"208 765 OFFCURVE",
"233 787 OFFCURVE",
"233 825 CURVE SMOOTH",
"233 863 OFFCURVE",
"212 885 OFFCURVE",
"178 885 CURVE SMOOTH",
"148 885 OFFCURVE",
"123 863 OFFCURVE",
"123 825 CURVE SMOOTH"
);
}
);
width = 355;
}
);
leftKerningGroup = I;
rightKerningGroup = I;
unicode = 0130;
},
{
glyphname = Igrave;
lastChange = "2014-11-10 22:19:58 +0100";
layers = (
{
components = (
{
name = I;
transform = "{1, 0, 0, 1, 5, 0}";
},
{
name = grave.Cup;
transform = "{1, 0, 0, 1, 25, 0}";
}
);
layerId = UUID0;
name = Regular;
paths = (
{
closed = 0;
nodes = (
"193 651 LINE"
);
}
);
width = 360;
}
);
leftKerningGroup = I;
rightKerningGroup = I;
unicode = 00CC;
},
{
glyphname = Imacron;
lastChange = "2014-11-10 22:19:58 +0100";
layers = (
{
layerId = UUID0;
name = Regular;
paths = (
{
closed = 1;
nodes = (
"315 60 LINE",
"230 80 LINE",
"230 620 LINE",
"315 640 LINE",
"315 700 LINE",
"40 695 LINE",
"40 640 LINE",
"125 620 LINE",
"125 80 LINE",
"40 60 LINE",
"40 0 LINE",
"315 0 LINE"
);
},
{
closed = 1;
nodes = (
"45 790 LINE",
"315 790 LINE",
"315 865 LINE",
"45 865 LINE"
);
}
);
width = 355;
}
);
leftKerningGroup = I;
rightKerningGroup = I;
unicode = 012A;
},
{
glyphname = Iogonek;
lastChange = "2014-11-10 22:19:58 +0100";
layers = (
{
layerId = UUID0;
name = Regular;
paths = (
{
closed = 1;
nodes = (
"315 60 LINE",
"230 80 LINE",
"230 620 LINE",
"315 640 LINE",
"315 700 LINE",
"40 695 LINE",
"40 640 LINE",
"125 620 LINE",
"125 80 LINE",
"40 60 LINE",
"40 0 LINE",
"192 0 LINE",
"162 -13 OFFCURVE",
"80 -55 OFFCURVE",
"80 -125 CURVE SMOOTH",
"80 -185 OFFCURVE",
"125 -220 OFFCURVE",
"180 -220 CURVE SMOOTH",
"220 -220 OFFCURVE",
"260 -200 OFFCURVE",
"260 -200 CURVE",
"250 -153 LINE",
"250 -153 OFFCURVE",
"225 -160 OFFCURVE",
"205 -160 CURVE SMOOTH",
"180 -160 OFFCURVE",
"160 -145 OFFCURVE",
"160 -115 CURVE SMOOTH",
"160 -62 OFFCURVE",
"250 -20 OFFCURVE",
"315 0 CURVE"
);
}
);
width = 355;
}
);
leftKerningGroup = I;
rightKerningGroup = I;
unicode = 012E;
},
{
glyphname = Itilde;
lastChange = "2014-11-10 22:19:58 +0100";
layers = (
{
layerId = UUID0;
name = Regular;
paths = (
{
closed = 1;
nodes = (
"24 766 LINE",
"24 766 OFFCURVE",
"55 810 OFFCURVE",
"93 810 CURVE SMOOTH",
"146 810 OFFCURVE",
"185 766 OFFCURVE",
"250 766 CURVE SMOOTH",
"318 766 OFFCURVE",
"355 856 OFFCURVE",
"355 856 CURVE",
"321 886 LINE",
"321 886 OFFCURVE",
"293 844 OFFCURVE",
"257 844 CURVE SMOOTH",
"204 844 OFFCURVE",
"165 890 OFFCURVE",
"100 890 CURVE SMOOTH",
"32 890 OFFCURVE",
"-10 796 OFFCURVE",
"-10 796 CURVE"
);
},
{
closed = 1;
nodes = (
"314 60 LINE",
"229 80 LINE",
"229 620 LINE",
"314 640 LINE",
"314 700 LINE",
"39 695 LINE",
"39 640 LINE",
"124 620 LINE",
"124 80 LINE",
"39 60 LINE",
"39 0 LINE",
"314 0 LINE"
);
}
);
width = 355;
}
);
leftKerningGroup = I;
rightKerningGroup = I;
unicode = 0128;
},
{
glyphname = J;
lastChange = "2014-11-10 22:19:58 +0100";
layers = (
{
layerId = UUID0;
name = Regular;
paths = (
{
closed = 1;
nodes = (
"44 695 LINE",
"44 640 LINE",
"129 620 LINE",
"129 25 LINE SMOOTH",
"129 -35 OFFCURVE",
"104 -70 OFFCURVE",
"39 -70 CURVE SMOOTH",
"-11 -70 LINE",
"-20 -145 LINE",
"-20 -145 OFFCURVE",
"19 -150 OFFCURVE",
"44 -150 CURVE SMOOTH",
"164 -150 OFFCURVE",
"234 -75 OFFCURVE",
"234 45 CURVE SMOOTH",
"234 620 LINE",
"319 640 LINE",
"319 700 LINE"
);
}
);
width = 359;
}
);
leftKerningGroup = J;
rightKerningGroup = J;
unicode = 004A;
},
{
glyphname = Jcircumflex;
lastChange = "2014-11-10 22:19:58 +0100";
layers = (
{
layerId = UUID0;
name = Regular;
paths = (
{
closed = 1;
nodes = (
"308 750 LINE",
"348 795 LINE",
"210 920 LINE",
"150 915 LINE",
"12 795 LINE",
"52 750 LINE",
"182 843 LINE"
);
},
{
closed = 1;
nodes = (
"44 695 LINE",
"44 640 LINE",
"129 620 LINE",
"129 25 LINE SMOOTH",
"129 -35 OFFCURVE",
"104 -70 OFFCURVE",
"39 -70 CURVE SMOOTH",
"-11 -70 LINE",
"-20 -145 LINE",
"-20 -145 OFFCURVE",
"19 -150 OFFCURVE",
"44 -150 CURVE SMOOTH",
"164 -150 OFFCURVE",
"234 -75 OFFCURVE",
"234 45 CURVE SMOOTH",
"234 620 LINE",
"319 640 LINE",
"319 700 LINE"
);
}
);
width = 363;
}
);
leftKerningGroup = J;
rightKerningGroup = J;
unicode = 0134;
},
{
glyphname = K;
lastChange = "2014-11-10 22:19:58 +0100";
layers = (
{
layerId = UUID0;
name = Regular;
paths = (
{
closed = 1;
nodes = (
"330 60 LINE",
"235 80 LINE",
"235 320 LINE",
"333 320 LINE",
"505 80 LINE",
"420 60 LINE",
"420 0 LINE",
"705 0 LINE",
"705 60 LINE",
"620 80 LINE",
"414 367 LINE",
"566 620 LINE",
"665 640 LINE",
"665 700 LINE",
"500 695 LINE",
"327 400 LINE",
"235 400 LINE",
"235 620 LINE",
"330 640 LINE",
"330 700 LINE",
"45 695 LINE",
"45 640 LINE",
"130 620 LINE",
"130 80 LINE",
"45 60 LINE",
"45 0 LINE",
"330 0 LINE"
);
}
);
width = 690;
}
);
rightKerningGroup = K;
unicode = 004B;
},
{
glyphname = L;
lastChange = "2014-11-10 22:19:58 +0100";
layers = (
{
layerId = UUID0;
name = Regular;
paths = (
{
closed = 1;
nodes = (
"225 620 LINE",
"310 640 LINE",
"310 700 LINE",
"35 695 LINE",
"35 640 LINE",
"120 620 LINE",
"120 80 LINE",
"35 60 LINE",
"35 0 LINE",
"520 0 LINE",
"520 195 LINE",
"450 195 LINE",
"430 80 LINE",
"225 80 LINE"
);
}
);
width = 530;
}
);
leftKerningGroup = H;
rightKerningGroup = L;
unicode = 004C;
},
{
glyphname = Lcaron;
lastChange = "2014-11-10 22:19:58 +0100";
layers = (
{
components = (
{
name = L;
transform = "{1, 0, 0, 1, 0, 0}";
}
);
layerId = UUID0;
name = Regular;
paths = (
{
closed = 1;
nodes = (
"407 695 LINE",
"410 635 OFFCURVE",
"396 574 OFFCURVE",
"365 485 CURVE",
"425 465 LINE",
"472 561 OFFCURVE",
"505 640 OFFCURVE",
"505 700 CURVE"
);
}
);
width = 530;
}
);
leftKerningGroup = H;
unicode = 013D;
},
{
glyphname = Ldot;
lastChange = "2014-11-10 22:19:58 +0100";
layers = (
{
layerId = UUID0;
name = Regular;
paths = (
{
closed = 1;
nodes = (
"225 620 LINE",
"310 640 LINE",
"310 700 LINE",
"35 695 LINE",
"35 640 LINE",
"120 620 LINE",
"120 80 LINE",
"35 60 LINE",
"35 0 LINE",
"520 0 LINE",
"520 195 LINE",
"450 195 LINE",
"430 80 LINE",
"225 80 LINE"
);
},
{
closed = 1;
nodes = (
"305 313 OFFCURVE",
"330 288 OFFCURVE",
"372 288 CURVE SMOOTH",
"409 288 OFFCURVE",
"439 313 OFFCURVE",
"439 360 CURVE SMOOTH",
"439 407 OFFCURVE",
"414 432 OFFCURVE",
"372 432 CURVE SMOOTH",
"335 432 OFFCURVE",
"305 407 OFFCURVE",
"305 360 CURVE SMOOTH"
);
}
);
width = 530;
}
);
leftKerningGroup = H;
rightKerningGroup = L;
unicode = 013F;
},
{
glyphname = Lslash;
lastChange = "2014-11-10 22:19:58 +0100";
layers = (
{
layerId = UUID0;
name = Regular;
paths = (
{
closed = 1;
nodes = (
"240 620 LINE",
"325 640 LINE",
"325 700 LINE",
"50 695 LINE",
"50 640 LINE",
"135 620 LINE",
"135 358 LINE",
"30 308 LINE",
"51 233 LINE",
"135 273 LINE",
"135 80 LINE",
"50 60 LINE",
"50 0 LINE",
"535 0 LINE",
"535 195 LINE",
"465 195 LINE",
"445 80 LINE",
"240 80 LINE",
"240 317 LINE",
"406 397 LINE",
"385 472 LINE",
"240 402 LINE"
);
}
);
width = 546;
}
);
leftKerningGroup = H;
rightKerningGroup = L;
unicode = 0141;
},
{
glyphname = M;
lastChange = "2014-11-10 22:19:58 +0100";
layers = (
{
layerId = UUID0;
name = Regular;
paths = (
{
closed = 1;
nodes = (
"565 0 LINE",
"845 0 LINE",
"845 60 LINE",
"760 80 LINE",
"760 620 LINE",
"845 640 LINE",
"845 700 LINE",
"635 695 LINE",
"446 300 LINE",
"265 700 LINE",
"40 695 LINE",
"40 640 LINE",
"125 620 LINE",
"125 80 LINE",
"40 60 LINE",
"40 0 LINE",
"310 0 LINE",
"310 60 LINE",
"215 80 LINE",
"215 580 LINE",
"240 510 LINE",
"395 185 LINE",
"475 190 LINE",
"630 505 LINE",
"660 580 LINE",
"660 80 LINE",
"565 60 LINE"
);
}
);
width = 885;
}
);
leftKerningGroup = H;
rightKerningGroup = H;
unicode = 004D;
},
{
glyphname = N;
lastChange = "2014-11-10 22:19:58 +0100";
layers = (
{
layerId = UUID0;
name = Regular;
paths = (
{
closed = 1;
nodes = (
"545 0 LINE",
"670 0 LINE",
"670 620 LINE",
"755 640 LINE",
"755 700 LINE",
"495 695 LINE",
"495 640 LINE",
"580 620 LINE",
"580 141 LINE",
"250 700 LINE",
"40 695 LINE",
"40 640 LINE",
"125 620 LINE",
"125 80 LINE",
"40 60 LINE",
"40 0 LINE",
"310 0 LINE",
"310 60 LINE",
"215 80 LINE",
"215 551 LINE"
);
}
);
width = 790;
}
);
leftKerningGroup = H;
rightKerningGroup = H;
unicode = 004E;
},
{
glyphname = Eng;
lastChange = "2014-11-10 22:19:58 +0100";
layers = (
{
layerId = UUID0;
name = Regular;
paths = (
{
closed = 1;
nodes = (
"424 -70 LINE",
"415 -145 LINE",
"415 -145 OFFCURVE",
"454 -150 OFFCURVE",
"479 -150 CURVE SMOOTH",
"599 -150 OFFCURVE",
"670 -75 OFFCURVE",
"670 34 CURVE",
"670 620 LINE",
"755 640 LINE",
"755 700 LINE",
"495 695 LINE",
"495 640 LINE",
"580 620 LINE",
"580 141 LINE",
"250 700 LINE",
"40 695 LINE",
"40 640 LINE",
"125 620 LINE",
"125 80 LINE",
"40 60 LINE",
"40 0 LINE",
"310 0 LINE",
"310 60 LINE",
"215 80 LINE",
"215 551 LINE",
"561 -10 LINE",
"553 -50 OFFCURVE",
"527 -70 OFFCURVE",
"474 -70 CURVE SMOOTH"
);
}
);
width = 795;
}
);
leftKerningGroup = H;
rightKerningGroup = J;
unicode = 014A;
},
{
glyphname = Ntilde;
lastChange = "2014-11-10 22:19:58 +0100";
layers = (
{
layerId = UUID0;
name = Regular;
paths = (
{
closed = 1;
nodes = (
"755 700 LINE",
"495 695 LINE",
"495 640 LINE",
"580 620 LINE",
"580 141 LINE",
"250 700 LINE",
"40 695 LINE",
"40 640 LINE",
"125 620 LINE",
"125 80 LINE",
"40 60 LINE",
"40 0 LINE",
"310 0 LINE",
"310 60 LINE",
"215 80 LINE",
"215 551 LINE",
"545 0 LINE",
"670 0 LINE",
"670 620 LINE",
"755 640 LINE"
);
},
{
closed = 1;
nodes = (
"230 766 LINE",
"230 766 OFFCURVE",
"260 810 OFFCURVE",
"300 810 CURVE SMOOTH",
"360 810 OFFCURVE",
"405 766 OFFCURVE",
"475 766 CURVE SMOOTH",
"545 766 OFFCURVE",
"580 856 OFFCURVE",
"580 856 CURVE",
"545 886 LINE",
"545 886 OFFCURVE",
"520 844 OFFCURVE",
"480 844 CURVE SMOOTH",
"420 844 OFFCURVE",
"375 890 OFFCURVE",
"305 890 CURVE SMOOTH",
"235 890 OFFCURVE",
"195 796 OFFCURVE",
"195 796 CURVE"
);
}
);
width = 790;
}
);
leftKerningGroup = N;
rightKerningGroup = N;
unicode = 00D1;
},
{
glyphname = O;
lastChange = "2014-11-10 22:19:58 +0100";
layers = (
{
layerId = UUID0;
name = Regular;
paths = (
{
closed = 1;
nodes = (
"185 710 OFFCURVE",
"60 565 OFFCURVE",
"60 345 CURVE SMOOTH",
"60 115 OFFCURVE",
"170 -10 OFFCURVE",
"365 -10 CURVE SMOOTH",
"560 -10 OFFCURVE",
"695 140 OFFCURVE",
"695 360 CURVE SMOOTH",
"695 575 OFFCURVE",
"580 710 OFFCURVE",
"385 710 CURVE SMOOTH"
);
},
{
closed = 1;
nodes = (
"510 625 OFFCURVE",
"580 535 OFFCURVE",
"580 355 CURVE SMOOTH",
"580 165 OFFCURVE",
"500 75 OFFCURVE",
"370 75 CURVE SMOOTH",
"240 75 OFFCURVE",
"175 170 OFFCURVE",
"175 350 CURVE SMOOTH",
"175 540 OFFCURVE",
"250 625 OFFCURVE",
"380 625 CURVE SMOOTH"
);
}
);
width = 755;
}
);
leftKerningGroup = O;
rightKerningGroup = O;
unicode = 004F;
},
{
glyphname = Ocircumflex;
lastChange = "2014-11-10 22:19:58 +0100";
layers = (
{
layerId = UUID0;
name = Regular;
paths = (
{
closed = 1;
nodes = (
"185 710 OFFCURVE",
"60 565 OFFCURVE",
"60 345 CURVE SMOOTH",
"60 115 OFFCURVE",
"170 -10 OFFCURVE",
"365 -10 CURVE SMOOTH",
"560 -10 OFFCURVE",
"695 140 OFFCURVE",
"695 360 CURVE SMOOTH",
"695 575 OFFCURVE",
"580 710 OFFCURVE",
"385 710 CURVE SMOOTH"
);
},
{
closed = 1;
nodes = (
"510 625 OFFCURVE",
"580 535 OFFCURVE",
"580 355 CURVE SMOOTH",
"580 165 OFFCURVE",
"500 75 OFFCURVE",
"370 75 CURVE SMOOTH",
"240 75 OFFCURVE",
"175 170 OFFCURVE",
"175 350 CURVE SMOOTH",
"175 540 OFFCURVE",
"250 625 OFFCURVE",
"380 625 CURVE SMOOTH"
);
},
{
closed = 1;
nodes = (
"509 750 LINE",
"549 795 LINE",
"404 920 LINE",
"344 915 LINE",
"199 795 LINE",
"239 750 LINE",
"376 843 LINE"
);
}
);
width = 755;
}
);
leftKerningGroup = O;
rightKerningGroup = O;
unicode = 00D4;
},
{
glyphname = Odieresis;
lastChange = "2014-11-10 22:19:58 +0100";
layers = (
{
layerId = UUID0;
name = Regular;
paths = (
{
closed = 1;
nodes = (
"185 710 OFFCURVE",
"60 565 OFFCURVE",
"60 345 CURVE SMOOTH",
"60 115 OFFCURVE",
"170 -10 OFFCURVE",
"365 -10 CURVE SMOOTH",
"560 -10 OFFCURVE",
"695 140 OFFCURVE",
"695 360 CURVE SMOOTH",
"695 575 OFFCURVE",
"580 710 OFFCURVE",
"385 710 CURVE SMOOTH"
);
},
{
closed = 1;
nodes = (
"510 625 OFFCURVE",
"580 535 OFFCURVE",
"580 355 CURVE SMOOTH",
"580 165 OFFCURVE",
"500 75 OFFCURVE",
"370 75 CURVE SMOOTH",
"240 75 OFFCURVE",
"175 170 OFFCURVE",
"175 350 CURVE SMOOTH",
"175 540 OFFCURVE",
"250 625 OFFCURVE",
"380 625 CURVE SMOOTH"
);
},
{
closed = 1;
nodes = (
"220 787 OFFCURVE",
"241 765 OFFCURVE",
"275 765 CURVE SMOOTH",
"305 765 OFFCURVE",
"330 787 OFFCURVE",
"330 825 CURVE SMOOTH",
"330 863 OFFCURVE",
"309 885 OFFCURVE",
"275 885 CURVE SMOOTH",
"245 885 OFFCURVE",
"220 863 OFFCURVE",
"220 825 CURVE SMOOTH"
);
},
{
closed = 1;
nodes = (
"425 787 OFFCURVE",
"446 765 OFFCURVE",
"480 765 CURVE SMOOTH",
"510 765 OFFCURVE",
"535 787 OFFCURVE",
"535 825 CURVE SMOOTH",
"535 863 OFFCURVE",
"514 885 OFFCURVE",
"480 885 CURVE SMOOTH",
"450 885 OFFCURVE",
"425 863 OFFCURVE",
"425 825 CURVE SMOOTH"
);
}
);
width = 755;
}
);
leftKerningGroup = O;
rightKerningGroup = O;
unicode = 00D6;
},
{
glyphname = Ohungarumlaut;
lastChange = "2014-11-10 22:19:58 +0100";
layers = (
{
components = (
{
name = O;
transform = "{1, 0, 0, 1, 0, 0}";
}
);
guideLines = (
{
position = "{662, 934}";
}
);
layerId = UUID0;
name = Regular;
paths = (
{
closed = 1;
nodes = (
"397 883 LINE",
"331 941 LINE",
"201 775 LINE",
"255 733 LINE"
);
},
{
closed = 1;
nodes = (
"592 883 LINE",
"526 941 LINE",
"396 775 LINE",
"450 733 LINE"
);
}
);
width = 755;
}
);
leftKerningGroup = O;
rightKerningGroup = O;
unicode = 0150;
},
{
glyphname = Omacron;
lastChange = "2014-11-10 22:19:58 +0100";
layers = (
{
layerId = UUID0;
name = Regular;
paths = (
{
closed = 1;
nodes = (
"185 710 OFFCURVE",
"60 565 OFFCURVE",
"60 345 CURVE SMOOTH",
"60 115 OFFCURVE",
"170 -10 OFFCURVE",
"365 -10 CURVE SMOOTH",
"560 -10 OFFCURVE",
"695 140 OFFCURVE",
"695 360 CURVE SMOOTH",
"695 575 OFFCURVE",
"580 710 OFFCURVE",
"385 710 CURVE SMOOTH"
);
},
{
closed = 1;
nodes = (
"510 625 OFFCURVE",
"580 535 OFFCURVE",
"580 355 CURVE SMOOTH",
"580 165 OFFCURVE",
"500 75 OFFCURVE",
"370 75 CURVE SMOOTH",
"240 75 OFFCURVE",
"175 170 OFFCURVE",
"175 350 CURVE SMOOTH",
"175 540 OFFCURVE",
"250 625 OFFCURVE",
"380 625 CURVE SMOOTH"
);
},
{
closed = 1;
nodes = (
"247 790 LINE",
"517 790 LINE",
"517 865 LINE",
"247 865 LINE"
);
}
);
width = 755;
}
);
leftKerningGroup = O;
rightKerningGroup = O;
unicode = 014C;
},
{
glyphname = Oslash;
lastChange = "2014-11-10 22:19:58 +0100";
layers = (
{
layerId = UUID0;
name = Regular;
paths = (
{
closed = 1;
nodes = (
"600 785 LINE",
"536 678 LINE",
"494 699 OFFCURVE",
"445 710 OFFCURVE",
"390 710 CURVE SMOOTH",
"190 710 OFFCURVE",
"65 565 OFFCURVE",
"65 345 CURVE SMOOTH",
"65 216 OFFCURVE",
"99 120 OFFCURVE",
"164 61 CURVE",
"85 -70 LINE",
"150 -105 LINE",
"225 20 LINE",
"266 0 OFFCURVE",
"314 -10 OFFCURVE",
"370 -10 CURVE SMOOTH",
"565 -10 OFFCURVE",
"700 140 OFFCURVE",
"700 360 CURVE SMOOTH",
"700 481 OFFCURVE",
"663 576 OFFCURVE",
"597 637 CURVE",
"665 750 LINE"
);
},
{
closed = 1;
nodes = (
"542 546 LINE",
"570 501 OFFCURVE",
"585 437 OFFCURVE",
"585 355 CURVE SMOOTH",
"585 165 OFFCURVE",
"505 75 OFFCURVE",
"375 75 CURVE SMOOTH",
"335 75 OFFCURVE",
"301 84 OFFCURVE",
"274 101 CURVE"
);
},
{
closed = 1;
nodes = (
"221 156 LINE",
"194 202 OFFCURVE",
"180 267 OFFCURVE",
"180 350 CURVE SMOOTH",
"180 540 OFFCURVE",
"255 625 OFFCURVE",
"385 625 CURVE SMOOTH",
"425 625 OFFCURVE",
"459 616 OFFCURVE",
"488 599 CURVE"
);
}
);
width = 765;
}
);
leftKerningGroup = O;
rightKerningGroup = O;
unicode = 00D8;
},
{
glyphname = Otilde;
lastChange = "2014-11-10 22:19:58 +0100";
layers = (
{
layerId = UUID0;
name = Regular;
paths = (
{
closed = 1;
nodes = (
"185 710 OFFCURVE",
"60 565 OFFCURVE",
"60 345 CURVE SMOOTH",
"60 115 OFFCURVE",
"170 -10 OFFCURVE",
"365 -10 CURVE SMOOTH",
"560 -10 OFFCURVE",
"695 140 OFFCURVE",
"695 360 CURVE SMOOTH",
"695 575 OFFCURVE",
"580 710 OFFCURVE",
"385 710 CURVE SMOOTH"
);
},
{
closed = 1;
nodes = (
"510 625 OFFCURVE",
"580 535 OFFCURVE",
"580 355 CURVE SMOOTH",
"580 165 OFFCURVE",
"500 75 OFFCURVE",
"370 75 CURVE SMOOTH",
"240 75 OFFCURVE",
"175 170 OFFCURVE",
"175 350 CURVE SMOOTH",
"175 540 OFFCURVE",
"250 625 OFFCURVE",
"380 625 CURVE SMOOTH"
);
},
{
closed = 1;
nodes = (
"219 766 LINE",
"219 766 OFFCURVE",
"249 810 OFFCURVE",
"289 810 CURVE SMOOTH",
"349 810 OFFCURVE",
"394 766 OFFCURVE",
"464 766 CURVE SMOOTH",
"534 766 OFFCURVE",
"569 856 OFFCURVE",
"569 856 CURVE",
"534 886 LINE",
"534 886 OFFCURVE",
"509 844 OFFCURVE",
"469 844 CURVE SMOOTH",
"409 844 OFFCURVE",
"364 890 OFFCURVE",
"294 890 CURVE SMOOTH",
"224 890 OFFCURVE",
"184 796 OFFCURVE",
"184 796 CURVE"
);
}
);
width = 755;
}
);
leftKerningGroup = O;
rightKerningGroup = O;
unicode = 00D5;
},
{
glyphname = OE;
lastChange = "2014-11-10 22:19:58 +0100";
layers = (
{
layerId = UUID0;
name = Regular;
paths = (
{
closed = 1;
nodes = (
"535 700 LINE",
"495 700 OFFCURVE",
"435 705 OFFCURVE",
"385 705 CURVE SMOOTH",
"185 705 OFFCURVE",
"60 565 OFFCURVE",
"60 345 CURVE SMOOTH",
"60 115 OFFCURVE",
"170 -5 OFFCURVE",
"365 -5 CURVE SMOOTH",
"425 -5 OFFCURVE",
"490 0 OFFCURVE",
"525 0 CURVE SMOOTH",
"875 0 LINE",
"875 180 LINE",
"810 180 LINE",
"790 80 LINE",
"560 80 LINE",
"560 325 LINE",
"790 325 LINE",
"790 405 LINE",
"560 405 LINE",
"560 620 LINE",
"775 620 LINE",
"800 530 LINE",
"865 530 LINE",
"865 700 LINE"
);
},
{
closed = 1;
nodes = (
"455 80 LINE",
"455 80 OFFCURVE",
"405 75 OFFCURVE",
"370 75 CURVE SMOOTH",
"240 75 OFFCURVE",
"175 170 OFFCURVE",
"175 350 CURVE SMOOTH",
"175 540 OFFCURVE",
"250 625 OFFCURVE",
"380 625 CURVE SMOOTH",
"410 625 OFFCURVE",
"455 620 OFFCURVE",
"455 620 CURVE"
);
}
);
width = 935;
}
);
leftKerningGroup = O;
rightKerningGroup = E;
unicode = 0152;
},
{
glyphname = P;
lastChange = "2014-11-10 22:19:58 +0100";
layers = (
{
layerId = UUID0;
name = Regular;
paths = (
{
closed = 1;
nodes = (
"40 0 LINE",
"315 0 LINE",
"315 60 LINE",
"230 80 LINE",
"230 260 LINE",
"295 260 LINE SMOOTH",
"465 260 OFFCURVE",
"565 340 OFFCURVE",
"565 495 CURVE SMOOTH",
"565 620 OFFCURVE",
"485 700 OFFCURVE",
"335 700 CURVE SMOOTH",
"230 700 LINE",
"40 695 LINE",
"40 640 LINE",
"125 620 LINE",
"125 80 LINE",
"40 60 LINE"
);
},
{
closed = 1;
nodes = (
"230 620 LINE",
"330 620 LINE",
"415 620 OFFCURVE",
"460 560 OFFCURVE",
"460 480 CURVE SMOOTH",
"460 390 OFFCURVE",
"405 340 OFFCURVE",
"295 340 CURVE SMOOTH",
"230 340 LINE"
);
}
);
width = 590;
}
);
leftKerningGroup = H;
rightKerningGroup = P;
unicode = 0050;
},
{
glyphname = Thorn;
lastChange = "2014-11-10 22:19:58 +0100";
layers = (
{
layerId = UUID0;
name = Regular;
paths = (
{
closed = 1;
nodes = (
"230 620 LINE",
"315 640 LINE",
"315 700 LINE",
"40 695 LINE",
"40 640 LINE",
"125 620 LINE",
"125 80 LINE",
"40 60 LINE",
"40 0 LINE",
"315 0 LINE",
"315 60 LINE",
"230 80 LINE",
"230 155 LINE",
"300 155 LINE SMOOTH",
"470 155 OFFCURVE",
"565 235 OFFCURVE",
"565 380 CURVE SMOOTH",
"565 495 OFFCURVE",
"480 565 OFFCURVE",
"335 565 CURVE SMOOTH",
"230 565 LINE"
);
},
{
closed = 1;
nodes = (
"230 485 LINE",
"330 485 LINE",
"415 485 OFFCURVE",
"465 435 OFFCURVE",
"465 365 CURVE SMOOTH",
"465 280 OFFCURVE",
"405 235 OFFCURVE",
"300 235 CURVE SMOOTH",
"230 235 LINE"
);
}
);
width = 595;
}
);
leftKerningGroup = P;
unicode = 00DE;
},
{
glyphname = Q;
lastChange = "2014-11-10 22:19:58 +0100";
layers = (
{
layerId = UUID0;
name = Regular;
paths = (
{
closed = 1;
nodes = (
"785 -65 LINE",
"785 -65 OFFCURVE",
"725 -100 OFFCURVE",
"690 -100 CURVE SMOOTH",
"655 -100 OFFCURVE",
"616 -78 OFFCURVE",
"585 -60 CURVE SMOOTH",
"477 5 LINE",
"618 47 OFFCURVE",
"705 180 OFFCURVE",
"705 360 CURVE SMOOTH",
"705 575 OFFCURVE",
"595 710 OFFCURVE",
"395 710 CURVE SMOOTH",
"195 710 OFFCURVE",
"60 565 OFFCURVE",
"60 345 CURVE SMOOTH",
"60 128 OFFCURVE",
"162 5 OFFCURVE",
"341 -8 CURVE",
"540 -130 LINE SMOOTH",
"580 -154 OFFCURVE",
"630 -185 OFFCURVE",
"670 -185 CURVE SMOOTH",
"725 -185 OFFCURVE",
"825 -125 OFFCURVE",
"825 -125 CURVE"
);
},
{
closed = 1;
nodes = (
"530 625 OFFCURVE",
"595 530 OFFCURVE",
"595 355 CURVE SMOOTH",
"595 170 OFFCURVE",
"520 75 OFFCURVE",
"380 75 CURVE SMOOTH",
"240 75 OFFCURVE",
"170 175 OFFCURVE",
"170 350 CURVE SMOOTH",
"170 535 OFFCURVE",
"250 625 OFFCURVE",
"390 625 CURVE SMOOTH"
);
}
);
width = 740;
}
);
leftKerningGroup = O;
rightKerningGroup = O;
unicode = 0051;
},
{
glyphname = R;
lastChange = "2014-11-10 22:19:58 +0100";
layers = (
{
layerId = UUID0;
name = Regular;
paths = (
{
closed = 1;
nodes = (
"40 0 LINE",
"315 0 LINE",
"315 60 LINE",
"230 80 LINE",
"230 305 LINE",
"275 305 LINE SMOOTH",
"341 305 OFFCURVE",
"363 285 OFFCURVE",
"410 185 CURVE SMOOTH",
"495 0 LINE",
"645 0 LINE",
"645 60 LINE",
"574 76 LINE",
"495 235 LINE SMOOTH",
"469 285 OFFCURVE",
"451 311 OFFCURVE",
"435 325 CURVE",
"521 357 OFFCURVE",
"565 423 OFFCURVE",
"565 520 CURVE SMOOTH",
"565 632 OFFCURVE",
"481 700 OFFCURVE",
"340 700 CURVE SMOOTH",
"230 700 LINE",
"40 695 LINE",
"40 640 LINE",
"125 620 LINE",
"125 80 LINE",
"40 60 LINE"
);
},
{
closed = 1;
nodes = (
"230 620 LINE",
"335 620 LINE",
"408 620 OFFCURVE",
"460 572 OFFCURVE",
"460 505 CURVE SMOOTH",
"460 426 OFFCURVE",
"403 380 OFFCURVE",
"305 380 CURVE SMOOTH",
"230 380 LINE"
);
}
);
width = 650;
}
);
leftKerningGroup = R;
rightKerningGroup = R;
unicode = 0052;
},
{
glyphname = S;
lastChange = "2014-11-10 22:19:58 +0100";
layers = (
{
layerId = UUID0;
name = Regular;
paths = (
{
closed = 1;
nodes = (
"150 205 LINE",
"70 205 LINE",
"70 30 LINE",
"70 30 OFFCURVE",
"171 -10 OFFCURVE",
"276 -10 CURVE SMOOTH",
"416 -10 OFFCURVE",
"537 59 OFFCURVE",
"537 209 CURVE SMOOTH",
"537 434 OFFCURVE",
"177 376 OFFCURVE",
"177 528 CURVE SMOOTH",
"177 578 OFFCURVE",
"220 625 OFFCURVE",
"310 625 CURVE SMOOTH",
"365 625 OFFCURVE",
"416 607 OFFCURVE",
"416 607 CURVE",
"450 500 LINE",
"515 500 LINE",
"520 670 LINE",
"520 670 OFFCURVE",
"404 710 OFFCURVE",
"309 710 CURVE SMOOTH",
"184 710 OFFCURVE",
"72 651 OFFCURVE",
"72 511 CURVE SMOOTH",
"72 272 OFFCURVE",
"433 336 OFFCURVE",
"433 182 CURVE SMOOTH",
"433 111 OFFCURVE",
"353 75 OFFCURVE",
"280 75 CURVE SMOOTH",
"215 75 OFFCURVE",
"170 100 OFFCURVE",
"170 100 CURVE"
);
}
);
width = 597;
}
);
leftKerningGroup = S;
rightKerningGroup = S;
unicode = 0053;
},
{
glyphname = Scedilla;
lastChange = "2014-11-10 22:19:58 +0100";
layers = (
{
layerId = UUID0;
name = Regular;
paths = (
{
closed = 1;
nodes = (
"150 205 LINE",
"70 205 LINE",
"70 30 LINE",
"70 30 OFFCURVE",
"160 -5 OFFCURVE",
"259 -9 CURVE",
"259 -79 LINE",
"310 -79 OFFCURVE",
"341 -97 OFFCURVE",
"341 -128 CURVE SMOOTH",
"341 -154 OFFCURVE",
"319 -171 OFFCURVE",
"286 -171 CURVE SMOOTH",
"250 -171 OFFCURVE",
"209 -150 OFFCURVE",
"209 -150 CURVE",
"185 -191 LINE",
"185 -191 OFFCURVE",
"232 -219 OFFCURVE",
"297 -219 CURVE SMOOTH",
"362 -219 OFFCURVE",
"406 -183 OFFCURVE",
"406 -130 CURVE SMOOTH",
"406 -84 OFFCURVE",
"373 -52 OFFCURVE",
"319 -43 CURVE",
"319 -8 LINE",
"440 5 OFFCURVE",
"537 74 OFFCURVE",
"537 209 CURVE SMOOTH",
"537 434 OFFCURVE",
"177 376 OFFCURVE",
"177 528 CURVE SMOOTH",
"177 578 OFFCURVE",
"220 625 OFFCURVE",
"310 625 CURVE SMOOTH",
"365 625 OFFCURVE",
"416 607 OFFCURVE",
"416 607 CURVE",
"450 500 LINE",
"515 500 LINE",
"520 670 LINE",
"520 670 OFFCURVE",
"404 710 OFFCURVE",
"309 710 CURVE SMOOTH",
"184 710 OFFCURVE",
"72 651 OFFCURVE",
"72 511 CURVE SMOOTH",
"72 272 OFFCURVE",
"433 336 OFFCURVE",
"433 182 CURVE SMOOTH",
"433 111 OFFCURVE",
"353 75 OFFCURVE",
"280 75 CURVE SMOOTH",
"215 75 OFFCURVE",
"170 100 OFFCURVE",
"170 100 CURVE"
);
}
);
width = 597;
}
);
leftKerningGroup = S;
rightKerningGroup = S;
unicode = 015E;
},
{
glyphname = Scircumflex;
lastChange = "2014-11-10 22:19:58 +0100";
layers = (
{
layerId = UUID0;
name = Regular;
paths = (
{
closed = 1;
nodes = (
"150 205 LINE",
"70 205 LINE",
"70 30 LINE",
"70 30 OFFCURVE",
"171 -10 OFFCURVE",
"276 -10 CURVE SMOOTH",
"416 -10 OFFCURVE",
"537 59 OFFCURVE",
"537 209 CURVE SMOOTH",
"537 434 OFFCURVE",
"177 376 OFFCURVE",
"177 528 CURVE SMOOTH",
"177 578 OFFCURVE",
"220 625 OFFCURVE",
"310 625 CURVE SMOOTH",
"365 625 OFFCURVE",
"416 607 OFFCURVE",
"416 607 CURVE",
"450 500 LINE",
"515 500 LINE",
"520 670 LINE",
"520 670 OFFCURVE",
"404 710 OFFCURVE",
"309 710 CURVE SMOOTH",
"184 710 OFFCURVE",
"72 651 OFFCURVE",
"72 511 CURVE SMOOTH",
"72 272 OFFCURVE",
"433 336 OFFCURVE",
"433 182 CURVE SMOOTH",
"433 111 OFFCURVE",
"353 75 OFFCURVE",
"280 75 CURVE SMOOTH",
"215 75 OFFCURVE",
"170 100 OFFCURVE",
"170 100 CURVE"
);
},
{
closed = 1;
nodes = (
"437 750 LINE",
"477 795 LINE",
"332 920 LINE",
"272 915 LINE",
"127 795 LINE",
"167 750 LINE",
"304 843 LINE"
);
}
);
width = 597;
}
);
leftKerningGroup = S;
rightKerningGroup = S;
unicode = 015C;
},
{
glyphname = T;
lastChange = "2014-11-10 22:19:58 +0100";
layers = (
{
layerId = UUID0;
name = Regular;
paths = (
{
closed = 1;
nodes = (
"435 60 LINE",
"335 80 LINE",
"335 620 LINE",
"465 620 LINE",
"490 520 LINE",
"555 520 LINE",
"555 700 LINE",
"10 700 LINE",
"10 520 LINE",
"75 520 LINE",
"100 620 LINE",
"230 620 LINE",
"230 80 LINE",
"130 60 LINE",
"130 0 LINE",
"435 0 LINE"
);
}
);
width = 565;
}
);
leftKerningGroup = T;
rightKerningGroup = T;
unicode = 0054;
},
{
glyphname = Tbar;
lastChange = "2014-11-10 22:19:58 +0100";
layers = (
{
layerId = UUID0;
name = Regular;
paths = (
{
closed = 1;
nodes = (
"83 315 LINE",
"230 315 LINE",
"230 80 LINE",
"130 60 LINE",
"130 0 LINE",
"435 0 LINE",
"435 60 LINE",
"335 80 LINE",
"335 315 LINE",
"483 315 LINE",
"483 395 LINE",
"335 395 LINE",
"335 620 LINE",
"465 620 LINE",
"490 520 LINE",
"555 520 LINE",
"555 700 LINE",
"10 700 LINE",
"10 520 LINE",
"75 520 LINE",
"100 620 LINE",
"230 620 LINE",
"230 395 LINE",
"83 395 LINE"
);
}
);
width = 565;
}
);
leftKerningGroup = T;
rightKerningGroup = T;
unicode = 0166;
},
{
glyphname = Tcedilla;
lastChange = "2014-11-10 22:19:58 +0100";
layers = (
{
components = (
{
name = T;
transform = "{1, 0, 0, 1, 0, 0}";
}
);
layerId = UUID0;
name = Regular;
paths = (
{
closed = 1;
nodes = (
"243 0 LINE",
"243 -79 LINE",
"294 -79 OFFCURVE",
"325 -97 OFFCURVE",
"325 -128 CURVE SMOOTH",
"325 -154 OFFCURVE",
"303 -171 OFFCURVE",
"270 -171 CURVE SMOOTH",
"234 -171 OFFCURVE",
"193 -150 OFFCURVE",
"193 -150 CURVE",
"169 -191 LINE",
"169 -191 OFFCURVE",
"216 -219 OFFCURVE",
"281 -219 CURVE SMOOTH",
"346 -219 OFFCURVE",
"390 -183 OFFCURVE",
"390 -130 CURVE SMOOTH",
"390 -84 OFFCURVE",
"357 -52 OFFCURVE",
"303 -43 CURVE",
"303 0 LINE"
);
}
);
width = 565;
}
);
leftKerningGroup = T;
rightKerningGroup = T;
unicode = 0162;
},
{
glyphname = U;
lastChange = "2014-11-10 22:19:58 +0100";
layers = (
{
layerId = UUID0;
name = Regular;
paths = (
{
closed = 1;
nodes = (
"665 620 LINE",
"750 640 LINE",
"750 700 LINE",
"465 695 LINE",
"465 640 LINE",
"560 620 LINE",
"560 285 LINE SMOOTH",
"560 130 OFFCURVE",
"520 75 OFFCURVE",
"395 75 CURVE SMOOTH",
"280 75 OFFCURVE",
"230 120 OFFCURVE",
"230 270 CURVE SMOOTH",
"230 620 LINE",
"325 640 LINE",
"325 700 LINE",
"40 695 LINE",
"40 640 LINE",
"125 620 LINE",
"125 270 LINE SMOOTH",
"125 85 OFFCURVE",
"195 -10 OFFCURVE",
"390 -10 CURVE SMOOTH",
"600 -10 OFFCURVE",
"665 100 OFFCURVE",
"665 285 CURVE SMOOTH"
);
}
);
width = 790;
}
);
leftKerningGroup = U;
rightKerningGroup = U;
unicode = 0055;
},
{
glyphname = Ucircumflex;
lastChange = "2014-11-10 22:19:58 +0100";
layers = (
{
layerId = UUID0;
name = Regular;
paths = (
{
closed = 1;
nodes = (
"665 620 LINE",
"750 640 LINE",
"750 700 LINE",
"465 695 LINE",
"465 640 LINE",
"560 620 LINE",
"560 285 LINE SMOOTH",
"560 130 OFFCURVE",
"520 75 OFFCURVE",
"395 75 CURVE SMOOTH",
"280 75 OFFCURVE",
"230 120 OFFCURVE",
"230 270 CURVE SMOOTH",
"230 620 LINE",
"325 640 LINE",
"325 700 LINE",
"40 695 LINE",
"40 640 LINE",
"125 620 LINE",
"125 270 LINE SMOOTH",
"125 85 OFFCURVE",
"195 -10 OFFCURVE",
"390 -10 CURVE SMOOTH",
"600 -10 OFFCURVE",
"665 100 OFFCURVE",
"665 285 CURVE SMOOTH"
);
},
{
closed = 1;
nodes = (
"530 750 LINE",
"570 795 LINE",
"425 920 LINE",
"365 915 LINE",
"220 795 LINE",
"260 750 LINE",
"397 843 LINE"
);
}
);
width = 790;
}
);
leftKerningGroup = U;
rightKerningGroup = U;
unicode = 00DB;
},
{
glyphname = Udieresis;
lastChange = "2014-11-10 22:19:58 +0100";
layers = (
{
layerId = UUID0;
name = Regular;
paths = (
{
closed = 1;
nodes = (
"325 700 LINE",
"40 695 LINE",
"40 640 LINE",
"125 620 LINE",
"125 270 LINE SMOOTH",
"125 85 OFFCURVE",
"195 -10 OFFCURVE",
"390 -10 CURVE SMOOTH",
"600 -10 OFFCURVE",
"665 100 OFFCURVE",
"665 285 CURVE SMOOTH",
"665 620 LINE",
"750 640 LINE",
"750 700 LINE",
"465 695 LINE",
"465 640 LINE",
"560 620 LINE",
"560 285 LINE SMOOTH",
"560 130 OFFCURVE",
"520 75 OFFCURVE",
"395 75 CURVE SMOOTH",
"280 75 OFFCURVE",
"230 120 OFFCURVE",
"230 270 CURVE SMOOTH",
"230 620 LINE",
"325 640 LINE"
);
},
{
closed = 1;
nodes = (
"235 787 OFFCURVE",
"256 765 OFFCURVE",
"290 765 CURVE SMOOTH",
"320 765 OFFCURVE",
"345 787 OFFCURVE",
"345 825 CURVE SMOOTH",
"345 863 OFFCURVE",
"324 885 OFFCURVE",
"290 885 CURVE SMOOTH",
"260 885 OFFCURVE",
"235 863 OFFCURVE",
"235 825 CURVE SMOOTH"
);
},
{
closed = 1;
nodes = (
"440 787 OFFCURVE",
"461 765 OFFCURVE",
"495 765 CURVE SMOOTH",
"525 765 OFFCURVE",
"550 787 OFFCURVE",
"550 825 CURVE SMOOTH",
"550 863 OFFCURVE",
"529 885 OFFCURVE",
"495 885 CURVE SMOOTH",
"465 885 OFFCURVE",
"440 863 OFFCURVE",
"440 825 CURVE SMOOTH"
);
}
);
width = 791;
}
);
leftKerningGroup = U;
rightKerningGroup = U;
unicode = 00DC;
},
{
glyphname = Uhungarumlaut;
lastChange = "2014-11-10 22:19:58 +0100";
layers = (
{
layerId = UUID0;
name = Regular;
paths = (
{
closed = 1;
nodes = (
"417 883 LINE",
"351 941 LINE",
"221 775 LINE",
"275 733 LINE"
);
},
{
closed = 1;
nodes = (
"612 883 LINE",
"546 941 LINE",
"416 775 LINE",
"470 733 LINE"
);
},
{
closed = 1;
nodes = (
"665 620 LINE",
"750 640 LINE",
"750 700 LINE",
"465 695 LINE",
"465 640 LINE",
"560 620 LINE",
"560 285 LINE SMOOTH",
"560 130 OFFCURVE",
"520 75 OFFCURVE",
"395 75 CURVE SMOOTH",
"280 75 OFFCURVE",
"230 120 OFFCURVE",
"230 270 CURVE SMOOTH",
"230 620 LINE",
"325 640 LINE",
"325 700 LINE",
"40 695 LINE",
"40 640 LINE",
"125 620 LINE",
"125 270 LINE SMOOTH",
"125 85 OFFCURVE",
"195 -10 OFFCURVE",
"390 -10 CURVE SMOOTH",
"600 -10 OFFCURVE",
"665 100 OFFCURVE",
"665 285 CURVE SMOOTH"
);
}
);
width = 790;
}
);
leftKerningGroup = U;
rightKerningGroup = U;
unicode = 0170;
},
{
glyphname = Umacron;
lastChange = "2014-11-10 22:19:58 +0100";
layers = (
{
layerId = UUID0;
name = Regular;
paths = (
{
closed = 1;
nodes = (
"665 620 LINE",
"750 640 LINE",
"750 700 LINE",
"465 695 LINE",
"465 640 LINE",
"560 620 LINE",
"560 285 LINE SMOOTH",
"560 130 OFFCURVE",
"520 75 OFFCURVE",
"395 75 CURVE SMOOTH",
"280 75 OFFCURVE",
"230 120 OFFCURVE",
"230 270 CURVE SMOOTH",
"230 620 LINE",
"325 640 LINE",
"325 700 LINE",
"40 695 LINE",
"40 640 LINE",
"125 620 LINE",
"125 270 LINE SMOOTH",
"125 85 OFFCURVE",
"195 -10 OFFCURVE",
"390 -10 CURVE SMOOTH",
"600 -10 OFFCURVE",
"665 100 OFFCURVE",
"665 285 CURVE SMOOTH"
);
},
{
closed = 1;
nodes = (
"265 790 LINE",
"535 790 LINE",
"535 865 LINE",
"265 865 LINE"
);
}
);
width = 790;
}
);
leftKerningGroup = U;
rightKerningGroup = U;
unicode = 016A;
},
{
glyphname = Uogonek;
lastChange = "2014-11-10 22:19:58 +0100";
layers = (
{
layerId = UUID0;
name = Regular;
paths = (
{
closed = 1;
nodes = (
"665 620 LINE",
"750 640 LINE",
"750 700 LINE",
"465 695 LINE",
"465 640 LINE",
"560 620 LINE",
"560 285 LINE SMOOTH",
"560 130 OFFCURVE",
"520 75 OFFCURVE",
"395 75 CURVE SMOOTH",
"280 75 OFFCURVE",
"230 120 OFFCURVE",
"230 270 CURVE SMOOTH",
"230 620 LINE",
"325 640 LINE",
"325 700 LINE",
"40 695 LINE",
"40 640 LINE",
"125 620 LINE",
"125 270 LINE SMOOTH",
"125 85 OFFCURVE",
"192 -10 OFFCURVE",
"393 -10 CURVE",
"365 -27 OFFCURVE",
"315 -67 OFFCURVE",
"315 -125 CURVE SMOOTH",
"315 -185 OFFCURVE",
"360 -220 OFFCURVE",
"415 -220 CURVE SMOOTH",
"455 -220 OFFCURVE",
"495 -200 OFFCURVE",
"495 -200 CURVE",
"485 -153 LINE",
"485 -153 OFFCURVE",
"460 -160 OFFCURVE",
"440 -160 CURVE SMOOTH",
"415 -160 OFFCURVE",
"395 -145 OFFCURVE",
"395 -115 CURVE SMOOTH",
"395 -54 OFFCURVE",
"499 0 OFFCURVE",
"527 12 CURVE SMOOTH",
"630 55 OFFCURVE",
"665 148 OFFCURVE",
"665 285 CURVE SMOOTH"
);
}
);
width = 790;
}
);
leftKerningGroup = U;
rightKerningGroup = U;
unicode = 0172;
},
{
glyphname = Utilde;
lastChange = "2014-11-10 22:19:58 +0100";
layers = (
{
layerId = UUID0;
name = Regular;
paths = (
{
closed = 1;
nodes = (
"244 766 LINE",
"244 766 OFFCURVE",
"274 810 OFFCURVE",
"314 810 CURVE SMOOTH",
"374 810 OFFCURVE",
"419 766 OFFCURVE",
"489 766 CURVE SMOOTH",
"559 766 OFFCURVE",
"594 856 OFFCURVE",
"594 856 CURVE",
"559 886 LINE",
"559 886 OFFCURVE",
"534 844 OFFCURVE",
"494 844 CURVE SMOOTH",
"434 844 OFFCURVE",
"389 890 OFFCURVE",
"319 890 CURVE SMOOTH",
"249 890 OFFCURVE",
"209 796 OFFCURVE",
"209 796 CURVE"
);
},
{
closed = 1;
nodes = (
"665 620 LINE",
"750 640 LINE",
"750 700 LINE",
"465 695 LINE",
"465 640 LINE",
"560 620 LINE",
"560 285 LINE SMOOTH",
"560 130 OFFCURVE",
"520 75 OFFCURVE",
"395 75 CURVE SMOOTH",
"280 75 OFFCURVE",
"230 120 OFFCURVE",
"230 270 CURVE SMOOTH",
"230 620 LINE",
"325 640 LINE",
"325 700 LINE",
"40 695 LINE",
"40 640 LINE",
"125 620 LINE",
"125 270 LINE SMOOTH",
"125 85 OFFCURVE",
"195 -10 OFFCURVE",
"390 -10 CURVE SMOOTH",
"600 -10 OFFCURVE",
"665 100 OFFCURVE",
"665 285 CURVE SMOOTH"
);
}
);
width = 790;
}
);
leftKerningGroup = U;
rightKerningGroup = U;
unicode = 0168;
},
{
glyphname = V;
lastChange = "2014-11-10 22:19:58 +0100";
layers = (
{
layerId = UUID0;
name = Regular;
paths = (
{
closed = 1;
nodes = (
"295 0 LINE",
"395 0 LINE",
"617 620 LINE",
"695 640 LINE",
"695 700 LINE",
"425 695 LINE",
"425 640 LINE",
"518 620 LINE",
"351 135 LINE",
"194 621 LINE",
"285 640 LINE",
"285 700 LINE",
"5 695 LINE",
"5 640 LINE",
"82 620 LINE"
);
}
);
width = 700;
}
);
leftKerningGroup = V;
rightKerningGroup = V;
unicode = 0056;
},
{
glyphname = W;
lastChange = "2014-11-10 22:19:58 +0100";
layers = (
{
layerId = UUID0;
name = Regular;
paths = (
{
closed = 1;
nodes = (
"250 0 LINE",
"350 0 LINE",
"485 455 LINE",
"516 568 LINE",
"545 460 LINE",
"665 0 LINE",
"775 0 LINE",
"951 620 LINE",
"1030 640 LINE",
"1030 700 LINE",
"760 695 LINE",
"760 640 LINE",
"851 620 LINE",
"727 156 LINE",
"565 700 LINE",
"470 695 LINE",
"305 167 LINE",
"198 620 LINE",
"285 640 LINE",
"285 700 LINE",
"5 695 LINE",
"5 640 LINE",
"83 620 LINE"
);
}
);
width = 1035;
}
);
leftKerningGroup = V;
rightKerningGroup = V;
unicode = 0057;
},
{
glyphname = Wcircumflex;
lastChange = "2014-11-10 22:19:58 +0100";
layers = (
{
layerId = UUID0;
name = Regular;
paths = (
{
closed = 1;
nodes = (
"250 0 LINE",
"350 0 LINE",
"485 455 LINE",
"516 568 LINE",
"545 460 LINE",
"665 0 LINE",
"775 0 LINE",
"951 620 LINE",
"1030 640 LINE",
"1030 700 LINE",
"760 695 LINE",
"760 640 LINE",
"851 620 LINE",
"727 156 LINE",
"565 700 LINE",
"470 695 LINE",
"305 167 LINE",
"198 620 LINE",
"285 640 LINE",
"285 700 LINE",
"5 695 LINE",
"5 640 LINE",
"83 620 LINE"
);
},
{
closed = 1;
nodes = (
"655 750 LINE",
"695 795 LINE",
"550 920 LINE",
"490 915 LINE",
"345 795 LINE",
"385 750 LINE",
"522 843 LINE"
);
}
);
width = 1035;
}
);
leftKerningGroup = V;
rightKerningGroup = V;
unicode = 0174;
},
{
glyphname = Wdieresis;
lastChange = "2014-11-10 22:19:58 +0100";
layers = (
{
layerId = UUID0;
name = Regular;
paths = (
{
closed = 1;
nodes = (
"250 0 LINE",
"350 0 LINE",
"485 455 LINE",
"516 568 LINE",
"545 460 LINE",
"665 0 LINE",
"775 0 LINE",
"951 620 LINE",
"1030 640 LINE",
"1030 700 LINE",
"760 695 LINE",
"760 640 LINE",
"851 620 LINE",
"727 156 LINE",
"565 700 LINE",
"470 695 LINE",
"305 167 LINE",
"198 620 LINE",
"285 640 LINE",
"285 700 LINE",
"5 695 LINE",
"5 640 LINE",
"83 620 LINE"
);
},
{
closed = 1;
nodes = (
"360 787 OFFCURVE",
"381 765 OFFCURVE",
"415 765 CURVE SMOOTH",
"445 765 OFFCURVE",
"470 787 OFFCURVE",
"470 825 CURVE SMOOTH",
"470 863 OFFCURVE",
"449 885 OFFCURVE",
"415 885 CURVE SMOOTH",
"385 885 OFFCURVE",
"360 863 OFFCURVE",
"360 825 CURVE SMOOTH"
);
},
{
closed = 1;
nodes = (
"565 787 OFFCURVE",
"586 765 OFFCURVE",
"620 765 CURVE SMOOTH",
"650 765 OFFCURVE",
"675 787 OFFCURVE",
"675 825 CURVE SMOOTH",
"675 863 OFFCURVE",
"654 885 OFFCURVE",
"620 885 CURVE SMOOTH",
"590 885 OFFCURVE",
"565 863 OFFCURVE",
"565 825 CURVE SMOOTH"
);
}
);
width = 1035;
}
);
leftKerningGroup = V;
rightKerningGroup = V;
unicode = 1E84;
},
{
glyphname = X;
lastChange = "2014-11-10 22:19:58 +0100";
layers = (
{
layerId = UUID0;
name = Regular;
paths = (
{
closed = 1;
nodes = (
"10 0 LINE",
"275 0 LINE",
"275 60 LINE",
"190 80 LINE",
"340 280 LINE",
"480 75 LINE",
"420 60 LINE",
"420 0 LINE",
"690 0 LINE",
"690 60 LINE",
"605 80 LINE",
"410 360 LINE",
"590 620 LINE",
"680 640 LINE",
"680 700 LINE",
"415 695 LINE",
"415 640 LINE",
"485 620 LINE",
"355 430 LINE",
"225 620 LINE",
"290 640 LINE",
"290 700 LINE",
"25 695 LINE",
"25 640 LINE",
"100 620 LINE",
"285 355 LINE",
"75 75 LINE",
"10 60 LINE"
);
}
);
width = 700;
}
);
leftKerningGroup = X;
rightKerningGroup = X;
unicode = 0058;
},
{
glyphname = Y;
lastChange = "2014-11-10 22:19:58 +0100";
layers = (
{
layerId = UUID0;
name = Regular;
paths = (
{
closed = 1;
nodes = (
"185 0 LINE",
"460 0 LINE",
"460 60 LINE",
"375 80 LINE",
"375 261 LINE",
"573 622 LINE",
"635 640 LINE",
"635 700 LINE",
"395 695 LINE",
"395 640 LINE",
"472 620 LINE",
"325 340 LINE",
"192 620 LINE",
"260 640 LINE",
"260 700 LINE",
"10 695 LINE",
"10 640 LINE",
"77 621 LINE SMOOTH",
"270 259 LINE",
"270 80 LINE",
"185 60 LINE"
);
}
);
width = 645;
}
);
leftKerningGroup = Y;
rightKerningGroup = Y;
unicode = 0059;
},
{
glyphname = Ycircumflex;
lastChange = "2014-11-10 22:19:58 +0100";
layers = (
{
layerId = UUID0;
name = Regular;
paths = (
{
closed = 1;
nodes = (
"185 0 LINE",
"460 0 LINE",
"460 60 LINE",
"375 80 LINE",
"375 261 LINE",
"573 622 LINE",
"635 640 LINE",
"635 700 LINE",
"395 695 LINE",
"395 640 LINE",
"472 620 LINE",
"325 340 LINE",
"192 620 LINE",
"260 640 LINE",
"260 700 LINE",
"10 695 LINE",
"10 640 LINE",
"77 621 LINE",
"270 259 LINE",
"270 80 LINE",
"185 60 LINE"
);
},
{
closed = 1;
nodes = (
"466 750 LINE",
"506 795 LINE",
"361 920 LINE",
"301 915 LINE",
"156 795 LINE",
"196 750 LINE",
"333 843 LINE"
);
}
);
width = 645;
}
);
leftKerningGroup = Y;
rightKerningGroup = Y;
unicode = 0176;
},
{
glyphname = Ydieresis;
lastChange = "2014-11-10 22:19:58 +0100";
layers = (
{
layerId = UUID0;
name = Regular;
paths = (
{
closed = 1;
nodes = (
"185 0 LINE",
"460 0 LINE",
"460 60 LINE",
"375 80 LINE",
"375 261 LINE",
"573 622 LINE",
"635 640 LINE",
"635 700 LINE",
"395 695 LINE",
"395 640 LINE",
"472 620 LINE",
"325 340 LINE",
"192 620 LINE",
"260 640 LINE",
"260 700 LINE",
"10 695 LINE",
"10 640 LINE",
"77 621 LINE",
"270 259 LINE",
"270 80 LINE",
"185 60 LINE"
);
},
{
closed = 1;
nodes = (
"160 787 OFFCURVE",
"181 765 OFFCURVE",
"215 765 CURVE SMOOTH",
"245 765 OFFCURVE",
"270 787 OFFCURVE",
"270 825 CURVE SMOOTH",
"270 863 OFFCURVE",
"249 885 OFFCURVE",
"215 885 CURVE SMOOTH",
"185 885 OFFCURVE",
"160 863 OFFCURVE",
"160 825 CURVE SMOOTH"
);
},
{
closed = 1;
nodes = (
"365 787 OFFCURVE",
"386 765 OFFCURVE",
"420 765 CURVE SMOOTH",
"450 765 OFFCURVE",
"475 787 OFFCURVE",
"475 825 CURVE SMOOTH",
"475 863 OFFCURVE",
"454 885 OFFCURVE",
"420 885 CURVE SMOOTH",
"390 885 OFFCURVE",
"365 863 OFFCURVE",
"365 825 CURVE SMOOTH"
);
}
);
width = 645;
}
);
leftKerningGroup = Y;
rightKerningGroup = Y;
unicode = 0178;
},
{
glyphname = Z;
lastChange = "2014-11-10 22:19:58 +0100";
layers = (
{
layerId = UUID0;
name = Regular;
paths = (
{
closed = 1;
nodes = (
"70 700 LINE",
"70 520 LINE",
"135 520 LINE",
"160 620 LINE",
"440 620 LINE",
"40 70 LINE",
"40 0 LINE",
"570 0 LINE",
"570 180 LINE",
"505 180 LINE",
"485 80 LINE",
"175 80 LINE",
"575 630 LINE",
"575 700 LINE"
);
}
);
width = 615;
}
);
leftKerningGroup = Z;
rightKerningGroup = Z;
unicode = 005A;
},
{
glyphname = Zdotaccent;
lastChange = "2014-11-10 22:19:58 +0100";
layers = (
{
layerId = UUID0;
name = Regular;
paths = (
{
closed = 1;
nodes = (
"70 700 LINE",
"70 520 LINE",
"135 520 LINE",
"160 620 LINE",
"440 620 LINE",
"40 70 LINE",
"40 0 LINE",
"570 0 LINE",
"570 180 LINE",
"505 180 LINE",
"485 80 LINE",
"175 80 LINE",
"575 630 LINE",
"575 700 LINE"
);
},
{
closed = 1;
nodes = (
"250 787 OFFCURVE",
"271 765 OFFCURVE",
"305 765 CURVE SMOOTH",
"335 765 OFFCURVE",
"360 787 OFFCURVE",
"360 825 CURVE SMOOTH",
"360 863 OFFCURVE",
"339 885 OFFCURVE",
"305 885 CURVE SMOOTH",
"275 885 OFFCURVE",
"250 863 OFFCURVE",
"250 825 CURVE SMOOTH"
);
}
);
width = 615;
}
);
leftKerningGroup = Z;
rightKerningGroup = Z;
unicode = 017B;
},
{
glyphname = a;
lastChange = "2014-11-10 22:19:58 +0100";
layers = (
{
layerId = UUID0;
name = Regular;
paths = (
{
closed = 1;
nodes = (
"80 375 LINE",
"145 375 LINE",
"159 450 LINE",
"159 450 OFFCURVE",
"200 465 OFFCURVE",
"260 465 CURVE SMOOTH",
"320 465 OFFCURVE",
"355 435 OFFCURVE",
"355 375 CURVE SMOOTH",
"355 295 LINE",
"275 295 LINE SMOOTH",
"135 295 OFFCURVE",
"45 255 OFFCURVE",
"45 140 CURVE SMOOTH",
"45 45 OFFCURVE",
"100 -10 OFFCURVE",
"195 -10 CURVE SMOOTH",
"265 -10 OFFCURVE",
"325 36 OFFCURVE",
"359 70 CURVE",
"380 0 LINE",
"535 5 LINE",
"535 60 LINE",
"455 80 LINE",
"455 385 LINE SMOOTH",
"455 500 OFFCURVE",
"386 540 OFFCURVE",
"270 540 CURVE SMOOTH",
"185 540 OFFCURVE",
"75 500 OFFCURVE",
"75 500 CURVE"
);
},
{
closed = 1;
nodes = (
"355 230 LINE",
"355 150 LINE",
"355 150 OFFCURVE",
"295 70 OFFCURVE",
"220 70 CURVE SMOOTH",
"175 70 OFFCURVE",
"147 100 OFFCURVE",
"147 145 CURVE SMOOTH",
"147 205 OFFCURVE",
"185 230 OFFCURVE",
"285 230 CURVE SMOOTH"
);
}
);
width = 565;
}
);
leftKerningGroup = a;
rightKerningGroup = a;
unicode = 0061;
},
{
glyphname = acircumflex;
lastChange = "2014-11-10 22:19:58 +0100";
layers = (
{
layerId = UUID0;
name = Regular;
paths = (
{
closed = 1;
nodes = (
"400 600 LINE",
"440 645 LINE",
"290 785 LINE",
"230 780 LINE",
"80 645 LINE",
"120 600 LINE",
"262 708 LINE"
);
},
{
closed = 1;
nodes = (
"535 5 LINE",
"535 60 LINE",
"455 80 LINE",
"455 385 LINE SMOOTH",
"455 500 OFFCURVE",
"386 540 OFFCURVE",
"270 540 CURVE SMOOTH",
"185 540 OFFCURVE",
"75 500 OFFCURVE",
"75 500 CURVE",
"80 375 LINE",
"145 375 LINE",
"159 450 LINE",
"159 450 OFFCURVE",
"200 465 OFFCURVE",
"260 465 CURVE SMOOTH",
"320 465 OFFCURVE",
"355 435 OFFCURVE",
"355 375 CURVE SMOOTH",
"355 295 LINE",
"275 295 LINE SMOOTH",
"135 295 OFFCURVE",
"45 255 OFFCURVE",
"45 140 CURVE SMOOTH",
"45 45 OFFCURVE",
"100 -10 OFFCURVE",
"195 -10 CURVE SMOOTH",
"265 -10 OFFCURVE",
"325 36 OFFCURVE",
"359 70 CURVE",
"380 0 LINE"
);
},
{
closed = 1;
nodes = (
"147 205 OFFCURVE",
"185 230 OFFCURVE",
"285 230 CURVE SMOOTH",
"355 230 LINE",
"355 150 LINE",
"355 150 OFFCURVE",
"295 70 OFFCURVE",
"220 70 CURVE SMOOTH",
"175 70 OFFCURVE",
"147 100 OFFCURVE",
"147 145 CURVE SMOOTH"
);
}
);
width = 565;
}
);
leftKerningGroup = a;
rightKerningGroup = a;
unicode = 00E2;
},
{
glyphname = adieresis;
lastChange = "2014-11-10 22:19:58 +0100";
layers = (
{
layerId = UUID0;
name = Regular;
paths = (
{
closed = 1;
nodes = (
"535 5 LINE",
"535 60 LINE",
"455 80 LINE",
"455 385 LINE SMOOTH",
"455 500 OFFCURVE",
"386 540 OFFCURVE",
"270 540 CURVE SMOOTH",
"185 540 OFFCURVE",
"75 500 OFFCURVE",
"75 500 CURVE",
"80 375 LINE",
"145 375 LINE",
"159 450 LINE",
"159 450 OFFCURVE",
"200 465 OFFCURVE",
"260 465 CURVE SMOOTH",
"320 465 OFFCURVE",
"355 435 OFFCURVE",
"355 375 CURVE SMOOTH",
"355 295 LINE",
"275 295 LINE SMOOTH",
"135 295 OFFCURVE",
"45 255 OFFCURVE",
"45 140 CURVE SMOOTH",
"45 45 OFFCURVE",
"100 -10 OFFCURVE",
"195 -10 CURVE SMOOTH",
"265 -10 OFFCURVE",
"325 36 OFFCURVE",
"359 70 CURVE",
"380 0 LINE"
);
},
{
closed = 1;
nodes = (
"147 205 OFFCURVE",
"185 230 OFFCURVE",
"285 230 CURVE SMOOTH",
"355 230 LINE",
"355 150 LINE",
"355 150 OFFCURVE",
"295 70 OFFCURVE",
"220 70 CURVE SMOOTH",
"175 70 OFFCURVE",
"147 100 OFFCURVE",
"147 145 CURVE SMOOTH"
);
},
{
closed = 1;
nodes = (
"105 662 OFFCURVE",
"126 640 OFFCURVE",
"160 640 CURVE SMOOTH",
"190 640 OFFCURVE",
"215 662 OFFCURVE",
"215 700 CURVE SMOOTH",
"215 738 OFFCURVE",
"194 760 OFFCURVE",
"160 760 CURVE SMOOTH",
"130 760 OFFCURVE",
"105 738 OFFCURVE",
"105 700 CURVE SMOOTH"
);
},
{
closed = 1;
nodes = (
"310 662 OFFCURVE",
"331 640 OFFCURVE",
"365 640 CURVE SMOOTH",
"395 640 OFFCURVE",
"420 662 OFFCURVE",
"420 700 CURVE SMOOTH",
"420 738 OFFCURVE",
"399 760 OFFCURVE",
"365 760 CURVE SMOOTH",
"335 760 OFFCURVE",
"310 738 OFFCURVE",
"310 700 CURVE SMOOTH"
);
}
);
width = 565;
}
);
leftKerningGroup = a;
rightKerningGroup = a;
unicode = 00E4;
},
{
glyphname = amacron;
lastChange = "2014-11-10 22:19:58 +0100";
layers = (
{
layerId = UUID0;
name = Regular;
paths = (
{
closed = 1;
nodes = (
"80 375 LINE",
"145 375 LINE",
"159 450 LINE",
"159 450 OFFCURVE",
"200 465 OFFCURVE",
"260 465 CURVE SMOOTH",
"320 465 OFFCURVE",
"355 435 OFFCURVE",
"355 375 CURVE SMOOTH",
"355 295 LINE",
"275 295 LINE SMOOTH",
"135 295 OFFCURVE",
"45 255 OFFCURVE",
"45 140 CURVE SMOOTH",
"45 45 OFFCURVE",
"100 -10 OFFCURVE",
"195 -10 CURVE SMOOTH",
"265 -10 OFFCURVE",
"325 36 OFFCURVE",
"359 70 CURVE",
"380 0 LINE",
"535 5 LINE",
"535 60 LINE",
"455 80 LINE",
"455 385 LINE SMOOTH",
"455 500 OFFCURVE",
"386 540 OFFCURVE",
"270 540 CURVE SMOOTH",
"185 540 OFFCURVE",
"75 500 OFFCURVE",
"75 500 CURVE"
);
},
{
closed = 1;
nodes = (
"355 230 LINE",
"355 150 LINE",
"355 150 OFFCURVE",
"295 70 OFFCURVE",
"220 70 CURVE SMOOTH",
"175 70 OFFCURVE",
"147 100 OFFCURVE",
"147 145 CURVE SMOOTH",
"147 205 OFFCURVE",
"185 230 OFFCURVE",
"285 230 CURVE SMOOTH"
);
},
{
closed = 1;
nodes = (
"138 660 LINE",
"408 660 LINE",
"408 735 LINE",
"138 735 LINE"
);
}
);
width = 565;
}
);
leftKerningGroup = a;
rightKerningGroup = a;
unicode = 0101;
},
{
glyphname = aogonek;
lastChange = "2014-11-10 22:19:58 +0100";
layers = (
{
layerId = UUID0;
name = Regular;
paths = (
{
closed = 1;
nodes = (
"535 60 LINE",
"455 80 LINE",
"455 385 LINE SMOOTH",
"455 500 OFFCURVE",
"386 540 OFFCURVE",
"270 540 CURVE SMOOTH",
"185 540 OFFCURVE",
"75 500 OFFCURVE",
"75 500 CURVE",
"80 375 LINE",
"145 375 LINE",
"159 450 LINE",
"159 450 OFFCURVE",
"200 465 OFFCURVE",
"260 465 CURVE SMOOTH",
"320 465 OFFCURVE",
"355 435 OFFCURVE",
"355 375 CURVE SMOOTH",
"355 295 LINE",
"275 295 LINE SMOOTH",
"135 295 OFFCURVE",
"45 255 OFFCURVE",
"45 140 CURVE SMOOTH",
"45 45 OFFCURVE",
"100 -10 OFFCURVE",
"195 -10 CURVE SMOOTH",
"265 -10 OFFCURVE",
"325 36 OFFCURVE",
"359 70 CURVE",
"380 0 LINE",
"438 2 LINE",
"415 -8 OFFCURVE",
"335 -51 OFFCURVE",
"335 -125 CURVE SMOOTH",
"335 -185 OFFCURVE",
"380 -220 OFFCURVE",
"435 -220 CURVE SMOOTH",
"475 -220 OFFCURVE",
"515 -200 OFFCURVE",
"515 -200 CURVE",
"505 -153 LINE",
"505 -153 OFFCURVE",
"480 -160 OFFCURVE",
"460 -160 CURVE SMOOTH",
"435 -160 OFFCURVE",
"415 -145 OFFCURVE",
"415 -115 CURVE SMOOTH",
"415 -50 OFFCURVE",
"535 5 OFFCURVE",
"535 5 CURVE"
);
},
{
closed = 1;
nodes = (
"147 205 OFFCURVE",
"185 230 OFFCURVE",
"285 230 CURVE SMOOTH",
"355 230 LINE",
"355 150 LINE",
"355 150 OFFCURVE",
"295 70 OFFCURVE",
"220 70 CURVE SMOOTH",
"175 70 OFFCURVE",
"147 100 OFFCURVE",
"147 145 CURVE SMOOTH"
);
}
);
width = 570;
}
);
leftKerningGroup = a;
rightKerningGroup = a;
unicode = 0105;
},
{
glyphname = aring;
lastChange = "2014-11-10 22:19:58 +0100";
layers = (
{
layerId = UUID0;
name = Regular;
paths = (
{
closed = 1;
nodes = (
"167 634 OFFCURVE",
"225 595 OFFCURVE",
"282 595 CURVE SMOOTH",
"339 595 OFFCURVE",
"397 639 OFFCURVE",
"397 710 CURVE SMOOTH",
"397 781 OFFCURVE",
"339 820 OFFCURVE",
"282 820 CURVE SMOOTH",
"225 820 OFFCURVE",
"167 776 OFFCURVE",
"167 705 CURVE SMOOTH"
);
},
{
closed = 1;
nodes = (
"227 747 OFFCURVE",
"251 770 OFFCURVE",
"282 770 CURVE SMOOTH",
"317 770 OFFCURVE",
"337 748 OFFCURVE",
"337 708 CURVE SMOOTH",
"337 668 OFFCURVE",
"313 645 OFFCURVE",
"282 645 CURVE SMOOTH",
"247 645 OFFCURVE",
"227 667 OFFCURVE",
"227 707 CURVE SMOOTH"
);
},
{
closed = 1;
nodes = (
"535 5 LINE",
"535 60 LINE",
"455 80 LINE",
"455 385 LINE SMOOTH",
"455 500 OFFCURVE",
"386 540 OFFCURVE",
"270 540 CURVE SMOOTH",
"185 540 OFFCURVE",
"75 500 OFFCURVE",
"75 500 CURVE",
"80 375 LINE",
"145 375 LINE",
"159 450 LINE",
"159 450 OFFCURVE",
"200 465 OFFCURVE",
"260 465 CURVE SMOOTH",
"320 465 OFFCURVE",
"355 435 OFFCURVE",
"355 375 CURVE SMOOTH",
"355 295 LINE",
"275 295 LINE SMOOTH",
"135 295 OFFCURVE",
"45 255 OFFCURVE",
"45 140 CURVE SMOOTH",
"45 45 OFFCURVE",
"100 -10 OFFCURVE",
"195 -10 CURVE SMOOTH",
"265 -10 OFFCURVE",
"325 36 OFFCURVE",
"359 70 CURVE",
"380 0 LINE"
);
},
{
closed = 1;
nodes = (
"147 205 OFFCURVE",
"185 230 OFFCURVE",
"285 230 CURVE SMOOTH",
"355 230 LINE",
"355 150 LINE",
"355 150 OFFCURVE",
"295 70 OFFCURVE",
"220 70 CURVE SMOOTH",
"175 70 OFFCURVE",
"147 100 OFFCURVE",
"147 145 CURVE SMOOTH"
);
}
);
width = 565;
}
);
leftKerningGroup = a;
rightKerningGroup = a;
unicode = 00E5;
},
{
glyphname = atilde;
lastChange = "2014-11-10 22:19:58 +0100";
layers = (
{
layerId = UUID0;
name = Regular;
paths = (
{
closed = 1;
nodes = (
"535 5 LINE",
"535 60 LINE",
"455 80 LINE",
"455 385 LINE SMOOTH",
"455 500 OFFCURVE",
"386 540 OFFCURVE",
"270 540 CURVE SMOOTH",
"185 540 OFFCURVE",
"75 500 OFFCURVE",
"75 500 CURVE",
"80 375 LINE",
"145 375 LINE",
"159 450 LINE",
"159 450 OFFCURVE",
"200 465 OFFCURVE",
"260 465 CURVE SMOOTH",
"320 465 OFFCURVE",
"355 435 OFFCURVE",
"355 375 CURVE SMOOTH",
"355 295 LINE",
"275 295 LINE SMOOTH",
"135 295 OFFCURVE",
"45 255 OFFCURVE",
"45 140 CURVE SMOOTH",
"45 45 OFFCURVE",
"100 -10 OFFCURVE",
"195 -10 CURVE SMOOTH",
"265 -10 OFFCURVE",
"325 36 OFFCURVE",
"359 70 CURVE",
"380 0 LINE"
);
},
{
closed = 1;
nodes = (
"147 205 OFFCURVE",
"185 230 OFFCURVE",
"285 230 CURVE SMOOTH",
"355 230 LINE",
"355 150 LINE",
"355 150 OFFCURVE",
"295 70 OFFCURVE",
"220 70 CURVE SMOOTH",
"175 70 OFFCURVE",
"147 100 OFFCURVE",
"147 145 CURVE SMOOTH"
);
},
{
closed = 1;
nodes = (
"108 636 LINE",
"108 636 OFFCURVE",
"135 680 OFFCURVE",
"178 680 CURVE SMOOTH",
"238 680 OFFCURVE",
"275 635 OFFCURVE",
"345 635 CURVE SMOOTH",
"418 635 OFFCURVE",
"453 726 OFFCURVE",
"453 726 CURVE",
"418 761 LINE",
"418 761 OFFCURVE",
"387 719 OFFCURVE",
"350 719 CURVE SMOOTH",
"290 719 OFFCURVE",
"253 764 OFFCURVE",
"183 764 CURVE SMOOTH",
"110 764 OFFCURVE",
"73 671 OFFCURVE",
"73 671 CURVE"
);
}
);
width = 565;
}
);
leftKerningGroup = a;
rightKerningGroup = a;
unicode = 00E3;
},
{
glyphname = ae;
lastChange = "2014-11-10 22:19:58 +0100";
layers = (
{
layerId = UUID0;
name = Regular;
paths = (
{
closed = 1;
nodes = (
"800 455 OFFCURVE",
"735 540 OFFCURVE",
"590 540 CURVE SMOOTH",
"522 540 OFFCURVE",
"466 514 OFFCURVE",
"426 470 CURVE",
"400 520 OFFCURVE",
"346 540 OFFCURVE",
"270 540 CURVE SMOOTH",
"185 540 OFFCURVE",
"75 500 OFFCURVE",
"75 500 CURVE",
"80 375 LINE",
"145 375 LINE",
"159 450 LINE",
"159 450 OFFCURVE",
"200 465 OFFCURVE",
"260 465 CURVE SMOOTH",
"320 465 OFFCURVE",
"355 435 OFFCURVE",
"355 375 CURVE SMOOTH",
"355 295 LINE",
"275 295 LINE SMOOTH",
"135 295 OFFCURVE",
"45 255 OFFCURVE",
"45 140 CURVE SMOOTH",
"45 45 OFFCURVE",
"100 -10 OFFCURVE",
"195 -10 CURVE SMOOTH",
"297 -10 OFFCURVE",
"369 71 OFFCURVE",
"388 96 CURVE",
"424 28 OFFCURVE",
"488 -10 OFFCURVE",
"585 -10 CURVE SMOOTH",
"705 -10 OFFCURVE",
"798 73 OFFCURVE",
"798 73 CURVE",
"763 125 LINE",
"763 125 OFFCURVE",
"695 70 OFFCURVE",
"595 70 CURVE SMOOTH",
"509 70 OFFCURVE",
"450 140 OFFCURVE",
"450 250 CURVE",
"795 252 LINE",
"795 252 OFFCURVE",
"800 280 OFFCURVE",
"800 305 CURVE SMOOTH"
);
},
{
closed = 1;
nodes = (
"355 230 LINE",
"355 155 LINE",
"355 155 OFFCURVE",
"295 70 OFFCURVE",
"220 70 CURVE SMOOTH",
"175 70 OFFCURVE",
"145 100 OFFCURVE",
"145 145 CURVE SMOOTH",
"145 205 OFFCURVE",
"185 230 OFFCURVE",
"285 230 CURVE SMOOTH"
);
},
{
closed = 1;
nodes = (
"454 325 LINE",
"460 400 OFFCURVE",
"505 462 OFFCURVE",
"585 462 CURVE SMOOTH",
"665 462 OFFCURVE",
"694 400 OFFCURVE",
"694 325 CURVE"
);
}
);
width = 835;
}
);
leftKerningGroup = a;
rightKerningGroup = a;
unicode = 00E6;
},
{
glyphname = b;
lastChange = "2014-11-10 22:19:58 +0100";
layers = (
{
layerId = UUID0;
name = Regular;
paths = (
{
closed = 1;
nodes = (
"185 770 LINE",
"5 765 LINE",
"5 710 LINE",
"85 690 LINE",
"85 15 LINE",
"85 15 OFFCURVE",
"160 -10 OFFCURVE",
"270 -10 CURVE SMOOTH",
"450 -10 OFFCURVE",
"545 110 OFFCURVE",
"545 280 CURVE SMOOTH",
"545 435 OFFCURVE",
"480 540 OFFCURVE",
"335 540 CURVE SMOOTH",
"270 540 OFFCURVE",
"218 508 OFFCURVE",
"185 482 CURVE"
);
},
{
closed = 1;
nodes = (
"185 395 LINE",
"185 395 OFFCURVE",
"225 460 OFFCURVE",
"315 460 CURVE SMOOTH",
"405 460 OFFCURVE",
"440 380 OFFCURVE",
"440 270 CURVE SMOOTH",
"440 160 OFFCURVE",
"401 70 OFFCURVE",
"285 70 CURVE SMOOTH",
"211 70 OFFCURVE",
"185 80 OFFCURVE",
"185 80 CURVE"
);
}
);
width = 590;
}
);
leftKerningGroup = l;
rightKerningGroup = b;
unicode = 0062;
},
{
glyphname = c;
lastChange = "2014-11-10 22:19:58 +0100";
layers = (
{
layerId = UUID0;
name = Regular;
paths = (
{
closed = 1;
nodes = (
"465 365 LINE",
"470 500 LINE",
"470 500 OFFCURVE",
"390 540 OFFCURVE",
"300 540 CURVE SMOOTH",
"140 540 OFFCURVE",
"40 425 OFFCURVE",
"40 265 CURVE SMOOTH",
"40 95 OFFCURVE",
"125 -10 OFFCURVE",
"290 -10 CURVE SMOOTH",
"400 -10 OFFCURVE",
"490 70 OFFCURVE",
"490 70 CURVE",
"455 130 LINE",
"455 130 OFFCURVE",
"395 70 OFFCURVE",
"300 70 CURVE SMOOTH",
"205 70 OFFCURVE",
"145 140 OFFCURVE",
"145 275 CURVE SMOOTH",
"145 400 OFFCURVE",
"200 460 OFFCURVE",
"295 460 CURVE SMOOTH",
"345 460 OFFCURVE",
"385 450 OFFCURVE",
"385 450 CURVE",
"400 365 LINE"
);
}
);
width = 510;
}
);
leftKerningGroup = o;
rightKerningGroup = c;
unicode = 0063;
},
{
glyphname = ccedilla;
lastChange = "2014-11-10 22:19:58 +0100";
layers = (
{
layerId = UUID0;
name = Regular;
paths = (
{
closed = 1;
nodes = (
"465 365 LINE",
"470 500 LINE",
"470 500 OFFCURVE",
"390 540 OFFCURVE",
"300 540 CURVE SMOOTH",
"140 540 OFFCURVE",
"40 425 OFFCURVE",
"40 265 CURVE SMOOTH",
"40 105 OFFCURVE",
"114 3 OFFCURVE",
"260 -8 CURVE",
"260 -79 LINE",
"310 -79 OFFCURVE",
"342 -99 OFFCURVE",
"342 -130 CURVE SMOOTH",
"342 -156 OFFCURVE",
"321 -171 OFFCURVE",
"295 -171 CURVE SMOOTH",
"255 -171 OFFCURVE",
"210 -150 OFFCURVE",
"210 -150 CURVE",
"186 -191 LINE",
"186 -191 OFFCURVE",
"235 -219 OFFCURVE",
"300 -219 CURVE SMOOTH",
"360 -219 OFFCURVE",
"407 -185 OFFCURVE",
"407 -133 CURVE SMOOTH",
"407 -86 OFFCURVE",
"373 -54 OFFCURVE",
"320 -44 CURVE",
"320 -8 LINE",
"415 4 OFFCURVE",
"490 70 OFFCURVE",
"490 70 CURVE",
"455 130 LINE",
"455 130 OFFCURVE",
"395 70 OFFCURVE",
"300 70 CURVE SMOOTH",
"205 70 OFFCURVE",
"145 140 OFFCURVE",
"145 275 CURVE SMOOTH",
"145 400 OFFCURVE",
"200 460 OFFCURVE",
"295 460 CURVE SMOOTH",
"345 460 OFFCURVE",
"385 450 OFFCURVE",
"385 450 CURVE",
"400 365 LINE"
);
}
);
width = 510;
}
);
leftKerningGroup = o;
rightKerningGroup = c;
unicode = 00E7;
},
{
glyphname = ccircumflex;
lastChange = "2014-11-10 22:19:58 +0100";
layers = (
{
layerId = UUID0;
name = Regular;
paths = (
{
closed = 1;
nodes = (
"420 600 LINE",
"460 645 LINE",
"310 785 LINE",
"250 780 LINE",
"100 645 LINE",
"140 600 LINE",
"282 708 LINE"
);
},
{
closed = 1;
nodes = (
"465 365 LINE",
"470 500 LINE",
"470 500 OFFCURVE",
"390 540 OFFCURVE",
"300 540 CURVE SMOOTH",
"140 540 OFFCURVE",
"40 425 OFFCURVE",
"40 265 CURVE SMOOTH",
"40 95 OFFCURVE",
"125 -10 OFFCURVE",
"290 -10 CURVE SMOOTH",
"400 -10 OFFCURVE",
"490 70 OFFCURVE",
"490 70 CURVE",
"455 130 LINE",
"455 130 OFFCURVE",
"395 70 OFFCURVE",
"300 70 CURVE SMOOTH",
"205 70 OFFCURVE",
"145 140 OFFCURVE",
"145 275 CURVE SMOOTH",
"145 400 OFFCURVE",
"200 460 OFFCURVE",
"295 460 CURVE SMOOTH",
"345 460 OFFCURVE",
"385 450 OFFCURVE",
"385 450 CURVE",
"400 365 LINE"
);
}
);
width = 510;
}
);
leftKerningGroup = o;
rightKerningGroup = c;
unicode = 0109;
},
{
glyphname = cdotaccent;
lastChange = "2014-11-10 22:19:58 +0100";
layers = (
{
layerId = UUID0;
name = Regular;
paths = (
{
closed = 1;
nodes = (
"465 365 LINE",
"470 500 LINE",
"470 500 OFFCURVE",
"390 540 OFFCURVE",
"300 540 CURVE SMOOTH",
"140 540 OFFCURVE",
"40 425 OFFCURVE",
"40 265 CURVE SMOOTH",
"40 95 OFFCURVE",
"125 -10 OFFCURVE",
"290 -10 CURVE SMOOTH",
"400 -10 OFFCURVE",
"490 70 OFFCURVE",
"490 70 CURVE",
"455 130 LINE",
"455 130 OFFCURVE",
"395 70 OFFCURVE",
"300 70 CURVE SMOOTH",
"205 70 OFFCURVE",
"145 140 OFFCURVE",
"145 275 CURVE SMOOTH",
"145 400 OFFCURVE",
"200 460 OFFCURVE",
"295 460 CURVE SMOOTH",
"345 460 OFFCURVE",
"385 450 OFFCURVE",
"385 450 CURVE",
"400 365 LINE"
);
},
{
closed = 1;
nodes = (
"240 662 OFFCURVE",
"261 640 OFFCURVE",
"295 640 CURVE SMOOTH",
"325 640 OFFCURVE",
"350 662 OFFCURVE",
"350 700 CURVE SMOOTH",
"350 738 OFFCURVE",
"329 760 OFFCURVE",
"295 760 CURVE SMOOTH",
"265 760 OFFCURVE",
"240 738 OFFCURVE",
"240 700 CURVE SMOOTH"
);
}
);
width = 510;
}
);
leftKerningGroup = o;
rightKerningGroup = c;
unicode = 010B;
},
{
glyphname = d;
lastChange = "2014-11-10 22:19:58 +0100";
layers = (
{
layerId = UUID0;
name = Regular;
paths = (
{
closed = 1;
nodes = (
"505 770 LINE",
"320 765 LINE",
"320 710 LINE",
"405 690 LINE",
"405 524 LINE",
"379 533 OFFCURVE",
"347 540 OFFCURVE",
"310 540 CURVE SMOOTH",
"130 540 OFFCURVE",
"45 420 OFFCURVE",
"45 250 CURVE SMOOTH",
"45 95 OFFCURVE",
"110 -10 OFFCURVE",
"255 -10 CURVE SMOOTH",
"331 -10 OFFCURVE",
"383 28 OFFCURVE",
"412 57 CURVE",
"420 0 LINE",
"590 5 LINE",
"590 60 LINE",
"505 80 LINE"
);
},
{
closed = 1;
nodes = (
"405 145 LINE",
"405 145 OFFCURVE",
"360 70 OFFCURVE",
"275 70 CURVE SMOOTH",
"185 70 OFFCURVE",
"150 150 OFFCURVE",
"150 260 CURVE SMOOTH",
"150 370 OFFCURVE",
"184 460 OFFCURVE",
"300 460 CURVE SMOOTH",
"370 460 OFFCURVE",
"405 440 OFFCURVE",
"405 440 CURVE"
);
}
);
width = 615;
}
);
leftKerningGroup = o;
unicode = 0064;
},
{
glyphname = eth;
lastChange = "2014-11-10 22:19:58 +0100";
layers = (
{
layerId = UUID0;
name = Regular;
paths = (
{
closed = 1;
nodes = (
"466 727 LINE",
"425 783 LINE",
"313 722 LINE",
"267 751 OFFCURVE",
"217 771 OFFCURVE",
"165 783 CURVE",
"135 720 LINE",
"171 708 OFFCURVE",
"204 694 OFFCURVE",
"233 678 CURVE",
"125 620 LINE",
"165 565 LINE",
"296 635 LINE",
"349 591 OFFCURVE",
"385 536 OFFCURVE",
"408 473 CURVE",
"377 497 OFFCURVE",
"336 515 OFFCURVE",
"285 515 CURVE SMOOTH",
"135 515 OFFCURVE",
"40 415 OFFCURVE",
"40 245 CURVE SMOOTH",
"40 80 OFFCURVE",
"130 -10 OFFCURVE",
"280 -10 CURVE SMOOTH",
"430 -10 OFFCURVE",
"530 100 OFFCURVE",
"530 265 CURVE SMOOTH",
"530 457 OFFCURVE",
"466 591 OFFCURVE",
"372 676 CURVE"
);
},
{
closed = 1;
nodes = (
"390 435 OFFCURVE",
"425 365 OFFCURVE",
"425 255 CURVE SMOOTH",
"425 135 OFFCURVE",
"385 70 OFFCURVE",
"285 70 CURVE SMOOTH",
"190 70 OFFCURVE",
"145 140 OFFCURVE",
"145 250 CURVE SMOOTH",
"145 370 OFFCURVE",
"190 435 OFFCURVE",
"290 435 CURVE SMOOTH"
);
}
);
width = 575;
}
);
leftKerningGroup = o;
unicode = 00F0;
},
{
glyphname = dcaron;
lastChange = "2014-11-10 22:19:58 +0100";
layers = (
{
components = (
{
name = d;
transform = "{1, 0, 0, 1, 0, 0}";
},
{
name = caron.x;
transform = "{1, 0, 0, 1, 560, 0}";
}
);
layerId = UUID0;
name = Regular;
paths = (
{
closed = 0;
nodes = (
"454 501 LINE"
);
}
);
width = 691;
}
);
leftKerningGroup = o;
unicode = 010F;
},
{
glyphname = dcroat;
lastChange = "2014-11-10 22:19:58 +0100";
layers = (
{
layerId = UUID0;
name = Regular;
paths = (
{
closed = 1;
nodes = (
"505 770 LINE",
"320 765 LINE",
"320 710 LINE",
"405 690 LINE",
"405 650 LINE",
"300 650 LINE",
"300 575 LINE",
"405 575 LINE",
"405 524 LINE",
"379 533 OFFCURVE",
"347 540 OFFCURVE",
"310 540 CURVE SMOOTH",
"130 540 OFFCURVE",
"45 420 OFFCURVE",
"45 250 CURVE SMOOTH",
"45 95 OFFCURVE",
"110 -10 OFFCURVE",
"255 -10 CURVE SMOOTH",
"331 -10 OFFCURVE",
"383 28 OFFCURVE",
"412 57 CURVE",
"420 0 LINE",
"590 5 LINE",
"590 60 LINE",
"505 80 LINE",
"505 575 LINE",
"590 575 LINE",
"590 650 LINE",
"505 650 LINE"
);
},
{
closed = 1;
nodes = (
"405 145 LINE",
"405 145 OFFCURVE",
"360 70 OFFCURVE",
"275 70 CURVE SMOOTH",
"185 70 OFFCURVE",
"150 150 OFFCURVE",
"150 260 CURVE SMOOTH",
"150 370 OFFCURVE",
"184 460 OFFCURVE",
"300 460 CURVE SMOOTH",
"370 460 OFFCURVE",
"405 440 OFFCURVE",
"405 440 CURVE"
);
}
);
width = 620;
}
);
leftKerningGroup = o;
unicode = 0111;
},
{
glyphname = e;
lastChange = "2014-11-10 22:19:58 +0100";
layers = (
{
layerId = UUID0;
name = Regular;
paths = (
{
closed = 1;
nodes = (
"490 252 LINE",
"490 252 OFFCURVE",
"495 280 OFFCURVE",
"495 305 CURVE",
"495 455 OFFCURVE",
"430 540 OFFCURVE",
"285 540 CURVE SMOOTH",
"140 540 OFFCURVE",
"40 420 OFFCURVE",
"40 260 CURVE SMOOTH",
"40 95 OFFCURVE",
"120 -10 OFFCURVE",
"280 -10 CURVE SMOOTH",
"400 -10 OFFCURVE",
"493 73 OFFCURVE",
"493 73 CURVE",
"458 125 LINE",
"458 125 OFFCURVE",
"390 70 OFFCURVE",
"290 70 CURVE SMOOTH",
"204 70 OFFCURVE",
"145 140 OFFCURVE",
"145 250 CURVE"
);
},
{
closed = 1;
nodes = (
"149 325 LINE",
"155 400 OFFCURVE",
"200 462 OFFCURVE",
"280 462 CURVE SMOOTH",
"360 462 OFFCURVE",
"389 400 OFFCURVE",
"389 325 CURVE"
);
}
);
width = 540;
}
);
leftKerningGroup = o;
rightKerningGroup = e;
unicode = 0065;
},
{
glyphname = ebreve;
lastChange = "2014-11-10 22:19:58 +0100";
layers = (
{
components = (
{
name = e;
transform = "{1, 0, 0, 1, 0, 0}";
},
{
name = breve;
transform = "{1, 0, 0, 1, 56, 0}";
}
);
layerId = UUID0;
name = Regular;
paths = (
{
closed = 0;
nodes = (
"249 648 LINE"
);
}
);
width = 530;
}
);
leftKerningGroup = o;
rightKerningGroup = e;
unicode = 0115;
},
{
glyphname = ecircumflex;
lastChange = "2014-11-10 22:19:58 +0100";
layers = (
{
layerId = UUID0;
name = Regular;
paths = (
{
closed = 1;
nodes = (
"411 600 LINE",
"451 645 LINE",
"301 785 LINE",
"241 780 LINE",
"91 645 LINE",
"131 600 LINE",
"273 708 LINE"
);
},
{
closed = 1;
nodes = (
"490 252 LINE",
"490 252 OFFCURVE",
"495 280 OFFCURVE",
"495 305 CURVE",
"495 455 OFFCURVE",
"430 540 OFFCURVE",
"285 540 CURVE SMOOTH",
"140 540 OFFCURVE",
"40 420 OFFCURVE",
"40 260 CURVE SMOOTH",
"40 95 OFFCURVE",
"120 -10 OFFCURVE",
"280 -10 CURVE SMOOTH",
"400 -10 OFFCURVE",
"493 73 OFFCURVE",
"493 73 CURVE",
"458 125 LINE",
"458 125 OFFCURVE",
"390 70 OFFCURVE",
"290 70 CURVE SMOOTH",
"204 70 OFFCURVE",
"145 140 OFFCURVE",
"145 250 CURVE"
);
},
{
closed = 1;
nodes = (
"149 325 LINE",
"155 400 OFFCURVE",
"200 462 OFFCURVE",
"280 462 CURVE SMOOTH",
"360 462 OFFCURVE",
"389 400 OFFCURVE",
"389 325 CURVE"
);
}
);
width = 530;
}
);
leftKerningGroup = o;
rightKerningGroup = e;
unicode = 00EA;
},
{
glyphname = edieresis;
lastChange = "2014-11-10 22:19:58 +0100";
layers = (
{
layerId = UUID0;
name = Regular;
paths = (
{
closed = 1;
nodes = (
"490 252 LINE",
"490 252 OFFCURVE",
"495 280 OFFCURVE",
"495 305 CURVE",
"495 455 OFFCURVE",
"430 540 OFFCURVE",
"285 540 CURVE SMOOTH",
"140 540 OFFCURVE",
"40 420 OFFCURVE",
"40 260 CURVE SMOOTH",
"40 95 OFFCURVE",
"120 -10 OFFCURVE",
"280 -10 CURVE SMOOTH",
"400 -10 OFFCURVE",
"493 73 OFFCURVE",
"493 73 CURVE",
"458 125 LINE",
"458 125 OFFCURVE",
"390 70 OFFCURVE",
"290 70 CURVE SMOOTH",
"204 70 OFFCURVE",
"145 140 OFFCURVE",
"145 250 CURVE"
);
},
{
closed = 1;
nodes = (
"149 325 LINE",
"155 400 OFFCURVE",
"200 462 OFFCURVE",
"280 462 CURVE SMOOTH",
"360 462 OFFCURVE",
"389 400 OFFCURVE",
"389 325 CURVE"
);
},
{
closed = 1;
nodes = (
"115 662 OFFCURVE",
"136 640 OFFCURVE",
"170 640 CURVE SMOOTH",
"200 640 OFFCURVE",
"225 662 OFFCURVE",
"225 700 CURVE SMOOTH",
"225 738 OFFCURVE",
"204 760 OFFCURVE",
"170 760 CURVE SMOOTH",
"140 760 OFFCURVE",
"115 738 OFFCURVE",
"115 700 CURVE SMOOTH"
);
},
{
closed = 1;
nodes = (
"320 662 OFFCURVE",
"341 640 OFFCURVE",
"375 640 CURVE SMOOTH",
"405 640 OFFCURVE",
"430 662 OFFCURVE",
"430 700 CURVE SMOOTH",
"430 738 OFFCURVE",
"409 760 OFFCURVE",
"375 760 CURVE SMOOTH",
"345 760 OFFCURVE",
"320 738 OFFCURVE",
"320 700 CURVE SMOOTH"
);
}
);
width = 530;
}
);
leftKerningGroup = o;
rightKerningGroup = e;
unicode = 00EB;
},
{
glyphname = edotaccent;
lastChange = "2014-11-10 22:19:58 +0100";
layers = (
{
layerId = UUID0;
name = Regular;
paths = (
{
closed = 1;
nodes = (
"490 252 LINE",
"490 252 OFFCURVE",
"495 280 OFFCURVE",
"495 305 CURVE",
"495 455 OFFCURVE",
"430 540 OFFCURVE",
"285 540 CURVE SMOOTH",
"140 540 OFFCURVE",
"40 420 OFFCURVE",
"40 260 CURVE SMOOTH",
"40 95 OFFCURVE",
"120 -10 OFFCURVE",
"280 -10 CURVE SMOOTH",
"400 -10 OFFCURVE",
"493 73 OFFCURVE",
"493 73 CURVE",
"458 125 LINE",
"458 125 OFFCURVE",
"390 70 OFFCURVE",
"290 70 CURVE SMOOTH",
"204 70 OFFCURVE",
"145 140 OFFCURVE",
"145 250 CURVE"
);
},
{
closed = 1;
nodes = (
"149 325 LINE",
"155 400 OFFCURVE",
"200 462 OFFCURVE",
"280 462 CURVE SMOOTH",
"360 462 OFFCURVE",
"389 400 OFFCURVE",
"389 325 CURVE"
);
},
{
closed = 1;
nodes = (
"235 662 OFFCURVE",
"256 640 OFFCURVE",
"290 640 CURVE SMOOTH",
"320 640 OFFCURVE",
"345 662 OFFCURVE",
"345 700 CURVE SMOOTH",
"345 738 OFFCURVE",
"324 760 OFFCURVE",
"290 760 CURVE SMOOTH",
"260 760 OFFCURVE",
"235 738 OFFCURVE",
"235 700 CURVE SMOOTH"
);
}
);
width = 530;
}
);
leftKerningGroup = o;
rightKerningGroup = e;
unicode = 0117;
},
{
glyphname = emacron;
lastChange = "2014-11-10 22:19:58 +0100";
layers = (
{
layerId = UUID0;
name = Regular;
paths = (
{
closed = 1;
nodes = (
"490 252 LINE",
"490 252 OFFCURVE",
"495 280 OFFCURVE",
"495 305 CURVE",
"495 455 OFFCURVE",
"430 540 OFFCURVE",
"285 540 CURVE SMOOTH",
"140 540 OFFCURVE",
"40 420 OFFCURVE",
"40 260 CURVE SMOOTH",
"40 95 OFFCURVE",
"120 -10 OFFCURVE",
"280 -10 CURVE SMOOTH",
"400 -10 OFFCURVE",
"493 73 OFFCURVE",
"493 73 CURVE",
"458 125 LINE",
"458 125 OFFCURVE",
"390 70 OFFCURVE",
"290 70 CURVE SMOOTH",
"204 70 OFFCURVE",
"145 140 OFFCURVE",
"145 250 CURVE"
);
},
{
closed = 1;
nodes = (
"149 325 LINE",
"155 400 OFFCURVE",
"200 462 OFFCURVE",
"280 462 CURVE SMOOTH",
"360 462 OFFCURVE",
"389 400 OFFCURVE",
"389 325 CURVE"
);
},
{
closed = 1;
nodes = (
"151 660 LINE",
"421 660 LINE",
"421 735 LINE",
"151 735 LINE"
);
}
);
width = 530;
}
);
leftKerningGroup = o;
rightKerningGroup = e;
unicode = 0113;
},
{
glyphname = eogonek;
lastChange = "2014-11-10 22:19:58 +0100";
layers = (
{
layerId = UUID0;
name = Regular;
paths = (
{
closed = 1;
nodes = (
"458 125 LINE",
"458 125 OFFCURVE",
"390 70 OFFCURVE",
"290 70 CURVE SMOOTH",
"204 70 OFFCURVE",
"145 140 OFFCURVE",
"145 250 CURVE",
"490 252 LINE",
"490 252 OFFCURVE",
"495 280 OFFCURVE",
"495 305 CURVE SMOOTH",
"495 455 OFFCURVE",
"430 540 OFFCURVE",
"285 540 CURVE SMOOTH",
"140 540 OFFCURVE",
"40 420 OFFCURVE",
"40 260 CURVE SMOOTH",
"40 95 OFFCURVE",
"120 -10 OFFCURVE",
"280 -10 CURVE SMOOTH",
"290 -10 OFFCURVE",
"301 -9 OFFCURVE",
"312 -7 CURVE",
"275 -40 OFFCURVE",
"244 -81 OFFCURVE",
"244 -125 CURVE SMOOTH",
"244 -185 OFFCURVE",
"289 -220 OFFCURVE",
"344 -220 CURVE SMOOTH",
"384 -220 OFFCURVE",
"424 -200 OFFCURVE",
"424 -200 CURVE",
"414 -153 LINE",
"414 -153 OFFCURVE",
"389 -160 OFFCURVE",
"369 -160 CURVE SMOOTH",
"344 -160 OFFCURVE",
"324 -145 OFFCURVE",
"324 -115 CURVE SMOOTH",
"324 -44 OFFCURVE",
"458 50 OFFCURVE",
"493 73 CURVE"
);
},
{
closed = 1;
nodes = (
"149 325 LINE",
"155 400 OFFCURVE",
"200 462 OFFCURVE",
"280 462 CURVE SMOOTH",
"360 462 OFFCURVE",
"389 400 OFFCURVE",
"389 325 CURVE"
);
}
);
width = 530;
}
);
leftKerningGroup = o;
rightKerningGroup = e;
unicode = 0119;
},
{
glyphname = f;
lastChange = "2014-11-10 22:19:58 +0100";
layers = (
{
layerId = UUID0;
name = Regular;
paths = (
{
closed = 1;
nodes = (
"45 515 LINE",
"45 450 LINE",
"135 450 LINE",
"135 80 LINE",
"50 55 LINE",
"50 0 LINE",
"335 0 LINE",
"335 55 LINE",
"235 80 LINE",
"235 450 LINE",
"364 450 LINE",
"367 525 LINE",
"235 525 LINE",
"235 605 LINE SMOOTH",
"235 665 OFFCURVE",
"255 705 OFFCURVE",
"325 705 CURVE SMOOTH",
"360 705 OFFCURVE",
"385 700 OFFCURVE",
"385 700 CURVE",
"400 620 LINE",
"470 620 LINE",
"470 745 LINE",
"470 745 OFFCURVE",
"415 780 OFFCURVE",
"320 780 CURVE SMOOTH",
"200 780 OFFCURVE",
"135 705 OFFCURVE",
"135 585 CURVE SMOOTH",
"135 525 LINE"
);
}
);
width = 415;
}
);
leftKerningGroup = f;
rightKerningGroup = f;
unicode = 0066;
},
{
glyphname = g;
lastChange = "2014-11-10 22:19:58 +0100";
layers = (
{
layerId = UUID0;
name = Regular;
paths = (
{
closed = 1;
nodes = (
"560 525 LINE",
"385 521 LINE",
"385 521 OFFCURVE",
"350 540 OFFCURVE",
"285 540 CURVE",
"155 540 OFFCURVE",
"65 475 OFFCURVE",
"65 345 CURVE",
"65 225 OFFCURVE",
"142 190 OFFCURVE",
"142 190 CURVE",
"142 190 OFFCURVE",
"90 110 OFFCURVE",
"90 77 CURVE",
"90 25 OFFCURVE",
"150 20 OFFCURVE",
"150 20 CURVE",
"150 20 OFFCURVE",
"45 -15 OFFCURVE",
"45 -105 CURVE SMOOTH",
"45 -215 OFFCURVE",
"145 -250 OFFCURVE",
"285 -250 CURVE SMOOTH",
"460 -250 OFFCURVE",
"545 -180 OFFCURVE",
"545 -70 CURVE SMOOTH",
"545 25 OFFCURVE",
"475 75 OFFCURVE",
"345 75 CURVE SMOOTH",
"190 75 LINE",
"195 169 LINE",
"195 169 OFFCURVE",
"225 160 OFFCURVE",
"270 160 CURVE",
"400 160 OFFCURVE",
"490 220 OFFCURVE",
"490 355 CURVE",
"490 420 OFFCURVE",
"463 456 OFFCURVE",
"463 456 CURVE",
"560 470 LINE"
);
},
{
closed = 1;
nodes = (
"320 0 LINE",
"400 0 OFFCURVE",
"450 -15 OFFCURVE",
"450 -80 CURVE SMOOTH",
"450 -145 OFFCURVE",
"400 -175 OFFCURVE",
"300 -175 CURVE SMOOTH",
"205 -175 OFFCURVE",
"145 -160 OFFCURVE",
"145 -90 CURVE SMOOTH",
"145 -30 OFFCURVE",
"210 0 OFFCURVE",
"210 0 CURVE"
);
},
{
closed = 1;
nodes = (
"355 470 OFFCURVE",
"390 425 OFFCURVE",
"390 350 CURVE SMOOTH",
"390 265 OFFCURVE",
"355 230 OFFCURVE",
"275 230 CURVE SMOOTH",
"200 230 OFFCURVE",
"165 280 OFFCURVE",
"165 350 CURVE SMOOTH",
"165 430 OFFCURVE",
"200 470 OFFCURVE",
"280 470 CURVE SMOOTH"
);
}
);
width = 585;
}
);
leftKerningGroup = g;
rightKerningGroup = g;
unicode = 0067;
},
{
glyphname = gcircumflex;
lastChange = "2014-11-10 22:19:58 +0100";
layers = (
{
layerId = UUID0;
name = Regular;
paths = (
{
closed = 1;
nodes = (
"440 600 LINE",
"480 645 LINE",
"330 785 LINE",
"270 780 LINE",
"120 645 LINE",
"160 600 LINE",
"302 708 LINE"
);
},
{
closed = 1;
nodes = (
"560 525 LINE",
"385 521 LINE",
"385 521 OFFCURVE",
"350 540 OFFCURVE",
"285 540 CURVE",
"155 540 OFFCURVE",
"65 475 OFFCURVE",
"65 345 CURVE",
"65 225 OFFCURVE",
"142 190 OFFCURVE",
"142 190 CURVE",
"142 190 OFFCURVE",
"90 110 OFFCURVE",
"90 77 CURVE",
"90 25 OFFCURVE",
"150 20 OFFCURVE",
"150 20 CURVE",
"150 20 OFFCURVE",
"45 -15 OFFCURVE",
"45 -105 CURVE SMOOTH",
"45 -215 OFFCURVE",
"145 -250 OFFCURVE",
"285 -250 CURVE SMOOTH",
"460 -250 OFFCURVE",
"545 -180 OFFCURVE",
"545 -70 CURVE SMOOTH",
"545 25 OFFCURVE",
"475 75 OFFCURVE",
"345 75 CURVE SMOOTH",
"190 75 LINE",
"195 169 LINE",
"195 169 OFFCURVE",
"225 160 OFFCURVE",
"270 160 CURVE",
"400 160 OFFCURVE",
"490 220 OFFCURVE",
"490 355 CURVE",
"490 420 OFFCURVE",
"463 456 OFFCURVE",
"463 456 CURVE",
"560 470 LINE"
);
},
{
closed = 1;
nodes = (
"320 0 LINE",
"400 0 OFFCURVE",
"450 -15 OFFCURVE",
"450 -80 CURVE SMOOTH",
"450 -145 OFFCURVE",
"400 -175 OFFCURVE",
"300 -175 CURVE SMOOTH",
"205 -175 OFFCURVE",
"145 -160 OFFCURVE",
"145 -90 CURVE SMOOTH",
"145 -30 OFFCURVE",
"210 0 OFFCURVE",
"210 0 CURVE"
);
},
{
closed = 1;
nodes = (
"355 470 OFFCURVE",
"390 425 OFFCURVE",
"390 350 CURVE SMOOTH",
"390 265 OFFCURVE",
"355 230 OFFCURVE",
"275 230 CURVE SMOOTH",
"200 230 OFFCURVE",
"165 280 OFFCURVE",
"165 350 CURVE SMOOTH",
"165 430 OFFCURVE",
"200 470 OFFCURVE",
"280 470 CURVE SMOOTH"
);
}
);
width = 585;
}
);
leftKerningGroup = g;
rightKerningGroup = g;
unicode = 011D;
},
{
glyphname = gcommaaccent;
lastChange = "2014-11-10 22:19:58 +0100";
layers = (
{
layerId = UUID0;
name = Regular;
paths = (
{
closed = 1;
nodes = (
"260 715 OFFCURVE",
"285 700 OFFCURVE",
"285 685 CURVE SMOOTH",
"285 664 OFFCURVE",
"230 619 OFFCURVE",
"230 619 CURVE",
"268 576 LINE",
"339 629 OFFCURVE",
"380 685 OFFCURVE",
"380 740 CURVE SMOOTH",
"380 785 OFFCURVE",
"355 805 OFFCURVE",
"320 805 CURVE SMOOTH",
"287 805 OFFCURVE",
"260 783 OFFCURVE",
"260 745 CURVE SMOOTH"
);
},
{
closed = 1;
nodes = (
"560 525 LINE",
"385 521 LINE",
"385 521 OFFCURVE",
"350 540 OFFCURVE",
"285 540 CURVE",
"155 540 OFFCURVE",
"65 475 OFFCURVE",
"65 345 CURVE",
"65 225 OFFCURVE",
"142 190 OFFCURVE",
"142 190 CURVE",
"142 190 OFFCURVE",
"90 110 OFFCURVE",
"90 77 CURVE",
"90 25 OFFCURVE",
"150 20 OFFCURVE",
"150 20 CURVE",
"150 20 OFFCURVE",
"45 -15 OFFCURVE",
"45 -105 CURVE SMOOTH",
"45 -215 OFFCURVE",
"145 -250 OFFCURVE",
"285 -250 CURVE SMOOTH",
"460 -250 OFFCURVE",
"545 -180 OFFCURVE",
"545 -70 CURVE SMOOTH",
"545 25 OFFCURVE",
"475 75 OFFCURVE",
"345 75 CURVE SMOOTH",
"190 75 LINE",
"195 169 LINE",
"195 169 OFFCURVE",
"225 160 OFFCURVE",
"270 160 CURVE",
"400 160 OFFCURVE",
"490 220 OFFCURVE",
"490 355 CURVE",
"490 420 OFFCURVE",
"463 456 OFFCURVE",
"463 456 CURVE",
"560 470 LINE"
);
},
{
closed = 1;
nodes = (
"320 0 LINE",
"400 0 OFFCURVE",
"450 -15 OFFCURVE",
"450 -80 CURVE SMOOTH",
"450 -145 OFFCURVE",
"400 -175 OFFCURVE",
"300 -175 CURVE SMOOTH",
"205 -175 OFFCURVE",
"145 -160 OFFCURVE",
"145 -90 CURVE SMOOTH",
"145 -30 OFFCURVE",
"210 0 OFFCURVE",
"210 0 CURVE"
);
},
{
closed = 1;
nodes = (
"355 470 OFFCURVE",
"390 425 OFFCURVE",
"390 350 CURVE SMOOTH",
"390 265 OFFCURVE",
"355 230 OFFCURVE",
"275 230 CURVE SMOOTH",
"200 230 OFFCURVE",
"165 280 OFFCURVE",
"165 350 CURVE SMOOTH",
"165 430 OFFCURVE",
"200 470 OFFCURVE",
"280 470 CURVE SMOOTH"
);
}
);
width = 585;
}
);
leftKerningGroup = g;
rightKerningGroup = g;
unicode = 0123;
},
{
glyphname = gdotaccent;
lastChange = "2014-11-10 22:19:58 +0100";
layers = (
{
layerId = UUID0;
name = Regular;
paths = (
{
closed = 1;
nodes = (
"560 525 LINE",
"385 521 LINE",
"385 521 OFFCURVE",
"350 540 OFFCURVE",
"285 540 CURVE",
"155 540 OFFCURVE",
"65 475 OFFCURVE",
"65 345 CURVE",
"65 225 OFFCURVE",
"142 190 OFFCURVE",
"142 190 CURVE",
"142 190 OFFCURVE",
"90 110 OFFCURVE",
"90 77 CURVE",
"90 25 OFFCURVE",
"150 20 OFFCURVE",
"150 20 CURVE",
"150 20 OFFCURVE",
"45 -15 OFFCURVE",
"45 -105 CURVE SMOOTH",
"45 -215 OFFCURVE",
"145 -250 OFFCURVE",
"285 -250 CURVE SMOOTH",
"460 -250 OFFCURVE",
"545 -180 OFFCURVE",
"545 -70 CURVE SMOOTH",
"545 25 OFFCURVE",
"475 75 OFFCURVE",
"345 75 CURVE SMOOTH",
"190 75 LINE",
"195 169 LINE",
"195 169 OFFCURVE",
"225 160 OFFCURVE",
"270 160 CURVE",
"400 160 OFFCURVE",
"490 220 OFFCURVE",
"490 355 CURVE",
"490 420 OFFCURVE",
"463 456 OFFCURVE",
"463 456 CURVE",
"560 470 LINE"
);
},
{
closed = 1;
nodes = (
"320 0 LINE",
"400 0 OFFCURVE",
"450 -15 OFFCURVE",
"450 -80 CURVE SMOOTH",
"450 -145 OFFCURVE",
"400 -175 OFFCURVE",
"300 -175 CURVE SMOOTH",
"205 -175 OFFCURVE",
"145 -160 OFFCURVE",
"145 -90 CURVE SMOOTH",
"145 -30 OFFCURVE",
"210 0 OFFCURVE",
"210 0 CURVE"
);
},
{
closed = 1;
nodes = (
"355 470 OFFCURVE",
"390 425 OFFCURVE",
"390 350 CURVE SMOOTH",
"390 265 OFFCURVE",
"355 230 OFFCURVE",
"275 230 CURVE SMOOTH",
"200 230 OFFCURVE",
"165 280 OFFCURVE",
"165 350 CURVE SMOOTH",
"165 430 OFFCURVE",
"200 470 OFFCURVE",
"280 470 CURVE SMOOTH"
);
},
{
closed = 1;
nodes = (
"227 662 OFFCURVE",
"248 640 OFFCURVE",
"282 640 CURVE SMOOTH",
"312 640 OFFCURVE",
"337 662 OFFCURVE",
"337 700 CURVE SMOOTH",
"337 738 OFFCURVE",
"316 760 OFFCURVE",
"282 760 CURVE SMOOTH",
"252 760 OFFCURVE",
"227 738 OFFCURVE",
"227 700 CURVE SMOOTH"
);
}
);
width = 585;
}
);
leftKerningGroup = g;
rightKerningGroup = g;
unicode = 0121;
},
{
glyphname = h;
lastChange = "2014-11-10 22:19:58 +0100";
layers = (
{
layerId = UUID0;
name = Regular;
paths = (
{
closed = 1;
nodes = (
"210 770 LINE",
"25 765 LINE",
"25 710 LINE",
"110 690 LINE",
"110 80 LINE",
"25 55 LINE",
"25 0 LINE",
"275 0 LINE",
"275 55 LINE",
"210 80 LINE",
"210 375 LINE",
"210 375 OFFCURVE",
"273 455 OFFCURVE",
"358 455 CURVE SMOOTH",
"423 455 OFFCURVE",
"445 420 OFFCURVE",
"445 350 CURVE SMOOTH",
"445 79 LINE",
"380 55 LINE",
"380 0 LINE",
"620 0 LINE",
"620 55 LINE",
"545 80 LINE",
"545 360 LINE SMOOTH",
"545 470 OFFCURVE",
"495 540 OFFCURVE",
"385 540 CURVE SMOOTH",
"311 540 OFFCURVE",
"241 494 OFFCURVE",
"210 468 CURVE"
);
}
);
width = 650;
}
);
rightKerningGroup = n;
unicode = 0068;
},
{
glyphname = hbar;
lastChange = "2014-11-10 22:19:58 +0100";
layers = (
{
layerId = UUID0;
name = Regular;
paths = (
{
closed = 1;
nodes = (
"210 770 LINE",
"25 765 LINE",
"25 710 LINE",
"110 690 LINE",
"110 650 LINE",
"25 650 LINE",
"25 575 LINE",
"110 575 LINE",
"110 80 LINE",
"25 55 LINE",
"25 0 LINE",
"275 0 LINE",
"275 55 LINE",
"210 80 LINE",
"210 375 LINE",
"210 375 OFFCURVE",
"273 455 OFFCURVE",
"358 455 CURVE SMOOTH",
"423 455 OFFCURVE",
"445 420 OFFCURVE",
"445 350 CURVE SMOOTH",
"445 79 LINE",
"380 55 LINE",
"380 0 LINE",
"620 0 LINE",
"620 55 LINE",
"545 80 LINE",
"545 360 LINE SMOOTH",
"545 470 OFFCURVE",
"495 540 OFFCURVE",
"385 540 CURVE SMOOTH",
"311 540 OFFCURVE",
"241 494 OFFCURVE",
"210 468 CURVE",
"210 575 LINE",
"315 575 LINE",
"315 650 LINE",
"210 650 LINE"
);
}
);
width = 650;
}
);
rightKerningGroup = n;
unicode = 0127;
},
{
glyphname = hcircumflex;
lastChange = "2014-11-10 22:19:58 +0100";
layers = (
{
layerId = UUID0;
name = Regular;
paths = (
{
closed = 1;
nodes = (
"273 790 LINE",
"313 835 LINE",
"175 960 LINE",
"115 955 LINE",
"-23 835 LINE",
"17 790 LINE",
"147 883 LINE"
);
},
{
closed = 1;
nodes = (
"210 770 LINE",
"25 765 LINE",
"25 710 LINE",
"110 690 LINE",
"110 80 LINE",
"25 55 LINE",
"25 0 LINE",
"275 0 LINE",
"275 55 LINE",
"210 80 LINE",
"210 375 LINE",
"210 375 OFFCURVE",
"273 455 OFFCURVE",
"358 455 CURVE SMOOTH",
"423 455 OFFCURVE",
"445 420 OFFCURVE",
"445 350 CURVE SMOOTH",
"445 79 LINE",
"380 55 LINE",
"380 0 LINE",
"620 0 LINE",
"620 55 LINE",
"545 80 LINE",
"545 360 LINE SMOOTH",
"545 470 OFFCURVE",
"495 540 OFFCURVE",
"385 540 CURVE SMOOTH",
"311 540 OFFCURVE",
"241 494 OFFCURVE",
"210 468 CURVE"
);
}
);
width = 650;
}
);
rightKerningGroup = n;
unicode = 0125;
},
{
glyphname = i;
lastChange = "2014-11-10 22:19:58 +0100";
layers = (
{
layerId = UUID0;
name = Regular;
paths = (
{
closed = 1;
nodes = (
"105 650 OFFCURVE",
"130 625 OFFCURVE",
"170 625 CURVE SMOOTH",
"200 625 OFFCURVE",
"235 650 OFFCURVE",
"235 695 CURVE SMOOTH",
"235 745 OFFCURVE",
"210 765 OFFCURVE",
"170 765 CURVE SMOOTH",
"135 765 OFFCURVE",
"105 740 OFFCURVE",
"105 695 CURVE SMOOTH"
);
},
{
closed = 1;
nodes = (
"225 530 LINE",
"40 525 LINE",
"40 470 LINE",
"125 450 LINE",
"125 80 LINE",
"40 55 LINE",
"40 0 LINE",
"300 0 LINE",
"300 55 LINE",
"225 80 LINE"
);
}
);
width = 335;
}
);
leftKerningGroup = i;
rightKerningGroup = i;
unicode = 0069;
},
{
glyphname = dotlessi;
lastChange = "2014-11-10 22:19:58 +0100";
layers = (
{
layerId = UUID0;
name = Regular;
paths = (
{
closed = 1;
nodes = (
"225 530 LINE",
"40 525 LINE",
"40 470 LINE",
"125 450 LINE",
"125 80 LINE",
"40 55 LINE",
"40 0 LINE",
"300 0 LINE",
"300 55 LINE",
"225 80 LINE"
);
}
);
width = 335;
}
);
leftKerningGroup = i;
rightKerningGroup = i;
unicode = 0131;
},
{
glyphname = ibreve;
lastChange = "2014-11-10 22:19:58 +0100";
layers = (
{
components = (
{
name = dotlessi;
transform = "{1, 0, 0, 1, -3, 0}";
},
{
name = breve;
transform = "{1, 0, 0, 1, -60, 0}";
}
);
layerId = UUID0;
name = Regular;
paths = (
{
closed = 0;
nodes = (
"169 655 LINE"
);
}
);
width = 330;
}
);
leftKerningGroup = i;
rightKerningGroup = i;
unicode = 012D;
},
{
glyphname = icircumflex;
lastChange = "2014-11-10 22:19:58 +0100";
layers = (
{
layerId = UUID0;
name = Regular;
paths = (
{
closed = 1;
nodes = (
"230 530 LINE",
"45 525 LINE",
"45 470 LINE",
"130 450 LINE",
"130 80 LINE",
"45 55 LINE",
"45 0 LINE",
"305 0 LINE",
"305 55 LINE",
"230 80 LINE"
);
},
{
closed = 1;
nodes = (
"300 600 LINE",
"340 645 LINE",
"200 785 LINE",
"140 780 LINE",
"0 645 LINE",
"40 600 LINE",
"172 708 LINE"
);
}
);
width = 345;
}
);
leftKerningGroup = i;
rightKerningGroup = i;
unicode = 00EE;
},
{
glyphname = idieresis;
lastChange = "2014-11-10 22:19:58 +0100";
layers = (
{
components = (
{
name = dotlessi;
transform = "{1, 0, 0, 1, 0, 0}";
}
);
layerId = UUID0;
name = Regular;
paths = (
{
closed = 1;
nodes = (
"15 662 OFFCURVE",
"36 640 OFFCURVE",
"70 640 CURVE SMOOTH",
"100 640 OFFCURVE",
"125 662 OFFCURVE",
"125 700 CURVE SMOOTH",
"125 738 OFFCURVE",
"104 760 OFFCURVE",
"70 760 CURVE SMOOTH",
"40 760 OFFCURVE",
"15 738 OFFCURVE",
"15 700 CURVE SMOOTH"
);
},
{
closed = 1;
nodes = (
"210 662 OFFCURVE",
"231 640 OFFCURVE",
"265 640 CURVE SMOOTH",
"295 640 OFFCURVE",
"320 662 OFFCURVE",
"320 700 CURVE SMOOTH",
"320 738 OFFCURVE",
"299 760 OFFCURVE",
"265 760 CURVE SMOOTH",
"235 760 OFFCURVE",
"210 738 OFFCURVE",
"210 700 CURVE SMOOTH"
);
}
);
width = 335;
}
);
leftKerningGroup = i;
rightKerningGroup = i;
unicode = 00EF;
},
{
glyphname = ij;
lastChange = "2014-11-10 22:19:58 +0100";
layers = (
{
layerId = UUID0;
name = Regular;
paths = (
{
closed = 1;
nodes = (
"105 650 OFFCURVE",
"130 625 OFFCURVE",
"170 625 CURVE SMOOTH",
"200 625 OFFCURVE",
"235 650 OFFCURVE",
"235 695 CURVE SMOOTH",
"235 745 OFFCURVE",
"210 765 OFFCURVE",
"170 765 CURVE SMOOTH",
"135 765 OFFCURVE",
"105 740 OFFCURVE",
"105 695 CURVE SMOOTH"
);
},
{
closed = 1;
nodes = (
"225 530 LINE",
"40 525 LINE",
"40 470 LINE",
"125 450 LINE",
"125 80 LINE",
"40 55 LINE",
"40 0 LINE",
"300 0 LINE",
"300 55 LINE",
"225 80 LINE"
);
},
{
closed = 1;
nodes = (
"529 530 LINE",
"344 525 LINE",
"344 470 LINE",
"429 450 LINE",
"429 -65 LINE SMOOTH",
"429 -125 OFFCURVE",
"409 -165 OFFCURVE",
"339 -165 CURVE SMOOTH",
"289 -165 LINE",
"280 -235 LINE",
"280 -235 OFFCURVE",
"319 -240 OFFCURVE",
"344 -240 CURVE SMOOTH",
"464 -240 OFFCURVE",
"529 -165 OFFCURVE",
"529 -45 CURVE SMOOTH"
);
},
{
closed = 1;
nodes = (
"404 650 OFFCURVE",
"429 625 OFFCURVE",
"469 625 CURVE SMOOTH",
"499 625 OFFCURVE",
"534 650 OFFCURVE",
"534 695 CURVE SMOOTH",
"534 745 OFFCURVE",
"509 765 OFFCURVE",
"469 765 CURVE SMOOTH",
"434 765 OFFCURVE",
"404 740 OFFCURVE",
"404 695 CURVE SMOOTH"
);
}
);
width = 609;
}
);
leftKerningGroup = i;
rightKerningGroup = j;
unicode = 0133;
},
{
glyphname = imacron;
lastChange = "2014-11-10 22:19:58 +0100";
layers = (
{
layerId = UUID0;
name = Regular;
paths = (
{
closed = 1;
nodes = (
"30 660 LINE",
"290 660 LINE",
"290 735 LINE",
"30 735 LINE"
);
},
{
closed = 1;
nodes = (
"225 530 LINE",
"40 525 LINE",
"40 470 LINE",
"125 450 LINE",
"125 80 LINE",
"40 55 LINE",
"40 0 LINE",
"300 0 LINE",
"300 55 LINE",
"225 80 LINE"
);
}
);
width = 335;
}
);
leftKerningGroup = i;
rightKerningGroup = i;
unicode = 012B;
},
{
glyphname = iogonek;
lastChange = "2014-11-10 22:19:58 +0100";
layers = (
{
layerId = UUID0;
name = Regular;
paths = (
{
closed = 1;
nodes = (
"40 0 LINE",
"180 0 LINE",
"148 -15 OFFCURVE",
"70 -55 OFFCURVE",
"70 -125 CURVE SMOOTH",
"70 -185 OFFCURVE",
"115 -220 OFFCURVE",
"170 -220 CURVE SMOOTH",
"210 -220 OFFCURVE",
"250 -200 OFFCURVE",
"250 -200 CURVE",
"240 -153 LINE",
"240 -153 OFFCURVE",
"215 -160 OFFCURVE",
"195 -160 CURVE SMOOTH",
"170 -160 OFFCURVE",
"150 -145 OFFCURVE",
"150 -115 CURVE SMOOTH",
"150 -62 OFFCURVE",
"240 -20 OFFCURVE",
"300 0 CURVE",
"300 55 LINE",
"225 80 LINE",
"225 530 LINE",
"40 525 LINE",
"40 470 LINE",
"125 450 LINE",
"125 80 LINE",
"40 55 LINE"
);
},
{
closed = 1;
nodes = (
"105 650 OFFCURVE",
"130 625 OFFCURVE",
"170 625 CURVE SMOOTH",
"200 625 OFFCURVE",
"235 650 OFFCURVE",
"235 695 CURVE SMOOTH",
"235 745 OFFCURVE",
"210 765 OFFCURVE",
"170 765 CURVE SMOOTH",
"135 765 OFFCURVE",
"105 740 OFFCURVE",
"105 695 CURVE SMOOTH"
);
}
);
width = 335;
}
);
leftKerningGroup = i;
rightKerningGroup = i;
unicode = 012F;
},
{
glyphname = itilde;
lastChange = "2014-11-10 22:19:58 +0100";
layers = (
{
layerId = UUID0;
name = Regular;
paths = (
{
closed = 1;
nodes = (
"10 635 LINE",
"10 635 OFFCURVE",
"38 679 OFFCURVE",
"77 679 CURVE SMOOTH",
"132 679 OFFCURVE",
"168 635 OFFCURVE",
"228 635 CURVE SMOOTH",
"296 635 OFFCURVE",
"329 725 OFFCURVE",
"329 725 CURVE",
"294 760 LINE",
"294 760 OFFCURVE",
"270 718 OFFCURVE",
"232 718 CURVE SMOOTH",
"177 718 OFFCURVE",
"141 764 OFFCURVE",
"81 764 CURVE SMOOTH",
"13 764 OFFCURVE",
"-25 670 OFFCURVE",
"-25 670 CURVE"
);
},
{
closed = 1;
nodes = (
"225 530 LINE",
"40 525 LINE",
"40 470 LINE",
"125 450 LINE",
"125 80 LINE",
"40 55 LINE",
"40 0 LINE",
"300 0 LINE",
"300 55 LINE",
"225 80 LINE"
);
}
);
width = 334;
}
);
leftKerningGroup = i;
rightKerningGroup = i;
unicode = 0129;
},
{
glyphname = j;
lastChange = "2014-11-10 22:19:58 +0100";
layers = (
{
layerId = UUID0;
name = Regular;
paths = (
{
closed = 1;
nodes = (
"209 530 LINE",
"24 525 LINE",
"24 470 LINE",
"109 450 LINE",
"109 -65 LINE SMOOTH",
"109 -125 OFFCURVE",
"89 -165 OFFCURVE",
"19 -165 CURVE SMOOTH",
"-31 -165 LINE",
"-40 -235 LINE",
"-40 -235 OFFCURVE",
"-1 -240 OFFCURVE",
"24 -240 CURVE SMOOTH",
"144 -240 OFFCURVE",
"209 -165 OFFCURVE",
"209 -45 CURVE SMOOTH"
);
},
{
closed = 1;
nodes = (
"84 650 OFFCURVE",
"109 625 OFFCURVE",
"149 625 CURVE SMOOTH",
"179 625 OFFCURVE",
"214 650 OFFCURVE",
"214 695 CURVE SMOOTH",
"214 745 OFFCURVE",
"189 765 OFFCURVE",
"149 765 CURVE SMOOTH",
"114 765 OFFCURVE",
"84 740 OFFCURVE",
"84 695 CURVE SMOOTH"
);
}
);
width = 289;
}
);
leftKerningGroup = j;
rightKerningGroup = i;
unicode = 006A;
},
{
glyphname = dotlessj;
lastChange = "2014-11-10 22:19:58 +0100";
layers = (
{
layerId = UUID0;
name = Regular;
paths = (
{
closed = 1;
nodes = (
"209 530 LINE",
"24 525 LINE",
"24 470 LINE",
"109 450 LINE",
"109 -65 LINE SMOOTH",
"109 -125 OFFCURVE",
"89 -165 OFFCURVE",
"19 -165 CURVE SMOOTH",
"-31 -165 LINE",
"-40 -235 LINE",
"-40 -235 OFFCURVE",
"-1 -240 OFFCURVE",
"24 -240 CURVE SMOOTH",
"144 -240 OFFCURVE",
"209 -165 OFFCURVE",
"209 -45 CURVE SMOOTH"
);
}
);
width = 284;
}
);
leftKerningGroup = j;
rightKerningGroup = i;
unicode = 0237;
},
{
glyphname = jcircumflex;
lastChange = "2014-11-10 22:19:58 +0100";
layers = (
{
layerId = UUID0;
name = Regular;
paths = (
{
closed = 1;
nodes = (
"209 530 LINE",
"24 525 LINE",
"24 470 LINE",
"109 450 LINE",
"109 -65 LINE SMOOTH",
"109 -125 OFFCURVE",
"89 -165 OFFCURVE",
"19 -165 CURVE SMOOTH",
"-31 -165 LINE",
"-40 -235 LINE",
"-40 -235 OFFCURVE",
"-1 -240 OFFCURVE",
"24 -240 CURVE SMOOTH",
"144 -240 OFFCURVE",
"209 -165 OFFCURVE",
"209 -45 CURVE SMOOTH"
);
},
{
closed = 1;
nodes = (
"274 600 LINE",
"314 645 LINE",
"174 785 LINE",
"114 780 LINE",
"-26 645 LINE",
"14 600 LINE",
"146 708 LINE"
);
}
);
width = 289;
}
);
leftKerningGroup = j;
rightKerningGroup = j;
unicode = 0135;
},
{
glyphname = k;
lastChange = "2014-11-10 22:19:58 +0100";
layers = (
{
layerId = UUID0;
name = Regular;
paths = (
{
closed = 1;
nodes = (
"210 770 LINE",
"25 765 LINE",
"25 710 LINE",
"110 690 LINE",
"110 80 LINE",
"25 55 LINE",
"25 0 LINE",
"275 0 LINE",
"275 55 LINE",
"210 80 LINE",
"210 255 LINE",
"297 255 LINE",
"440 0 LINE",
"575 0 LINE",
"575 55 LINE",
"500 80 LINE",
"499 80 LINE",
"370 305 LINE",
"473 458 LINE",
"474 458 LINE",
"545 470 LINE",
"545 530 LINE",
"325 525 LINE",
"325 470 LINE",
"370 456 LINE",
"295 330 LINE",
"210 330 LINE"
);
}
);
width = 580;
}
);
leftKerningGroup = l;
rightKerningGroup = k;
unicode = 006B;
},
{
glyphname = kgreenlandic;
lastChange = "2014-11-10 22:19:58 +0100";
layers = (
{
layerId = UUID0;
name = Regular;
paths = (
{
closed = 1;
nodes = (
"225 250 LINE",
"317 250 LINE",
"460 0 LINE",
"595 0 LINE",
"595 55 LINE",
"519 80 LINE",
"390 300 LINE",
"493 458 LINE",
"494 458 LINE",
"565 470 LINE",
"565 530 LINE",
"345 525 LINE",
"345 470 LINE",
"390 456 LINE",
"315 325 LINE",
"225 325 LINE",
"225 530 LINE",
"40 525 LINE",
"40 470 LINE",
"125 450 LINE",
"125 80 LINE",
"40 55 LINE",
"40 0 LINE",
"290 0 LINE",
"290 55 LINE",
"225 80 LINE"
);
}
);
width = 600;
}
);
leftKerningGroup = l;
rightKerningGroup = k;
unicode = 0138;
},
{
glyphname = l;
lastChange = "2014-11-10 22:19:58 +0100";
layers = (
{
layerId = UUID0;
name = Regular;
paths = (
{
closed = 1;
nodes = (
"212 770 LINE",
"25 765 LINE",
"25 710 LINE",
"110 690 LINE",
"110 80 LINE",
"25 55 LINE",
"25 0 LINE",
"302 0 LINE",
"302 55 LINE",
"212 80 LINE"
);
}
);
width = 307;
}
);
leftKerningGroup = l;
rightKerningGroup = l;
unicode = 006C;
},
{
glyphname = lcaron;
lastChange = "2014-11-10 22:19:58 +0100";
layers = (
{
components = (
{
name = l;
transform = "{1, 0, 0, 1, 0, 0}";
},
{
name = caron.x;
transform = "{1, 0, 0, 1, 267, 0}";
}
);
layerId = UUID0;
name = Regular;
paths = (
{
closed = 0;
nodes = (
"162 678 LINE"
);
}
);
width = 398;
}
);
leftKerningGroup = l;
unicode = 013E;
},
{
glyphname = lcommaaccent;
lastChange = "2014-11-10 22:19:58 +0100";
layers = (
{
layerId = UUID0;
name = Regular;
paths = (
{
closed = 1;
nodes = (
"212 770 LINE",
"25 765 LINE",
"25 710 LINE",
"110 690 LINE",
"110 80 LINE",
"25 55 LINE",
"25 0 LINE",
"312 0 LINE",
"312 55 LINE",
"212 80 LINE"
);
},
{
closed = 1;
nodes = (
"95 -140 OFFCURVE",
"115 -160 OFFCURVE",
"115 -175 CURVE SMOOTH",
"115 -195 OFFCURVE",
"65 -245 OFFCURVE",
"65 -245 CURVE",
"105 -285 LINE",
"172 -231 OFFCURVE",
"215 -168 OFFCURVE",
"215 -115 CURVE SMOOTH",
"215 -75 OFFCURVE",
"190 -50 OFFCURVE",
"155 -50 CURVE SMOOTH",
"120 -50 OFFCURVE",
"95 -75 OFFCURVE",
"95 -112 CURVE SMOOTH"
);
}
);
width = 317;
}
);
leftKerningGroup = l;
rightKerningGroup = l;
unicode = 013C;
},
{
glyphname = ldot;
lastChange = "2014-11-10 22:19:58 +0100";
layers = (
{
layerId = UUID0;
name = Regular;
paths = (
{
closed = 1;
nodes = (
"212 770 LINE",
"25 765 LINE",
"25 710 LINE",
"110 690 LINE",
"110 80 LINE",
"25 55 LINE",
"25 0 LINE",
"312 0 LINE",
"312 55 LINE",
"212 80 LINE"
);
},
{
closed = 1;
nodes = (
"279 268 OFFCURVE",
"304 243 OFFCURVE",
"346 243 CURVE SMOOTH",
"383 243 OFFCURVE",
"413 268 OFFCURVE",
"413 315 CURVE SMOOTH",
"413 362 OFFCURVE",
"388 387 OFFCURVE",
"346 387 CURVE SMOOTH",
"309 387 OFFCURVE",
"279 362 OFFCURVE",
"279 315 CURVE SMOOTH"
);
}
);
width = 423;
}
);
leftKerningGroup = l;
unicode = 0140;
},
{
glyphname = lslash;
lastChange = "2014-11-10 22:19:58 +0100";
layers = (
{
layerId = UUID0;
name = Regular;
paths = (
{
closed = 1;
nodes = (
"237 770 LINE",
"50 765 LINE",
"50 710 LINE",
"135 690 LINE",
"135 391 LINE",
"20 336 LINE",
"41 262 LINE",
"135 307 LINE",
"135 80 LINE",
"50 55 LINE",
"50 0 LINE",
"337 0 LINE",
"337 55 LINE",
"237 80 LINE",
"237 348 LINE",
"356 405 LINE",
"336 480 LINE",
"237 433 LINE"
);
}
);
width = 361;
}
);
unicode = 0142;
},
{
glyphname = m;
lastChange = "2014-11-10 22:19:58 +0100";
layers = (
{
layerId = UUID0;
name = Regular;
paths = (
{
closed = 1;
nodes = (
"205 530 LINE",
"40 525 LINE",
"40 470 LINE",
"125 450 LINE",
"125 80 LINE",
"40 55 LINE",
"40 0 LINE",
"290 0 LINE",
"290 55 LINE",
"225 80 LINE",
"225 375 LINE",
"225 375 OFFCURVE",
"280 455 OFFCURVE",
"365 455 CURVE SMOOTH",
"430 455 OFFCURVE",
"450 420 OFFCURVE",
"450 350 CURVE SMOOTH",
"450 80 LINE",
"385 55 LINE",
"385 0 LINE",
"615 0 LINE",
"615 55 LINE",
"550 80 LINE",
"550 375 LINE",
"550 375 OFFCURVE",
"605 455 OFFCURVE",
"690 455 CURVE SMOOTH",
"755 455 OFFCURVE",
"775 420 OFFCURVE",
"775 350 CURVE SMOOTH",
"775 80 LINE",
"710 55 LINE",
"710 0 LINE",
"950 0 LINE",
"950 55 LINE",
"875 80 LINE",
"875 360 LINE SMOOTH",
"875 470 OFFCURVE",
"830 540 OFFCURVE",
"720 540 CURVE SMOOTH",
"628 540 OFFCURVE",
"547 467 OFFCURVE",
"534 454 CURVE",
"511 506 OFFCURVE",
"467 540 OFFCURVE",
"395 540 CURVE SMOOTH",
"313 540 OFFCURVE",
"237 481 OFFCURVE",
"214 459 CURVE"
);
}
);
width = 980;
}
);
leftKerningGroup = n;
rightKerningGroup = n;
unicode = 006D;
},
{
glyphname = n;
lastChange = "2014-11-10 22:19:58 +0100";
layers = (
{
guideLines = (
{
angle = 90;
position = "{40, 398}";
}
);
layerId = UUID0;
name = Regular;
paths = (
{
closed = 1;
nodes = (
"205 530 LINE",
"40 525 LINE",
"40 470 LINE",
"125 450 LINE",
"125 80 LINE",
"40 55 LINE",
"40 0 LINE",
"290 0 LINE",
"290 55 LINE",
"225 80 LINE",
"225 375 LINE",
"225 375 OFFCURVE",
"285 455 OFFCURVE",
"370 455 CURVE SMOOTH",
"435 455 OFFCURVE",
"460 420 OFFCURVE",
"460 350 CURVE SMOOTH",
"460 80 LINE",
"395 55 LINE",
"395 0 LINE",
"635 0 LINE",
"635 55 LINE",
"560 80 LINE",
"560 360 LINE",
"560 470 OFFCURVE",
"510 540 OFFCURVE",
"400 540 CURVE SMOOTH",
"317 540 OFFCURVE",
"238 480 OFFCURVE",
"214 459 CURVE"
);
}
);
width = 665;
}
);
leftKerningGroup = n;
rightKerningGroup = n;
unicode = 006E;
},
{
glyphname = napostrophe;
lastChange = "2014-11-10 22:19:58 +0100";
layers = (
{
layerId = UUID0;
name = Regular;
paths = (
{
closed = 1;
nodes = (
"205 530 LINE",
"40 525 LINE",
"40 470 LINE",
"125 450 LINE",
"125 80 LINE",
"40 55 LINE",
"40 0 LINE",
"290 0 LINE",
"290 55 LINE",
"225 80 LINE",
"225 375 LINE",
"225 375 OFFCURVE",
"285 455 OFFCURVE",
"370 455 CURVE SMOOTH",
"435 455 OFFCURVE",
"460 420 OFFCURVE",
"460 350 CURVE SMOOTH",
"460 80 LINE",
"395 55 LINE",
"395 0 LINE",
"635 0 LINE",
"635 55 LINE",
"560 80 LINE",
"560 360 LINE",
"560 470 OFFCURVE",
"510 540 OFFCURVE",
"400 540 CURVE SMOOTH",
"317 540 OFFCURVE",
"238 480 OFFCURVE",
"214 459 CURVE"
);
},
{
closed = 1;
nodes = (
"15 715 OFFCURVE",
"40 700 OFFCURVE",
"40 685 CURVE SMOOTH",
"40 664 OFFCURVE",
"-15 619 OFFCURVE",
"-15 619 CURVE",
"23 576 LINE",
"94 629 OFFCURVE",
"135 685 OFFCURVE",
"135 740 CURVE SMOOTH",
"135 785 OFFCURVE",
"110 805 OFFCURVE",
"75 805 CURVE SMOOTH",
"42 805 OFFCURVE",
"15 783 OFFCURVE",
"15 745 CURVE SMOOTH"
);
}
);
width = 665;
}
);
leftKerningGroup = n;
rightKerningGroup = n;
unicode = 0149;
},
{
glyphname = eng;
lastChange = "2014-11-10 22:19:58 +0100";
layers = (
{
layerId = UUID0;
name = Regular;
paths = (
{
closed = 1;
nodes = (
"460 -65 LINE",
"460 -125 OFFCURVE",
"440 -165 OFFCURVE",
"370 -165 CURVE SMOOTH",
"320 -165 LINE",
"311 -235 LINE",
"311 -235 OFFCURVE",
"350 -240 OFFCURVE",
"375 -240 CURVE SMOOTH",
"495 -240 OFFCURVE",
"560 -165 OFFCURVE",
"560 -45 CURVE SMOOTH",
"560 360 LINE SMOOTH",
"560 470 OFFCURVE",
"510 540 OFFCURVE",
"400 540 CURVE SMOOTH",
"317 540 OFFCURVE",
"238 480 OFFCURVE",
"214 459 CURVE",
"205 530 LINE",
"40 525 LINE",
"40 470 LINE",
"125 450 LINE",
"125 80 LINE",
"40 55 LINE",
"40 0 LINE",
"290 0 LINE",
"290 55 LINE",
"225 80 LINE",
"225 375 LINE",
"225 375 OFFCURVE",
"285 455 OFFCURVE",
"370 455 CURVE SMOOTH",
"435 455 OFFCURVE",
"460 420 OFFCURVE",
"460 350 CURVE SMOOTH"
);
}
);
width = 635;
}
);
leftKerningGroup = n;
rightKerningGroup = j;
unicode = 014B;
},
{
glyphname = ntilde;
lastChange = "2014-11-10 22:19:58 +0100";
layers = (
{
layerId = UUID0;
name = Regular;
paths = (
{
closed = 1;
nodes = (
"205 530 LINE",
"40 525 LINE",
"40 470 LINE",
"125 450 LINE",
"125 80 LINE",
"40 55 LINE",
"40 0 LINE",
"290 0 LINE",
"290 55 LINE",
"225 80 LINE",
"225 375 LINE",
"225 375 OFFCURVE",
"285 455 OFFCURVE",
"370 455 CURVE SMOOTH",
"435 455 OFFCURVE",
"460 420 OFFCURVE",
"460 350 CURVE SMOOTH",
"460 80 LINE",
"395 55 LINE",
"395 0 LINE",
"635 0 LINE",
"635 55 LINE",
"560 80 LINE",
"560 360 LINE",
"560 470 OFFCURVE",
"510 540 OFFCURVE",
"400 540 CURVE SMOOTH",
"317 540 OFFCURVE",
"238 480 OFFCURVE",
"214 459 CURVE"
);
},
{
closed = 1;
nodes = (
"178 636 LINE",
"178 636 OFFCURVE",
"205 680 OFFCURVE",
"248 680 CURVE SMOOTH",
"308 680 OFFCURVE",
"345 635 OFFCURVE",
"415 635 CURVE SMOOTH",
"488 635 OFFCURVE",
"523 726 OFFCURVE",
"523 726 CURVE",
"488 761 LINE",
"488 761 OFFCURVE",
"457 719 OFFCURVE",
"420 719 CURVE SMOOTH",
"360 719 OFFCURVE",
"323 764 OFFCURVE",
"253 764 CURVE SMOOTH",
"180 764 OFFCURVE",
"143 671 OFFCURVE",
"143 671 CURVE"
);
}
);
width = 665;
}
);
leftKerningGroup = n;
rightKerningGroup = n;
unicode = 00F1;
},
{
glyphname = o;
lastChange = "2014-11-10 22:19:58 +0100";
layers = (
{
layerId = UUID0;
name = Regular;
paths = (
{
closed = 1;
nodes = (
"145 540 OFFCURVE",
"40 430 OFFCURVE",
"40 260 CURVE SMOOTH",
"40 80 OFFCURVE",
"130 -10 OFFCURVE",
"280 -10 CURVE SMOOTH",
"430 -10 OFFCURVE",
"530 105 OFFCURVE",
"530 275 CURVE SMOOTH",
"530 435 OFFCURVE",
"445 540 OFFCURVE",
"295 540 CURVE SMOOTH"
);
},
{
closed = 1;
nodes = (
"390 460 OFFCURVE",
"425 380 OFFCURVE",
"425 270 CURVE SMOOTH",
"425 140 OFFCURVE",
"385 70 OFFCURVE",
"285 70 CURVE SMOOTH",
"185 70 OFFCURVE",
"145 145 OFFCURVE",
"145 265 CURVE SMOOTH",
"145 395 OFFCURVE",
"190 460 OFFCURVE",
"290 460 CURVE SMOOTH"
);
}
);
width = 570;
}
);
leftKerningGroup = o;
rightKerningGroup = o;
unicode = 006F;
},
{
glyphname = ocircumflex;
lastChange = "2014-11-10 22:19:58 +0100";
layers = (
{
layerId = UUID0;
name = Regular;
paths = (
{
closed = 1;
nodes = (
"430 600 LINE",
"470 645 LINE",
"320 785 LINE",
"260 780 LINE",
"110 645 LINE",
"150 600 LINE",
"292 708 LINE"
);
},
{
closed = 1;
nodes = (
"145 540 OFFCURVE",
"40 430 OFFCURVE",
"40 260 CURVE SMOOTH",
"40 80 OFFCURVE",
"130 -10 OFFCURVE",
"280 -10 CURVE SMOOTH",
"430 -10 OFFCURVE",
"530 105 OFFCURVE",
"530 275 CURVE SMOOTH",
"530 435 OFFCURVE",
"445 540 OFFCURVE",
"295 540 CURVE SMOOTH"
);
},
{
closed = 1;
nodes = (
"390 460 OFFCURVE",
"425 380 OFFCURVE",
"425 270 CURVE SMOOTH",
"425 140 OFFCURVE",
"385 70 OFFCURVE",
"285 70 CURVE SMOOTH",
"185 70 OFFCURVE",
"145 145 OFFCURVE",
"145 265 CURVE SMOOTH",
"145 395 OFFCURVE",
"190 460 OFFCURVE",
"290 460 CURVE SMOOTH"
);
}
);
width = 570;
}
);
leftKerningGroup = o;
rightKerningGroup = o;
unicode = 00F4;
},
{
glyphname = odieresis;
lastChange = "2014-11-10 22:19:58 +0100";
layers = (
{
layerId = UUID0;
name = Regular;
paths = (
{
closed = 1;
nodes = (
"145 540 OFFCURVE",
"40 430 OFFCURVE",
"40 260 CURVE SMOOTH",
"40 80 OFFCURVE",
"130 -10 OFFCURVE",
"280 -10 CURVE SMOOTH",
"430 -10 OFFCURVE",
"530 105 OFFCURVE",
"530 275 CURVE SMOOTH",
"530 435 OFFCURVE",
"445 540 OFFCURVE",
"295 540 CURVE SMOOTH"
);
},
{
closed = 1;
nodes = (
"390 460 OFFCURVE",
"425 380 OFFCURVE",
"425 270 CURVE SMOOTH",
"425 140 OFFCURVE",
"385 70 OFFCURVE",
"285 70 CURVE SMOOTH",
"185 70 OFFCURVE",
"145 145 OFFCURVE",
"145 265 CURVE SMOOTH",
"145 395 OFFCURVE",
"190 460 OFFCURVE",
"290 460 CURVE SMOOTH"
);
},
{
closed = 1;
nodes = (
"125 662 OFFCURVE",
"146 640 OFFCURVE",
"180 640 CURVE SMOOTH",
"210 640 OFFCURVE",
"235 662 OFFCURVE",
"235 700 CURVE SMOOTH",
"235 738 OFFCURVE",
"214 760 OFFCURVE",
"180 760 CURVE SMOOTH",
"150 760 OFFCURVE",
"125 738 OFFCURVE",
"125 700 CURVE SMOOTH"
);
},
{
closed = 1;
nodes = (
"330 662 OFFCURVE",
"351 640 OFFCURVE",
"385 640 CURVE SMOOTH",
"415 640 OFFCURVE",
"440 662 OFFCURVE",
"440 700 CURVE SMOOTH",
"440 738 OFFCURVE",
"419 760 OFFCURVE",
"385 760 CURVE SMOOTH",
"355 760 OFFCURVE",
"330 738 OFFCURVE",
"330 700 CURVE SMOOTH"
);
}
);
width = 570;
}
);
leftKerningGroup = o;
rightKerningGroup = o;
unicode = 00F6;
},
{
glyphname = omacron;
lastChange = "2014-11-10 22:19:58 +0100";
layers = (
{
layerId = UUID0;
name = Regular;
paths = (
{
closed = 1;
nodes = (
"145 540 OFFCURVE",
"40 430 OFFCURVE",
"40 260 CURVE SMOOTH",
"40 80 OFFCURVE",
"130 -10 OFFCURVE",
"280 -10 CURVE SMOOTH",
"430 -10 OFFCURVE",
"530 105 OFFCURVE",
"530 275 CURVE SMOOTH",
"530 435 OFFCURVE",
"445 540 OFFCURVE",
"295 540 CURVE SMOOTH"
);
},
{
closed = 1;
nodes = (
"390 460 OFFCURVE",
"425 380 OFFCURVE",
"425 270 CURVE SMOOTH",
"425 140 OFFCURVE",
"385 70 OFFCURVE",
"285 70 CURVE SMOOTH",
"185 70 OFFCURVE",
"145 145 OFFCURVE",
"145 265 CURVE SMOOTH",
"145 395 OFFCURVE",
"190 460 OFFCURVE",
"290 460 CURVE SMOOTH"
);
},
{
closed = 1;
nodes = (
"155 660 LINE",
"425 660 LINE",
"425 735 LINE",
"155 735 LINE"
);
}
);
width = 570;
}
);
leftKerningGroup = o;
rightKerningGroup = o;
unicode = 014D;
},
{
glyphname = oslash;
lastChange = "2014-11-10 22:19:58 +0100";
layers = (
{
layerId = UUID0;
name = Regular;
paths = (
{
closed = 1;
nodes = (
"50 -70 LINE",
"110 -105 LINE",
"178 9 LINE",
"209 -3 OFFCURVE",
"245 -10 OFFCURVE",
"285 -10 CURVE SMOOTH",
"435 -10 OFFCURVE",
"535 105 OFFCURVE",
"535 275 CURVE SMOOTH",
"535 363 OFFCURVE",
"509 435 OFFCURVE",
"460 481 CURVE",
"525 590 LINE",
"465 625 LINE",
"402 520 LINE",
"372 533 OFFCURVE",
"338 540 OFFCURVE",
"300 540 CURVE SMOOTH",
"150 540 OFFCURVE",
"45 430 OFFCURVE",
"45 260 CURVE SMOOTH",
"45 162 OFFCURVE",
"71 91 OFFCURVE",
"119 46 CURVE"
);
},
{
closed = 1;
nodes = (
"320 460 OFFCURVE",
"340 455 OFFCURVE",
"358 446 CURVE",
"173 137 LINE",
"157 169 OFFCURVE",
"150 213 OFFCURVE",
"150 265 CURVE SMOOTH",
"150 395 OFFCURVE",
"195 460 OFFCURVE",
"295 460 CURVE SMOOTH"
);
},
{
closed = 1;
nodes = (
"430 140 OFFCURVE",
"390 70 OFFCURVE",
"290 70 CURVE SMOOTH",
"264 70 OFFCURVE",
"242 75 OFFCURVE",
"223 85 CURVE",
"407 393 LINE",
"423 360 OFFCURVE",
"430 318 OFFCURVE",
"430 270 CURVE SMOOTH"
);
}
);
width = 580;
}
);
leftKerningGroup = o;
rightKerningGroup = o;
unicode = 00F8;
},
{
glyphname = otilde;
lastChange = "2014-11-10 22:19:58 +0100";
layers = (
{
layerId = UUID0;
name = Regular;
paths = (
{
closed = 1;
nodes = (
"145 540 OFFCURVE",
"40 430 OFFCURVE",
"40 260 CURVE SMOOTH",
"40 80 OFFCURVE",
"130 -10 OFFCURVE",
"280 -10 CURVE SMOOTH",
"430 -10 OFFCURVE",
"530 105 OFFCURVE",
"530 275 CURVE SMOOTH",
"530 435 OFFCURVE",
"445 540 OFFCURVE",
"295 540 CURVE SMOOTH"
);
},
{
closed = 1;
nodes = (
"390 460 OFFCURVE",
"425 380 OFFCURVE",
"425 270 CURVE SMOOTH",
"425 140 OFFCURVE",
"385 70 OFFCURVE",
"285 70 CURVE SMOOTH",
"185 70 OFFCURVE",
"145 145 OFFCURVE",
"145 265 CURVE SMOOTH",
"145 395 OFFCURVE",
"190 460 OFFCURVE",
"290 460 CURVE SMOOTH"
);
},
{
closed = 1;
nodes = (
"130 635 LINE",
"130 635 OFFCURVE",
"160 679 OFFCURVE",
"200 679 CURVE SMOOTH",
"260 679 OFFCURVE",
"300 635 OFFCURVE",
"370 635 CURVE SMOOTH",
"440 635 OFFCURVE",
"475 725 OFFCURVE",
"475 725 CURVE",
"440 760 LINE",
"440 760 OFFCURVE",
"415 718 OFFCURVE",
"375 718 CURVE SMOOTH",
"315 718 OFFCURVE",
"275 764 OFFCURVE",
"205 764 CURVE SMOOTH",
"135 764 OFFCURVE",
"95 670 OFFCURVE",
"95 670 CURVE"
);
}
);
width = 570;
}
);
leftKerningGroup = o;
rightKerningGroup = o;
unicode = 00F5;
},
{
glyphname = oe;
lastChange = "2014-11-10 22:19:58 +0100";
layers = (
{
layerId = UUID0;
name = Regular;
paths = (
{
closed = 1;
nodes = (
"145 540 OFFCURVE",
"40 430 OFFCURVE",
"40 260 CURVE SMOOTH",
"40 80 OFFCURVE",
"130 -10 OFFCURVE",
"280 -10 CURVE SMOOTH",
"374 -10 OFFCURVE",
"438 34 OFFCURVE",
"477 93 CURVE",
"512 30 OFFCURVE",
"572 -10 OFFCURVE",
"665 -10 CURVE SMOOTH",
"785 -10 OFFCURVE",
"878 73 OFFCURVE",
"878 73 CURVE",
"843 125 LINE",
"843 125 OFFCURVE",
"775 70 OFFCURVE",
"675 70 CURVE SMOOTH",
"589 70 OFFCURVE",
"530 140 OFFCURVE",
"530 250 CURVE",
"875 252 LINE",
"875 252 OFFCURVE",
"880 280 OFFCURVE",
"880 305 CURVE SMOOTH",
"880 455 OFFCURVE",
"815 540 OFFCURVE",
"670 540 CURVE SMOOTH",
"587 540 OFFCURVE",
"523 500 OFFCURVE",
"484 436 CURVE",
"445 498 OFFCURVE",
"380 540 OFFCURVE",
"295 540 CURVE SMOOTH"
);
},
{
closed = 1;
nodes = (
"390 460 OFFCURVE",
"430 380 OFFCURVE",
"430 270 CURVE SMOOTH",
"430 140 OFFCURVE",
"385 70 OFFCURVE",
"285 70 CURVE SMOOTH",
"185 70 OFFCURVE",
"145 145 OFFCURVE",
"145 265 CURVE SMOOTH",
"145 395 OFFCURVE",
"190 460 OFFCURVE",
"290 460 CURVE SMOOTH"
);
},
{
closed = 1;
nodes = (
"534 325 LINE",
"540 400 OFFCURVE",
"585 462 OFFCURVE",
"665 462 CURVE SMOOTH",
"745 462 OFFCURVE",
"774 400 OFFCURVE",
"774 325 CURVE"
);
}
);
width = 915;
}
);
leftKerningGroup = o;
rightKerningGroup = e;
unicode = 0153;
},
{
glyphname = p;
lastChange = "2014-11-10 22:19:58 +0100";
layers = (
{
layerId = UUID0;
name = Regular;
paths = (
{
closed = 1;
nodes = (
"195 530 LINE",
"25 525 LINE",
"25 470 LINE",
"110 450 LINE",
"110 -155 LINE",
"30 -175 LINE",
"30 -230 LINE",
"315 -230 LINE",
"315 -175 LINE",
"210 -155 LINE",
"210 4 LINE",
"237 -4 OFFCURVE",
"267 -10 OFFCURVE",
"300 -10 CURVE SMOOTH",
"485 -10 OFFCURVE",
"570 110 OFFCURVE",
"570 280 CURVE SMOOTH",
"570 435 OFFCURVE",
"500 540 OFFCURVE",
"355 540 CURVE SMOOTH",
"286 540 OFFCURVE",
"233 502 OFFCURVE",
"203 474 CURVE"
);
},
{
closed = 1;
nodes = (
"210 390 LINE",
"210 390 OFFCURVE",
"245 460 OFFCURVE",
"335 460 CURVE SMOOTH",
"425 460 OFFCURVE",
"465 380 OFFCURVE",
"465 270 CURVE SMOOTH",
"465 160 OFFCURVE",
"431 70 OFFCURVE",
"315 70 CURVE SMOOTH",
"240 70 OFFCURVE",
"210 90 OFFCURVE",
"210 90 CURVE"
);
}
);
width = 615;
}
);
leftKerningGroup = p;
rightKerningGroup = o;
unicode = 0070;
},
{
glyphname = thorn;
lastChange = "2014-11-10 22:19:58 +0100";
layers = (
{
layerId = UUID0;
name = Regular;
paths = (
{
closed = 1;
nodes = (
"315 -175 LINE",
"210 -155 LINE",
"210 4 LINE",
"210 4 OFFCURVE",
"250 -10 OFFCURVE",
"300 -10 CURVE SMOOTH",
"485 -10 OFFCURVE",
"570 110 OFFCURVE",
"570 280 CURVE SMOOTH",
"570 435 OFFCURVE",
"500 540 OFFCURVE",
"355 540 CURVE SMOOTH",
"275 540 OFFCURVE",
"210 480 OFFCURVE",
"210 480 CURVE",
"210 770 LINE",
"25 765 LINE",
"25 710 LINE",
"110 690 LINE",
"110 -155 LINE",
"30 -175 LINE",
"30 -230 LINE",
"315 -230 LINE"
);
},
{
closed = 1;
nodes = (
"210 390 LINE",
"210 390 OFFCURVE",
"245 460 OFFCURVE",
"335 460 CURVE SMOOTH",
"425 460 OFFCURVE",
"465 380 OFFCURVE",
"465 270 CURVE SMOOTH",
"465 160 OFFCURVE",
"431 70 OFFCURVE",
"315 70 CURVE SMOOTH",
"240 70 OFFCURVE",
"210 90 OFFCURVE",
"210 90 CURVE"
);
}
);
width = 615;
}
);
leftKerningGroup = l;
rightKerningGroup = o;
unicode = 00FE;
},
{
glyphname = q;
lastChange = "2014-11-10 22:19:58 +0100";
layers = (
{
layerId = UUID0;
name = Regular;
paths = (
{
closed = 1;
nodes = (
"305 -230 LINE",
"585 -230 LINE",
"585 -175 LINE",
"505 -155 LINE",
"505 520 LINE",
"505 520 OFFCURVE",
"430 540 OFFCURVE",
"320 540 CURVE SMOOTH",
"140 540 OFFCURVE",
"45 420 OFFCURVE",
"45 250 CURVE SMOOTH",
"45 90 OFFCURVE",
"105 -10 OFFCURVE",
"255 -10 CURVE SMOOTH",
"319 -10 OFFCURVE",
"372 22 OFFCURVE",
"405 48 CURVE",
"405 -155 LINE",
"305 -175 LINE"
);
},
{
closed = 1;
nodes = (
"405 135 LINE",
"405 135 OFFCURVE",
"365 70 OFFCURVE",
"275 70 CURVE SMOOTH",
"185 70 OFFCURVE",
"150 150 OFFCURVE",
"150 260 CURVE SMOOTH",
"150 370 OFFCURVE",
"189 460 OFFCURVE",
"305 460 CURVE SMOOTH",
"375 460 OFFCURVE",
"405 450 OFFCURVE",
"405 450 CURVE"
);
}
);
width = 580;
}
);
leftKerningGroup = o;
rightKerningGroup = q;
unicode = 0071;
},
{
glyphname = r;
lastChange = "2014-11-10 22:19:58 +0100";
layers = (
{
layerId = UUID0;
name = Regular;
paths = (
{
closed = 1;
nodes = (
"205 530 LINE",
"40 525 LINE",
"40 470 LINE",
"125 450 LINE",
"125 80 LINE",
"40 55 LINE",
"40 0 LINE",
"325 0 LINE",
"325 55 LINE",
"225 80 LINE",
"225 377 LINE",
"247 406 OFFCURVE",
"295 455 OFFCURVE",
"370 455 CURVE",
"385 380 LINE",
"450 380 LINE",
"455 525 LINE",
"455 525 OFFCURVE",
"415 540 OFFCURVE",
"365 540 CURVE",
"297 540 OFFCURVE",
"239 485 OFFCURVE",
"214 457 CURVE"
);
}
);
width = 465;
}
);
leftKerningGroup = n;
rightKerningGroup = r;
unicode = 0072;
},
{
glyphname = s;
lastChange = "2014-11-10 22:19:58 +0100";
layers = (
{
layerId = UUID0;
name = Regular;
paths = (
{
closed = 1;
nodes = (
"46 160 LINE",
"46 12 LINE",
"46 12 OFFCURVE",
"112 -10 OFFCURVE",
"204 -10 CURVE SMOOTH",
"324 -10 OFFCURVE",
"424 46 OFFCURVE",
"424 161 CURVE SMOOTH",
"424 332 OFFCURVE",
"145 291 OFFCURVE",
"145 398 CURVE SMOOTH",
"145 449 OFFCURVE",
"183 465 OFFCURVE",
"234 465 CURVE SMOOTH",
"284 465 OFFCURVE",
"315 453 OFFCURVE",
"315 453 CURVE",
"331 375 LINE",
"396 375 LINE",
"399 510 LINE",
"399 510 OFFCURVE",
"307 540 OFFCURVE",
"228 540 CURVE SMOOTH",
"125 540 OFFCURVE",
"45 488 OFFCURVE",
"45 384 CURVE SMOOTH",
"45 202 OFFCURVE",
"324 252 OFFCURVE",
"324 144 CURVE SMOOTH",
"324 82 OFFCURVE",
"271 65 OFFCURVE",
"211 65 CURVE SMOOTH",
"157 65 OFFCURVE",
"127 74 OFFCURVE",
"127 74 CURVE",
"116 160 LINE"
);
}
);
width = 469;
}
);
leftKerningGroup = s;
rightKerningGroup = s;
unicode = 0073;
},
{
glyphname = scedilla;
lastChange = "2014-11-10 22:19:58 +0100";
layers = (
{
layerId = UUID0;
name = Regular;
paths = (
{
closed = 1;
nodes = (
"46 160 LINE",
"46 12 LINE",
"46 12 OFFCURVE",
"102 -6 OFFCURVE",
"183 -9 CURVE",
"183 -79 LINE",
"234 -79 OFFCURVE",
"265 -97 OFFCURVE",
"265 -128 CURVE SMOOTH",
"265 -154 OFFCURVE",
"243 -171 OFFCURVE",
"210 -171 CURVE SMOOTH",
"174 -171 OFFCURVE",
"133 -150 OFFCURVE",
"133 -150 CURVE",
"109 -191 LINE",
"109 -191 OFFCURVE",
"156 -219 OFFCURVE",
"221 -219 CURVE SMOOTH",
"286 -219 OFFCURVE",
"330 -183 OFFCURVE",
"330 -130 CURVE SMOOTH",
"330 -84 OFFCURVE",
"297 -52 OFFCURVE",
"243 -43 CURVE",
"243 -8 LINE",
"345 3 OFFCURVE",
"424 58 OFFCURVE",
"424 161 CURVE SMOOTH",
"424 332 OFFCURVE",
"145 291 OFFCURVE",
"145 398 CURVE SMOOTH",
"145 449 OFFCURVE",
"183 465 OFFCURVE",
"234 465 CURVE SMOOTH",
"284 465 OFFCURVE",
"315 453 OFFCURVE",
"315 453 CURVE",
"331 375 LINE",
"396 375 LINE",
"399 510 LINE",
"399 510 OFFCURVE",
"307 540 OFFCURVE",
"228 540 CURVE SMOOTH",
"125 540 OFFCURVE",
"45 488 OFFCURVE",
"45 384 CURVE SMOOTH",
"45 202 OFFCURVE",
"324 252 OFFCURVE",
"324 144 CURVE SMOOTH",
"324 82 OFFCURVE",
"271 65 OFFCURVE",
"211 65 CURVE SMOOTH",
"157 65 OFFCURVE",
"126 74 OFFCURVE",
"126 74 CURVE",
"115 160 LINE"
);
}
);
width = 469;
}
);
leftKerningGroup = s;
rightKerningGroup = s;
unicode = 015F;
},
{
glyphname = scircumflex;
lastChange = "2014-11-10 22:19:58 +0100";
layers = (
{
layerId = UUID0;
name = Regular;
paths = (
{
closed = 1;
nodes = (
"235 710 LINE",
"375 600 LINE",
"417 645 LINE",
"265 785 LINE",
"205 785 LINE",
"60 645 LINE",
"95 600 LINE"
);
},
{
closed = 1;
nodes = (
"46 160 LINE",
"46 12 LINE",
"46 12 OFFCURVE",
"112 -10 OFFCURVE",
"204 -10 CURVE SMOOTH",
"324 -10 OFFCURVE",
"424 46 OFFCURVE",
"424 161 CURVE SMOOTH",
"424 332 OFFCURVE",
"145 291 OFFCURVE",
"145 398 CURVE SMOOTH",
"145 449 OFFCURVE",
"183 465 OFFCURVE",
"234 465 CURVE SMOOTH",
"284 465 OFFCURVE",
"315 453 OFFCURVE",
"315 453 CURVE",
"331 375 LINE",
"396 375 LINE",
"399 510 LINE",
"399 510 OFFCURVE",
"307 540 OFFCURVE",
"228 540 CURVE SMOOTH",
"125 540 OFFCURVE",
"45 488 OFFCURVE",
"45 384 CURVE SMOOTH",
"45 202 OFFCURVE",
"324 252 OFFCURVE",
"324 144 CURVE SMOOTH",
"324 82 OFFCURVE",
"271 65 OFFCURVE",
"211 65 CURVE SMOOTH",
"157 65 OFFCURVE",
"126 74 OFFCURVE",
"126 74 CURVE",
"115 160 LINE"
);
}
);
width = 469;
}
);
leftKerningGroup = s;
rightKerningGroup = s;
unicode = 015D;
},
{
glyphname = germandbls;
lastChange = "2014-11-10 22:19:58 +0100";
layers = (
{
layerId = UUID0;
name = Regular;
paths = (
{
closed = 1;
nodes = (
"30 450 LINE",
"135 450 LINE",
"135 80 LINE",
"50 55 LINE",
"50 0 LINE",
"235 0 LINE",
"235 600 LINE SMOOTH",
"235 665 OFFCURVE",
"285 705 OFFCURVE",
"355 705 CURVE SMOOTH",
"420 705 OFFCURVE",
"485 685 OFFCURVE",
"485 615 CURVE SMOOTH",
"485 520 OFFCURVE",
"350 515 OFFCURVE",
"350 395 CURVE SMOOTH",
"350 215 OFFCURVE",
"576 255 OFFCURVE",
"580 145 CURVE SMOOTH",
"582 91 OFFCURVE",
"534 67 OFFCURVE",
"479 65 CURVE SMOOTH",
"431 63 OFFCURVE",
"410 75 OFFCURVE",
"410 75 CURVE",
"395 156 LINE",
"330 156 LINE",
"331 12 LINE",
"331 12 OFFCURVE",
"393 -10 OFFCURVE",
"478 -10 CURVE SMOOTH",
"583 -10 OFFCURVE",
"687 60 OFFCURVE",
"685 165 CURVE SMOOTH",
"682 330 OFFCURVE",
"454 300 OFFCURVE",
"454 410 CURVE SMOOTH",
"454 485 OFFCURVE",
"585 510 OFFCURVE",
"585 625 CURVE SMOOTH",
"585 735 OFFCURVE",
"485 780 OFFCURVE",
"350 780 CURVE SMOOTH",
"220 780 OFFCURVE",
"135 705 OFFCURVE",
"135 580 CURVE SMOOTH",
"135 525 LINE",
"30 515 LINE"
);
}
);
width = 700;
}
);
leftKerningGroup = f;
unicode = 00DF;
},
{
glyphname = longs;
lastChange = "2014-11-10 22:19:58 +0100";
layers = (
{
layerId = UUID0;
name = Regular;
paths = (
{
closed = 1;
nodes = (
"155 80 LINE",
"70 55 LINE",
"70 0 LINE",
"352 0 LINE",
"352 55 LINE",
"255 80 LINE",
"255 605 LINE SMOOTH",
"255 665 OFFCURVE",
"275 705 OFFCURVE",
"345 705 CURVE SMOOTH",
"380 705 OFFCURVE",
"400 700 OFFCURVE",
"400 700 CURVE",
"415 620 LINE",
"485 620 LINE",
"485 745 LINE",
"485 745 OFFCURVE",
"435 780 OFFCURVE",
"340 780 CURVE SMOOTH",
"220 780 OFFCURVE",
"155 705 OFFCURVE",
"155 585 CURVE SMOOTH"
);
}
);
width = 430;
}
);
leftKerningGroup = germandbls;
rightKerningGroup = f;
unicode = 017F;
},
{
glyphname = t;
lastChange = "2014-11-10 22:19:58 +0100";
layers = (
{
layerId = UUID0;
name = Regular;
paths = (
{
closed = 1;
nodes = (
"220 671 LINE",
"120 651 LINE",
"120 525 LINE",
"20 515 LINE",
"20 450 LINE",
"120 450 LINE",
"120 135 LINE SMOOTH",
"120 23 OFFCURVE",
"175 -10 OFFCURVE",
"235 -10 CURVE SMOOTH",
"285 -10 OFFCURVE",
"330 7 OFFCURVE",
"375 40 CURVE",
"348 93 LINE",
"322 79 OFFCURVE",
"294 68 OFFCURVE",
"270 68 CURVE SMOOTH",
"242 68 OFFCURVE",
"220 83 OFFCURVE",
"220 129 CURVE SMOOTH",
"220 450 LINE",
"365 450 LINE",
"365 525 LINE",
"220 525 LINE"
);
}
);
width = 395;
}
);
leftKerningGroup = t;
rightKerningGroup = t;
unicode = 0074;
},
{
glyphname = tbar;
lastChange = "2014-11-10 22:19:58 +0100";
layers = (
{
layerId = UUID0;
name = Regular;
paths = (
{
closed = 1;
nodes = (
"225 671 LINE",
"125 651 LINE",
"125 525 LINE",
"25 515 LINE",
"25 450 LINE",
"125 450 LINE",
"125 340 LINE",
"25 340 LINE",
"25 265 LINE",
"125 265 LINE",
"125 135 LINE SMOOTH",
"125 23 OFFCURVE",
"180 -10 OFFCURVE",
"240 -10 CURVE SMOOTH",
"290 -10 OFFCURVE",
"335 7 OFFCURVE",
"380 40 CURVE",
"353 93 LINE",
"327 79 OFFCURVE",
"299 68 OFFCURVE",
"275 68 CURVE SMOOTH",
"247 68 OFFCURVE",
"225 83 OFFCURVE",
"225 129 CURVE SMOOTH",
"225 265 LINE",
"370 265 LINE",
"370 340 LINE",
"225 340 LINE",
"225 450 LINE",
"370 450 LINE",
"370 525 LINE",
"225 525 LINE"
);
}
);
width = 405;
}
);
leftKerningGroup = t;
rightKerningGroup = t;
unicode = 0167;
},
{
glyphname = tcedilla;
lastChange = "2014-11-10 22:19:58 +0100";
layers = (
{
layerId = UUID0;
name = Regular;
paths = (
{
closed = 1;
nodes = (
"220 671 LINE",
"120 651 LINE",
"120 525 LINE",
"20 515 LINE",
"20 450 LINE",
"120 450 LINE",
"120 135 LINE SMOOTH",
"120 53 OFFCURVE",
"149 13 OFFCURVE",
"189 -2 CURVE",
"189 -79 LINE",
"240 -79 OFFCURVE",
"271 -97 OFFCURVE",
"271 -128 CURVE SMOOTH",
"271 -154 OFFCURVE",
"249 -171 OFFCURVE",
"216 -171 CURVE SMOOTH",
"180 -171 OFFCURVE",
"139 -150 OFFCURVE",
"139 -150 CURVE",
"115 -191 LINE",
"115 -191 OFFCURVE",
"162 -219 OFFCURVE",
"227 -219 CURVE SMOOTH",
"292 -219 OFFCURVE",
"336 -183 OFFCURVE",
"336 -130 CURVE SMOOTH",
"336 -84 OFFCURVE",
"303 -52 OFFCURVE",
"249 -43 CURVE",
"249 -9 LINE",
"293 -6 OFFCURVE",
"334 10 OFFCURVE",
"375 40 CURVE",
"348 93 LINE",
"322 79 OFFCURVE",
"294 68 OFFCURVE",
"270 68 CURVE SMOOTH",
"242 68 OFFCURVE",
"220 83 OFFCURVE",
"220 129 CURVE SMOOTH",
"220 450 LINE",
"365 450 LINE",
"365 525 LINE",
"220 525 LINE"
);
}
);
width = 395;
}
);
leftKerningGroup = t;
rightKerningGroup = t;
unicode = 0163;
},
{
glyphname = u;
lastChange = "2014-11-10 22:19:58 +0100";
layers = (
{
layerId = UUID0;
name = Regular;
paths = (
{
closed = 1;
nodes = (
"540 530 LINE",
"355 525 LINE",
"355 470 LINE",
"440 450 LINE",
"440 154 LINE",
"440 154 OFFCURVE",
"380 75 OFFCURVE",
"295 75 CURVE SMOOTH",
"230 75 OFFCURVE",
"205 109 OFFCURVE",
"205 179 CURVE SMOOTH",
"205 530 LINE",
"20 525 LINE",
"20 470 LINE",
"105 450 LINE",
"105 169 LINE SMOOTH",
"105 59 OFFCURVE",
"155 -10 OFFCURVE",
"265 -10 CURVE SMOOTH",
"347 -10 OFFCURVE",
"426 49 OFFCURVE",
"450 70 CURVE",
"460 0 LINE",
"625 5 LINE",
"625 60 LINE",
"540 80 LINE"
);
}
);
width = 650;
}
);
leftKerningGroup = u;
rightKerningGroup = u;
unicode = 0075;
},
{
glyphname = ucircumflex;
lastChange = "2014-11-10 22:19:58 +0100";
layers = (
{
layerId = UUID0;
name = Regular;
paths = (
{
closed = 1;
nodes = (
"465 600 LINE",
"505 645 LINE",
"355 785 LINE",
"295 780 LINE",
"145 645 LINE",
"185 600 LINE",
"327 708 LINE"
);
},
{
closed = 1;
nodes = (
"540 530 LINE",
"355 525 LINE",
"355 470 LINE",
"440 450 LINE",
"440 154 LINE",
"440 154 OFFCURVE",
"380 75 OFFCURVE",
"295 75 CURVE SMOOTH",
"230 75 OFFCURVE",
"205 109 OFFCURVE",
"205 179 CURVE SMOOTH",
"205 530 LINE",
"20 525 LINE",
"20 470 LINE",
"105 450 LINE",
"105 169 LINE SMOOTH",
"105 59 OFFCURVE",
"155 -10 OFFCURVE",
"265 -10 CURVE SMOOTH",
"347 -10 OFFCURVE",
"426 49 OFFCURVE",
"450 70 CURVE",
"460 0 LINE",
"625 5 LINE",
"625 60 LINE",
"540 80 LINE"
);
}
);
width = 650;
}
);
leftKerningGroup = u;
rightKerningGroup = u;
unicode = 00FB;
},
{
glyphname = udieresis;
lastChange = "2014-11-10 22:19:58 +0100";
layers = (
{
layerId = UUID0;
name = Regular;
paths = (
{
closed = 1;
nodes = (
"540 530 LINE",
"355 525 LINE",
"355 470 LINE",
"440 450 LINE",
"440 154 LINE",
"440 154 OFFCURVE",
"380 75 OFFCURVE",
"295 75 CURVE SMOOTH",
"230 75 OFFCURVE",
"205 109 OFFCURVE",
"205 179 CURVE SMOOTH",
"205 530 LINE",
"20 525 LINE",
"20 470 LINE",
"105 450 LINE",
"105 169 LINE SMOOTH",
"105 59 OFFCURVE",
"155 -10 OFFCURVE",
"265 -10 CURVE SMOOTH",
"347 -10 OFFCURVE",
"426 49 OFFCURVE",
"450 70 CURVE",
"460 0 LINE",
"625 5 LINE",
"625 60 LINE",
"540 80 LINE"
);
},
{
closed = 1;
nodes = (
"155 662 OFFCURVE",
"176 640 OFFCURVE",
"210 640 CURVE SMOOTH",
"240 640 OFFCURVE",
"265 662 OFFCURVE",
"265 700 CURVE SMOOTH",
"265 738 OFFCURVE",
"244 760 OFFCURVE",
"210 760 CURVE SMOOTH",
"180 760 OFFCURVE",
"155 738 OFFCURVE",
"155 700 CURVE SMOOTH"
);
},
{
closed = 1;
nodes = (
"360 662 OFFCURVE",
"381 640 OFFCURVE",
"415 640 CURVE SMOOTH",
"445 640 OFFCURVE",
"470 662 OFFCURVE",
"470 700 CURVE SMOOTH",
"470 738 OFFCURVE",
"449 760 OFFCURVE",
"415 760 CURVE SMOOTH",
"385 760 OFFCURVE",
"360 738 OFFCURVE",
"360 700 CURVE SMOOTH"
);
}
);
width = 650;
}
);
leftKerningGroup = u;
rightKerningGroup = u;
unicode = 00FC;
},
{
glyphname = umacron;
lastChange = "2014-11-10 22:19:58 +0100";
layers = (
{
layerId = UUID0;
name = Regular;
paths = (
{
closed = 1;
nodes = (
"540 530 LINE",
"355 525 LINE",
"355 470 LINE",
"440 450 LINE",
"440 154 LINE",
"440 154 OFFCURVE",
"380 75 OFFCURVE",
"295 75 CURVE SMOOTH",
"230 75 OFFCURVE",
"205 109 OFFCURVE",
"205 179 CURVE SMOOTH",
"205 530 LINE",
"20 525 LINE",
"20 470 LINE",
"105 450 LINE",
"105 169 LINE SMOOTH",
"105 59 OFFCURVE",
"155 -10 OFFCURVE",
"265 -10 CURVE SMOOTH",
"347 -10 OFFCURVE",
"426 49 OFFCURVE",
"450 70 CURVE",
"460 0 LINE",
"625 5 LINE",
"625 60 LINE",
"540 80 LINE"
);
},
{
closed = 1;
nodes = (
"186 660 LINE",
"456 660 LINE",
"456 735 LINE",
"186 735 LINE"
);
}
);
width = 650;
}
);
leftKerningGroup = u;
rightKerningGroup = u;
unicode = 016B;
},
{
glyphname = uogonek;
lastChange = "2014-11-10 22:19:58 +0100";
layers = (
{
layerId = UUID0;
name = Regular;
paths = (
{
closed = 1;
nodes = (
"625 60 LINE",
"540 80 LINE",
"540 530 LINE",
"355 525 LINE",
"355 470 LINE",
"440 450 LINE",
"440 154 LINE",
"440 154 OFFCURVE",
"380 75 OFFCURVE",
"295 75 CURVE SMOOTH",
"230 75 OFFCURVE",
"205 109 OFFCURVE",
"205 179 CURVE SMOOTH",
"205 530 LINE",
"20 525 LINE",
"20 470 LINE",
"105 450 LINE",
"105 169 LINE SMOOTH",
"105 59 OFFCURVE",
"155 -10 OFFCURVE",
"265 -10 CURVE SMOOTH",
"347 -10 OFFCURVE",
"426 49 OFFCURVE",
"450 70 CURVE",
"460 0 LINE",
"528 2 LINE",
"505 -8 OFFCURVE",
"425 -51 OFFCURVE",
"425 -125 CURVE SMOOTH",
"425 -185 OFFCURVE",
"470 -220 OFFCURVE",
"525 -220 CURVE SMOOTH",
"565 -220 OFFCURVE",
"605 -200 OFFCURVE",
"605 -200 CURVE",
"595 -153 LINE",
"595 -153 OFFCURVE",
"570 -160 OFFCURVE",
"550 -160 CURVE SMOOTH",
"525 -160 OFFCURVE",
"505 -145 OFFCURVE",
"505 -115 CURVE SMOOTH",
"505 -50 OFFCURVE",
"625 5 OFFCURVE",
"625 5 CURVE"
);
}
);
width = 650;
}
);
leftKerningGroup = u;
rightKerningGroup = u;
unicode = 0173;
},
{
glyphname = uring;
lastChange = "2014-11-10 22:19:58 +0100";
layers = (
{
layerId = UUID0;
name = Regular;
paths = (
{
closed = 1;
nodes = (
"540 530 LINE",
"355 525 LINE",
"355 470 LINE",
"440 450 LINE",
"440 154 LINE",
"440 154 OFFCURVE",
"380 75 OFFCURVE",
"295 75 CURVE SMOOTH",
"230 75 OFFCURVE",
"205 109 OFFCURVE",
"205 179 CURVE SMOOTH",
"205 530 LINE",
"20 525 LINE",
"20 470 LINE",
"105 450 LINE",
"105 169 LINE SMOOTH",
"105 59 OFFCURVE",
"155 -10 OFFCURVE",
"265 -10 CURVE SMOOTH",
"347 -10 OFFCURVE",
"426 49 OFFCURVE",
"450 70 CURVE",
"460 0 LINE",
"625 5 LINE",
"625 60 LINE",
"540 80 LINE"
);
},
{
closed = 1;
nodes = (
"195 629 OFFCURVE",
"253 590 OFFCURVE",
"310 590 CURVE SMOOTH",
"367 590 OFFCURVE",
"425 634 OFFCURVE",
"425 705 CURVE SMOOTH",
"425 776 OFFCURVE",
"367 815 OFFCURVE",
"310 815 CURVE SMOOTH",
"253 815 OFFCURVE",
"195 771 OFFCURVE",
"195 700 CURVE SMOOTH"
);
},
{
closed = 1;
nodes = (
"255 742 OFFCURVE",
"279 765 OFFCURVE",
"310 765 CURVE SMOOTH",
"345 765 OFFCURVE",
"365 743 OFFCURVE",
"365 703 CURVE SMOOTH",
"365 663 OFFCURVE",
"341 640 OFFCURVE",
"310 640 CURVE SMOOTH",
"275 640 OFFCURVE",
"255 662 OFFCURVE",
"255 702 CURVE SMOOTH"
);
}
);
width = 650;
}
);
leftKerningGroup = u;
rightKerningGroup = u;
unicode = 016F;
},
{
glyphname = utilde;
lastChange = "2014-11-10 22:19:58 +0100";
layers = (
{
layerId = UUID0;
name = Regular;
paths = (
{
closed = 1;
nodes = (
"158 636 LINE",
"158 636 OFFCURVE",
"185 680 OFFCURVE",
"228 680 CURVE SMOOTH",
"288 680 OFFCURVE",
"325 635 OFFCURVE",
"395 635 CURVE SMOOTH",
"468 635 OFFCURVE",
"503 726 OFFCURVE",
"503 726 CURVE",
"468 761 LINE",
"468 761 OFFCURVE",
"437 719 OFFCURVE",
"400 719 CURVE SMOOTH",
"340 719 OFFCURVE",
"303 764 OFFCURVE",
"233 764 CURVE SMOOTH",
"160 764 OFFCURVE",
"123 671 OFFCURVE",
"123 671 CURVE"
);
},
{
closed = 1;
nodes = (
"540 530 LINE",
"355 525 LINE",
"355 470 LINE",
"440 450 LINE",
"440 154 LINE",
"440 154 OFFCURVE",
"380 75 OFFCURVE",
"295 75 CURVE SMOOTH",
"230 75 OFFCURVE",
"205 109 OFFCURVE",
"205 179 CURVE SMOOTH",
"205 530 LINE",
"20 525 LINE",
"20 470 LINE",
"105 450 LINE",
"105 169 LINE SMOOTH",
"105 59 OFFCURVE",
"155 -10 OFFCURVE",
"265 -10 CURVE SMOOTH",
"347 -10 OFFCURVE",
"426 49 OFFCURVE",
"450 70 CURVE",
"460 0 LINE",
"625 5 LINE",
"625 60 LINE",
"540 80 LINE"
);
}
);
width = 650;
}
);
leftKerningGroup = u;
rightKerningGroup = u;
unicode = 0169;
},
{
glyphname = v;
lastChange = "2014-11-10 22:19:58 +0100";
layers = (
{
layerId = UUID0;
name = Regular;
paths = (
{
closed = 1;
nodes = (
"230 530 LINE",
"5 525 LINE",
"5 470 LINE",
"55 455 LINE",
"219 0 LINE",
"329 0 LINE",
"499 460 LINE",
"554 470 LINE",
"554 530 LINE",
"330 525 LINE",
"330 470 LINE",
"399 455 LINE",
"279 90 LINE",
"160 460 LINE",
"230 470 LINE"
);
}
);
width = 559;
}
);
leftKerningGroup = v;
rightKerningGroup = v;
unicode = 0076;
},
{
glyphname = w;
lastChange = "2014-11-10 22:19:58 +0100";
layers = (
{
layerId = UUID0;
name = Regular;
paths = (
{
closed = 1;
nodes = (
"230 530 LINE",
"5 525 LINE",
"5 470 LINE",
"55 455 LINE",
"180 0 LINE",
"295 0 LINE",
"390 310 LINE",
"411 406 LINE",
"435 310 LINE",
"530 0 LINE",
"645 0 LINE",
"767 460 LINE",
"825 470 LINE",
"825 530 LINE",
"600 525 LINE",
"600 470 LINE",
"670 455 LINE",
"590 90 LINE",
"466 540 LINE",
"371 525 LINE",
"240 90 LINE",
"155 460 LINE",
"230 470 LINE"
);
}
);
width = 830;
}
);
leftKerningGroup = v;
rightKerningGroup = v;
unicode = 0077;
},
{
glyphname = wcircumflex;
lastChange = "2014-11-10 22:19:58 +0100";
layers = (
{
layerId = UUID0;
name = Regular;
paths = (
{
closed = 1;
nodes = (
"425 710 LINE",
"565 600 LINE",
"607 645 LINE",
"455 785 LINE",
"395 785 LINE",
"250 645 LINE",
"285 600 LINE"
);
},
{
closed = 1;
nodes = (
"230 530 LINE",
"5 525 LINE",
"5 470 LINE",
"55 455 LINE",
"180 0 LINE",
"295 0 LINE",
"390 310 LINE",
"411 406 LINE",
"435 310 LINE",
"530 0 LINE",
"645 0 LINE",
"767 460 LINE",
"825 470 LINE",
"825 530 LINE",
"600 525 LINE",
"600 470 LINE",
"670 455 LINE",
"590 90 LINE",
"466 540 LINE",
"371 525 LINE",
"240 90 LINE",
"155 460 LINE",
"230 470 LINE"
);
}
);
width = 830;
}
);
leftKerningGroup = v;
rightKerningGroup = v;
unicode = 0175;
},
{
glyphname = wdieresis;
lastChange = "2014-11-10 22:19:58 +0100";
layers = (
{
layerId = UUID0;
name = Regular;
paths = (
{
closed = 1;
nodes = (
"230 530 LINE",
"5 525 LINE",
"5 470 LINE",
"55 455 LINE",
"180 0 LINE",
"295 0 LINE",
"390 310 LINE",
"411 406 LINE",
"435 310 LINE",
"530 0 LINE",
"645 0 LINE",
"767 460 LINE",
"825 470 LINE",
"825 530 LINE",
"600 525 LINE",
"600 470 LINE",
"670 455 LINE",
"590 90 LINE",
"466 540 LINE",
"371 525 LINE",
"240 90 LINE",
"155 460 LINE",
"230 470 LINE"
);
},
{
closed = 1;
nodes = (
"265 662 OFFCURVE",
"286 640 OFFCURVE",
"320 640 CURVE SMOOTH",
"350 640 OFFCURVE",
"375 662 OFFCURVE",
"375 700 CURVE SMOOTH",
"375 738 OFFCURVE",
"354 760 OFFCURVE",
"320 760 CURVE SMOOTH",
"290 760 OFFCURVE",
"265 738 OFFCURVE",
"265 700 CURVE SMOOTH"
);
},
{
closed = 1;
nodes = (
"470 662 OFFCURVE",
"491 640 OFFCURVE",
"525 640 CURVE SMOOTH",
"555 640 OFFCURVE",
"580 662 OFFCURVE",
"580 700 CURVE SMOOTH",
"580 738 OFFCURVE",
"559 760 OFFCURVE",
"525 760 CURVE SMOOTH",
"495 760 OFFCURVE",
"470 738 OFFCURVE",
"470 700 CURVE SMOOTH"
);
}
);
width = 830;
}
);
leftKerningGroup = v;
rightKerningGroup = v;
unicode = 1E85;
},
{
glyphname = x;
lastChange = "2014-11-10 22:19:58 +0100";
layers = (
{
layerId = UUID0;
name = Regular;
paths = (
{
closed = 1;
nodes = (
"243 530 LINE",
"15 525 LINE",
"15 470 LINE",
"92 456 LINE",
"220 265 LINE",
"93 78 LINE",
"5 55 LINE",
"5 0 LINE",
"150 0 LINE",
"274 199 LINE",
"356 67 LINE",
"316 55 LINE",
"316 0 LINE",
"560 0 LINE",
"560 55 LINE",
"468 78 LINE",
"340 270 LINE",
"465 455 LINE",
"550 470 LINE",
"550 530 LINE",
"405 525 LINE",
"285 335 LINE",
"208 464 LINE",
"243 470 LINE"
);
}
);
width = 565;
}
);
leftKerningGroup = x;
rightKerningGroup = x;
unicode = 0078;
},
{
glyphname = y;
lastChange = "2014-11-10 22:19:58 +0100";
layers = (
{
layerId = UUID0;
name = Regular;
paths = (
{
closed = 1;
nodes = (
"245 530 LINE",
"10 525 LINE",
"10 470 LINE",
"70 455 LINE",
"249 -2 LINE",
"205 -99 OFFCURVE",
"160 -165 OFFCURVE",
"90 -165 CURVE SMOOTH",
"40 -165 LINE",
"31 -235 LINE",
"31 -235 OFFCURVE",
"70 -240 OFFCURVE",
"95 -240 CURVE SMOOTH",
"260 -240 OFFCURVE",
"312 -75 OFFCURVE",
"365 64 CURVE",
"507 460 LINE",
"572 470 LINE",
"572 530 LINE",
"335 525 LINE",
"335 470 LINE",
"405 455 LINE",
"295 110 LINE",
"175 460 LINE",
"245 470 LINE"
);
}
);
width = 577;
}
);
leftKerningGroup = y;
rightKerningGroup = y;
unicode = 0079;
},
{
glyphname = ycircumflex;
lastChange = "2014-11-10 22:19:58 +0100";
layers = (
{
layerId = UUID0;
name = Regular;
paths = (
{
closed = 1;
nodes = (
"286 710 LINE",
"426 600 LINE",
"468 645 LINE",
"316 785 LINE",
"256 785 LINE",
"111 645 LINE",
"146 600 LINE"
);
},
{
closed = 1;
nodes = (
"245 530 LINE",
"10 525 LINE",
"10 470 LINE",
"70 455 LINE",
"249 -2 LINE",
"205 -99 OFFCURVE",
"160 -165 OFFCURVE",
"90 -165 CURVE SMOOTH",
"40 -165 LINE",
"31 -235 LINE",
"31 -235 OFFCURVE",
"70 -240 OFFCURVE",
"95 -240 CURVE SMOOTH",
"260 -240 OFFCURVE",
"312 -75 OFFCURVE",
"365 64 CURVE",
"507 460 LINE",
"572 470 LINE",
"572 530 LINE",
"335 525 LINE",
"335 470 LINE",
"405 455 LINE",
"295 110 LINE",
"175 460 LINE",
"245 470 LINE"
);
}
);
width = 577;
}
);
leftKerningGroup = y;
rightKerningGroup = y;
unicode = 0177;
},
{
glyphname = ydieresis;
lastChange = "2014-11-10 22:19:58 +0100";
layers = (
{
layerId = UUID0;
name = Regular;
paths = (
{
closed = 1;
nodes = (
"70 455 LINE",
"249 -2 LINE",
"205 -99 OFFCURVE",
"160 -165 OFFCURVE",
"90 -165 CURVE SMOOTH",
"40 -165 LINE",
"31 -235 LINE",
"31 -235 OFFCURVE",
"70 -240 OFFCURVE",
"95 -240 CURVE SMOOTH",
"260 -240 OFFCURVE",
"312 -75 OFFCURVE",
"365 64 CURVE",
"507 460 LINE",
"572 470 LINE",
"572 530 LINE",
"335 525 LINE",
"335 470 LINE",
"405 455 LINE",
"295 110 LINE",
"175 460 LINE",
"245 470 LINE",
"245 530 LINE",
"10 525 LINE",
"10 470 LINE"
);
},
{
closed = 1;
nodes = (
"135 662 OFFCURVE",
"156 640 OFFCURVE",
"190 640 CURVE SMOOTH",
"220 640 OFFCURVE",
"245 662 OFFCURVE",
"245 700 CURVE SMOOTH",
"245 738 OFFCURVE",
"224 760 OFFCURVE",
"190 760 CURVE SMOOTH",
"160 760 OFFCURVE",
"135 738 OFFCURVE",
"135 700 CURVE SMOOTH"
);
},
{
closed = 1;
nodes = (
"340 662 OFFCURVE",
"361 640 OFFCURVE",
"395 640 CURVE SMOOTH",
"425 640 OFFCURVE",
"450 662 OFFCURVE",
"450 700 CURVE SMOOTH",
"450 738 OFFCURVE",
"429 760 OFFCURVE",
"395 760 CURVE SMOOTH",
"365 760 OFFCURVE",
"340 738 OFFCURVE",
"340 700 CURVE SMOOTH"
);
}
);
width = 577;
}
);
leftKerningGroup = y;
rightKerningGroup = y;
unicode = 00FF;
},
{
glyphname = z;
lastChange = "2014-11-10 22:19:58 +0100";
layers = (
{
layerId = UUID0;
name = Regular;
paths = (
{
closed = 1;
nodes = (
"450 530 LINE",
"65 530 LINE",
"65 380 LINE",
"135 380 LINE",
"149 455 LINE",
"337 455 LINE",
"45 75 LINE",
"45 0 LINE",
"445 0 LINE",
"445 155 LINE",
"375 155 LINE",
"361 75 LINE",
"157 75 LINE",
"450 455 LINE"
);
}
);
width = 485;
}
);
leftKerningGroup = z;
rightKerningGroup = z;
unicode = 007A;
},
{
glyphname = zdotaccent;
lastChange = "2014-11-10 22:19:58 +0100";
layers = (
{
layerId = UUID0;
name = Regular;
paths = (
{
closed = 1;
nodes = (
"450 530 LINE",
"65 530 LINE",
"65 380 LINE",
"135 380 LINE",
"149 455 LINE",
"337 455 LINE",
"45 75 LINE",
"45 0 LINE",
"445 0 LINE",
"445 155 LINE",
"375 155 LINE",
"361 75 LINE",
"157 75 LINE",
"450 455 LINE"
);
},
{
closed = 1;
nodes = (
"198 662 OFFCURVE",
"219 640 OFFCURVE",
"253 640 CURVE SMOOTH",
"283 640 OFFCURVE",
"308 662 OFFCURVE",
"308 700 CURVE SMOOTH",
"308 738 OFFCURVE",
"287 760 OFFCURVE",
"253 760 CURVE SMOOTH",
"223 760 OFFCURVE",
"198 738 OFFCURVE",
"198 700 CURVE SMOOTH"
);
}
);
width = 485;
}
);
leftKerningGroup = z;
rightKerningGroup = z;
unicode = 017C;
},
{
glyphname = fi;
lastChange = "2014-11-10 22:19:58 +0100";
layers = (
{
layerId = UUID0;
name = Regular;
paths = (
{
closed = 1;
nodes = (
"45 450 LINE",
"135 450 LINE",
"135 80 LINE",
"50 55 LINE",
"50 0 LINE",
"317 0 LINE",
"317 55 LINE",
"235 80 LINE",
"235 450 LINE",
"480 450 LINE",
"480 80 LINE",
"405 55 LINE",
"405 0 LINE",
"655 0 LINE",
"655 55 LINE",
"580 80 LINE",
"580 530 LINE",
"235 525 LINE",
"235 595 LINE SMOOTH",
"235 660 OFFCURVE",
"270 705 OFFCURVE",
"370 705 CURVE SMOOTH",
"425 705 OFFCURVE",
"470 697 OFFCURVE",
"470 697 CURVE",
"485 625 LINE",
"565 625 LINE",
"565 746 LINE",
"565 746 OFFCURVE",
"470 780 OFFCURVE",
"365 780 CURVE SMOOTH",
"205 780 OFFCURVE",
"135 710 OFFCURVE",
"135 575 CURVE SMOOTH",
"135 525 LINE",
"45 515 LINE"
);
}
);
width = 690;
}
);
leftKerningGroup = f;
rightKerningGroup = i;
unicode = FB01;
},
{
glyphname = fl;
lastChange = "2014-11-10 22:19:58 +0100";
layers = (
{
layerId = UUID0;
name = Regular;
paths = (
{
closed = 1;
nodes = (
"45 450 LINE",
"135 450 LINE",
"135 80 LINE",
"50 55 LINE",
"50 0 LINE",
"317 0 LINE",
"317 55 LINE",
"235 80 LINE",
"235 450 LINE",
"364 450 LINE",
"367 525 LINE",
"235 525 LINE",
"235 605 LINE SMOOTH",
"235 665 OFFCURVE",
"285 705 OFFCURVE",
"355 705 CURVE SMOOTH",
"410 705 OFFCURVE",
"480 695 OFFCURVE",
"480 695 CURVE",
"480 80 LINE",
"405 55 LINE",
"405 0 LINE",
"672 0 LINE",
"672 55 LINE",
"582 80 LINE",
"582 770 LINE",
"582 770 OFFCURVE",
"440 780 OFFCURVE",
"345 780 CURVE SMOOTH",
"215 780 OFFCURVE",
"135 710 OFFCURVE",
"135 585 CURVE SMOOTH",
"135 525 LINE",
"45 515 LINE"
);
}
);
width = 677;
}
);
leftKerningGroup = f;
rightKerningGroup = l;
unicode = FB02;
},
{
glyphname = ordfeminine;
lastChange = "2014-11-10 22:19:58 +0100";
layers = (
{
guideLines = (
{
position = "{432, 324}";
},
{
position = "{386, 710}";
}
);
layerId = UUID0;
name = Regular;
paths = (
{
closed = 1;
nodes = (
"68 580 LINE",
"123 580 LINE",
"133 632 LINE",
"133 632 OFFCURVE",
"168 642 OFFCURVE",
"204 642 CURVE SMOOTH",
"243 642 OFFCURVE",
"266 621 OFFCURVE",
"266 589 CURVE SMOOTH",
"266 539 LINE",
"212 539 LINE SMOOTH",
"112 539 OFFCURVE",
"50 510 OFFCURVE",
"50 428 CURVE SMOOTH",
"50 355 OFFCURVE",
"89 316 OFFCURVE",
"161 316 CURVE SMOOTH",
"223 316 OFFCURVE",
"278 375 OFFCURVE",
"278 375 CURVE",
"294 323 LINE",
"403 328 LINE",
"403 373 LINE",
"346 387 LINE",
"346 595 LINE SMOOTH",
"346 675 OFFCURVE",
"303 710 OFFCURVE",
"218 710 CURVE SMOOTH",
"158 710 OFFCURVE",
"63 680 OFFCURVE",
"63 680 CURVE"
);
},
{
closed = 1;
nodes = (
"266 485 LINE",
"266 427 LINE",
"266 427 OFFCURVE",
"227 382 OFFCURVE",
"180 382 CURVE SMOOTH",
"148 382 OFFCURVE",
"128 400 OFFCURVE",
"128 428 CURVE SMOOTH",
"128 472 OFFCURVE",
"158 485 OFFCURVE",
"218 485 CURVE SMOOTH"
);
},
{
closed = 1;
nodes = (
"58 165 LINE",
"403 165 LINE",
"403 235 LINE",
"58 235 LINE"
);
}
);
width = 468;
}
);
unicode = 00AA;
},
{
glyphname = ordmasculine;
lastChange = "2014-11-10 22:19:58 +0100";
layers = (
{
layerId = UUID0;
name = Regular;
paths = (
{
closed = 1;
nodes = (
"130 710 OFFCURVE",
"50 630 OFFCURVE",
"50 505 CURVE SMOOTH",
"50 380 OFFCURVE",
"120 315 OFFCURVE",
"235 315 CURVE SMOOTH",
"350 315 OFFCURVE",
"425 395 OFFCURVE",
"425 520 CURVE SMOOTH",
"425 640 OFFCURVE",
"360 710 OFFCURVE",
"245 710 CURVE SMOOTH"
);
},
{
closed = 1;
nodes = (
"300 640 OFFCURVE",
"340 595 OFFCURVE",
"340 515 CURVE SMOOTH",
"340 425 OFFCURVE",
"300 385 OFFCURVE",
"240 385 CURVE SMOOTH",
"180 385 OFFCURVE",
"135 425 OFFCURVE",
"135 510 CURVE SMOOTH",
"135 600 OFFCURVE",
"180 640 OFFCURVE",
"240 640 CURVE SMOOTH"
);
},
{
closed = 1;
nodes = (
"60 165 LINE",
"415 165 LINE",
"415 235 LINE",
"60 235 LINE"
);
}
);
width = 495;
}
);
unicode = 00BA;
},
{
glyphname = nsuperior;
lastChange = "2014-11-10 22:19:58 +0100";
layers = (
{
layerId = UUID0;
name = Regular;
paths = (
{
closed = 1;
nodes = (
"167 704 LINE",
"40 700 LINE",
"40 653 LINE",
"101 639 LINE",
"101 387 LINE",
"40 370 LINE",
"40 323 LINE",
"228 323 LINE",
"228 370 LINE",
"181 387 LINE",
"181 577 LINE",
"181 577 OFFCURVE",
"220 640 OFFCURVE",
"282 640 CURVE SMOOTH",
"328 640 OFFCURVE",
"342 613 OFFCURVE",
"342 563 CURVE SMOOTH",
"342 387 LINE",
"296 370 LINE",
"296 323 LINE",
"476 323 LINE",
"476 370 LINE",
"422 387 LINE",
"422 582 LINE",
"422 661 OFFCURVE",
"382 710 OFFCURVE",
"303 710 CURVE SMOOTH",
"243 710 OFFCURVE",
"191 669 OFFCURVE",
"173 653 CURVE"
);
}
);
width = 542;
}
);
unicode = 207F;
},
{
glyphname = "Be-cy";
lastChange = "2014-11-10 22:19:58 +0100";
layers = (
{
guideLines = (
{
position = "{369, 535}";
},
{
position = "{436, 390}";
}
);
layerId = UUID0;
name = Regular;
paths = (
{
closed = 1;
nodes = (
"438 620 LINE",
"463 520 LINE",
"528 520 LINE",
"528 700 LINE",
"233 700 LINE",
"40 695 LINE",
"40 640 LINE",
"125 620 LINE",
"125 80 LINE",
"40 60 LINE",
"40 0 LINE",
"333 0 LINE",
"333 60 LINE",
"228 80 LINE",
"228 620 LINE"
);
},
{
closed = 1;
nodes = (
"40 0 LINE",
"328 0 LINE SMOOTH",
"483 0 OFFCURVE",
"578 60 OFFCURVE",
"578 205 CURVE SMOOTH",
"578 345 OFFCURVE",
"470 390 OFFCURVE",
"320 390 CURVE",
"125 390 LINE",
"125 80 LINE",
"40 60 LINE"
);
},
{
closed = 1;
nodes = (
"228 315 LINE",
"313 315 LINE",
"398 315 OFFCURVE",
"473 290 OFFCURVE",
"473 195 CURVE SMOOTH",
"473 115 OFFCURVE",
"418 80 OFFCURVE",
"333 80 CURVE SMOOTH",
"228 80 LINE"
);
}
);
width = 613;
}
);
leftKerningGroup = H;
unicode = 0411;
},
{
glyphname = "Ge-cy";
lastChange = "2014-11-10 22:19:58 +0100";
layers = (
{
guideLines = (
{
position = "{430, 520}";
}
);
layerId = UUID0;
name = Regular;
paths = (
{
closed = 1;
nodes = (
"445 620 LINE",
"470 520 LINE",
"535 520 LINE",
"535 700 LINE",
"230 700 LINE",
"40 695 LINE",
"40 640 LINE",
"125 620 LINE",
"125 80 LINE",
"40 60 LINE",
"40 0 LINE",
"330 0 LINE",
"330 60 LINE",
"230 80 LINE",
"230 620 LINE"
);
}
);
width = 545;
}
);
leftKerningGroup = H;
rightKerningGroup = "Ge-cy";
unicode = 0413;
},
{
glyphname = "Gje-cy";
lastChange = "2014-11-10 22:19:58 +0100";
layers = (
{
components = (
{
name = acute.Cup;
transform = "{1, 0, 0, 1, 213, 0}";
}
);
layerId = UUID0;
name = Regular;
paths = (
{
closed = 1;
nodes = (
"445 620 LINE",
"470 535 LINE",
"535 535 LINE",
"535 700 LINE",
"230 700 LINE",
"40 695 LINE",
"40 640 LINE",
"125 620 LINE",
"125 80 LINE",
"40 60 LINE",
"40 0 LINE",
"330 0 LINE",
"330 60 LINE",
"230 80 LINE",
"230 620 LINE"
);
}
);
width = 545;
}
);
leftKerningGroup = H;
rightKerningGroup = "Ge-cy";
unicode = 0403;
},
{
glyphname = "Gheupturn-cy";
lastChange = "2014-11-10 22:19:58 +0100";
layers = (
{
layerId = UUID0;
name = Regular;
paths = (
{
closed = 1;
nodes = (
"523 620 LINE",
"525 700 LINE",
"230 700 LINE",
"40 695 LINE",
"40 640 LINE",
"125 620 LINE",
"125 80 LINE",
"40 60 LINE",
"40 0 LINE",
"345 0 LINE",
"345 60 LINE",
"230 80 LINE",
"230 620 LINE"
);
},
{
closed = 1;
nodes = (
"469 875 LINE",
"419 700 LINE",
"525 700 LINE",
"529 875 LINE"
);
}
);
width = 534;
}
);
leftKerningGroup = H;
rightKerningGroup = "Ge-cy";
unicode = 0490;
},
{
glyphname = "De-cy";
lastChange = "2014-11-10 22:19:58 +0100";
layers = (
{
annotations = (
{
position = "{-9223372036854775808, 503}";
type = Circle;
width = 30;
}
);
layerId = UUID0;
name = Regular;
paths = (
{
closed = 1;
nodes = (
"691 62 LINE",
"586 0 LINE",
"636 -175 LINE",
"696 -175 LINE"
);
},
{
closed = 1;
nodes = (
"80 -175 LINE",
"130 0 LINE",
"26 65 LINE",
"20 -175 LINE"
);
},
{
closed = 1;
nodes = (
"666 640 LINE",
"666 700 LINE",
"476 620 LINE",
"476 80 LINE",
"182 80 LINE",
"26 65 LINE",
"130 0 LINE",
"691 0 LINE",
"691 62 LINE",
"581 80 LINE",
"581 620 LINE"
);
},
{
closed = 1;
nodes = (
"666 700 LINE",
"90 700 LINE",
"90 640 LINE",
"200 620 LINE",
"195 491 OFFCURVE",
"188 412 OFFCURVE",
"173 287 CURVE SMOOTH",
"154 127 OFFCURVE",
"138 92 OFFCURVE",
"26 65 CURVE",
"173 64 LINE",
"223 111 OFFCURVE",
"241 175 OFFCURVE",
"253 285 CURVE SMOOTH",
"265 395 OFFCURVE",
"275 512 OFFCURVE",
"280 620 CURVE",
"476 620 LINE"
);
}
);
width = 736;
}
);
leftKerningGroup = "De-cy";
rightKerningGroup = "Tse-cy";
unicode = 0414;
},
{
glyphname = "Zhe-cy";
lastChange = "2014-11-10 22:19:58 +0100";
layers = (
{
layerId = UUID0;
name = Regular;
paths = (
{
closed = 1;
nodes = (
"615 60 LINE",
"535 80 LINE",
"535 320 LINE",
"618 320 LINE",
"790 80 LINE",
"705 60 LINE",
"705 0 LINE",
"990 0 LINE",
"990 60 LINE",
"905 80 LINE",
"699 367 LINE",
"855 620 LINE",
"954 640 LINE",
"954 700 LINE",
"798 695 LINE",
"621 400 LINE",
"535 400 LINE",
"535 620 LINE",
"630 640 LINE",
"630 700 LINE",
"355 695 LINE",
"355 640 LINE",
"440 620 LINE",
"440 80 LINE",
"370 60 LINE",
"370 0 LINE",
"615 0 LINE"
);
},
{
closed = 1;
nodes = (
"440 400 LINE",
"363 400 LINE",
"186 695 LINE",
"21 700 LINE",
"21 640 LINE",
"120 620 LINE",
"276 367 LINE",
"70 80 LINE",
"-15 60 LINE",
"-15 0 LINE",
"270 0 LINE",
"270 60 LINE",
"185 80 LINE",
"357 320 LINE",
"440 320 LINE"
);
}
);
width = 975;
}
);
leftKerningGroup = X;
rightKerningGroup = X;
rightMetricsKey = K;
unicode = 0416;
},
{
glyphname = "Ze-cy";
lastChange = "2014-11-10 22:19:58 +0100";
layers = (
{
guideLines = (
{
angle = 90;
position = "{50, 482}";
},
{
position = "{195, 500}";
},
{
position = "{187, 195}";
}
);
layerId = UUID0;
name = Regular;
paths = (
{
closed = 1;
nodes = (
"50 510 LINE",
"125 510 LINE",
"140 605 LINE",
"140 605 OFFCURVE",
"190 625 OFFCURVE",
"265 625 CURVE SMOOTH",
"355 625 OFFCURVE",
"407 585 OFFCURVE",
"407 525 CURVE SMOOTH",
"407 445 OFFCURVE",
"352 405 OFFCURVE",
"252 405 CURVE SMOOTH",
"150 405 LINE",
"150 325 LINE",
"247 325 LINE SMOOTH",
"357 325 OFFCURVE",
"417 280 OFFCURVE",
"417 205 CURVE SMOOTH",
"417 120 OFFCURVE",
"350 75 OFFCURVE",
"245 75 CURVE SMOOTH",
"160 75 OFFCURVE",
"91 105 OFFCURVE",
"61 118 CURVE",
"34 36 LINE",
"64 23 OFFCURVE",
"131 -10 OFFCURVE",
"241 -10 CURVE SMOOTH",
"386 -10 OFFCURVE",
"527 45 OFFCURVE",
"527 210 CURVE SMOOTH",
"527 280 OFFCURVE",
"473 349 OFFCURVE",
"380 368 CURVE",
"467 390 OFFCURVE",
"512 449 OFFCURVE",
"512 535 CURVE SMOOTH",
"512 660 OFFCURVE",
"415 710 OFFCURVE",
"270 710 CURVE SMOOTH",
"155 710 OFFCURVE",
"45 670 OFFCURVE",
"45 670 CURVE"
);
}
);
width = 577;
}
);
rightKerningGroup = B;
unicode = 0417;
},
{
glyphname = "Ii-cy";
lastChange = "2014-11-10 22:19:58 +0100";
layers = (
{
layerId = UUID0;
name = Regular;
paths = (
{
closed = 1;
nodes = (
"325 60 LINE",
"230 80 LINE",
"230 620 LINE",
"325 640 LINE",
"325 700 LINE",
"40 695 LINE",
"40 640 LINE",
"125 620 LINE",
"125 80 LINE",
"40 60 LINE",
"40 0 LINE",
"325 0 LINE"
);
},
{
closed = 1;
nodes = (
"568 477 LINE",
"568 585 LINE",
"230 220 LINE",
"230 115 LINE"
);
},
{
closed = 1;
nodes = (
"473 640 LINE",
"568 620 LINE",
"568 80 LINE",
"473 60 LINE",
"473 0 LINE",
"758 0 LINE",
"758 60 LINE",
"673 80 LINE",
"673 620 LINE",
"758 640 LINE",
"758 700 LINE",
"473 695 LINE"
);
}
);
width = 798;
}
);
leftKerningGroup = H;
rightKerningGroup = H;
unicode = 0418;
},
{
glyphname = "El-cy";
lastChange = "2014-11-10 22:19:58 +0100";
layers = (
{
layerId = UUID0;
name = Regular;
paths = (
{
closed = 1;
nodes = (
"660 640 LINE",
"660 700 LINE",
"470 620 LINE",
"470 80 LINE",
"370 60 LINE",
"370 0 LINE",
"660 0 LINE",
"660 60 LINE",
"575 80 LINE",
"575 620 LINE"
);
},
{
closed = 1;
nodes = (
"660 700 LINE",
"70 700 LINE",
"70 640 LINE",
"195 620 LINE",
"190 491 OFFCURVE",
"183 373 OFFCURVE",
"172 275 CURVE SMOOTH",
"159 155 OFFCURVE",
"123 110 OFFCURVE",
"58 110 CURVE SMOOTH",
"43 110 OFFCURVE",
"32 110 OFFCURVE",
"17 113 CURVE",
"0 8 LINE",
"25 1 OFFCURVE",
"54 -5 OFFCURVE",
"79 -5 CURVE SMOOTH",
"209 -5 OFFCURVE",
"234 96 OFFCURVE",
"252 266 CURVE SMOOTH",
"263 369 OFFCURVE",
"270 510 OFFCURVE",
"275 620 CURVE",
"470 620 LINE"
);
}
);
width = 700;
}
);
leftKerningGroup = "De-cy";
rightKerningGroup = H;
unicode = 041B;
},
{
glyphname = "Pe-cy";
lastChange = "2014-11-10 22:19:58 +0100";
layers = (
{
layerId = UUID0;
name = Regular;
paths = (
{
closed = 1;
nodes = (
"325 60 LINE",
"230 80 LINE",
"230 620 LINE",
"545 620 LINE",
"545 80 LINE",
"450 60 LINE",
"450 0 LINE",
"735 0 LINE",
"735 60 LINE",
"650 80 LINE",
"650 620 LINE",
"735 640 LINE",
"735 700 LINE",
"230 700 LINE",
"40 695 LINE",
"40 640 LINE",
"125 620 LINE",
"125 80 LINE",
"40 60 LINE",
"40 0 LINE",
"325 0 LINE"
);
}
);
width = 775;
}
);
leftKerningGroup = H;
rightKerningGroup = H;
unicode = 041F;
},
{
glyphname = "U-cy";
lastChange = "2014-11-10 22:19:58 +0100";
layers = (
{
layerId = UUID0;
name = Regular;
paths = (
{
closed = 1;
nodes = (
"316 180 LINE SMOOTH",
"288 111 OFFCURVE",
"256 75 OFFCURVE",
"201 75 CURVE SMOOTH",
"171 75 OFFCURVE",
"139 83 OFFCURVE",
"113 91 CURVE",
"93 16 LINE",
"120 5 OFFCURVE",
"161 -10 OFFCURVE",
"211 -10 CURVE SMOOTH",
"281 -10 OFFCURVE",
"357 54 OFFCURVE",
"421 210 CURVE SMOOTH",
"590 620 LINE",
"670 640 LINE",
"670 700 LINE",
"405 695 LINE",
"405 640 LINE",
"495 620 LINE"
);
},
{
closed = 1;
nodes = (
"355 240 LINE",
"179 620 LINE",
"264 640 LINE",
"264 700 LINE",
"-5 695 LINE",
"-5 640 LINE",
"70 620 LINE",
"315 110 LINE"
);
}
);
width = 674;
}
);
leftKerningGroup = "U-cy";
rightKerningGroup = "U-cy";
unicode = 0423;
},
{
glyphname = "Ef-cy";
lastChange = "2014-11-10 22:19:58 +0100";
layers = (
{
guideLines = (
{
position = "{114, 711}";
}
);
layerId = UUID0;
name = Regular;
paths = (
{
closed = 1;
nodes = (
"578 40 LINE",
"493 59 LINE",
"493 657 LINE",
"578 676 LINE",
"578 736 LINE",
"319 731 LINE",
"319 676 LINE",
"404 657 LINE",
"404 59 LINE",
"319 40 LINE",
"319 -20 LINE",
"578 -20 LINE"
);
},
{
closed = 1;
nodes = (
"204 624 OFFCURVE",
"65 523 OFFCURVE",
"65 339 CURVE SMOOTH",
"65 164 OFFCURVE",
"190 91 OFFCURVE",
"440 91 CURVE SMOOTH",
"690 91 OFFCURVE",
"832 191 OFFCURVE",
"832 368 CURVE SMOOTH",
"832 533 OFFCURVE",
"710 624 OFFCURVE",
"460 623 CURVE SMOOTH"
);
},
{
closed = 1;
nodes = (
"645 550 OFFCURVE",
"722 495 OFFCURVE",
"722 356 CURVE SMOOTH",
"722 211 OFFCURVE",
"635 166 OFFCURVE",
"445 166 CURVE SMOOTH",
"255 166 OFFCURVE",
"175 216 OFFCURVE",
"175 354 CURVE SMOOTH",
"175 499 OFFCURVE",
"264 550 OFFCURVE",
"455 548 CURVE SMOOTH"
);
}
);
width = 897;
}
);
leftKerningGroup = O;
rightKerningGroup = O;
unicode = 0424;
},
{
glyphname = "Che-cy";
lastChange = "2014-11-10 22:19:58 +0100";
layers = (
{
layerId = UUID0;
name = Regular;
paths = (
{
closed = 1;
nodes = (
"455 365 LINE",
"439 359 OFFCURVE",
"375 340 OFFCURVE",
"305 340 CURVE SMOOTH",
"235 340 OFFCURVE",
"190 375 OFFCURVE",
"190 485 CURVE SMOOTH",
"190 621 LINE",
"270 645 LINE",
"270 700 LINE",
"10 695 LINE",
"10 645 LINE",
"85 620 LINE",
"85 475 LINE SMOOTH",
"85 315 OFFCURVE",
"165 250 OFFCURVE",
"285 250 CURVE SMOOTH",
"369 250 OFFCURVE",
"428 273 OFFCURVE",
"455 283 CURVE"
);
},
{
closed = 1;
nodes = (
"375 640 LINE",
"455 620 LINE",
"455 80 LINE",
"345 65 LINE",
"345 0 LINE",
"645 0 LINE",
"645 65 LINE",
"560 80 LINE",
"560 620 LINE",
"645 640 LINE",
"645 700 LINE",
"375 695 LINE"
);
}
);
width = 685;
}
);
rightKerningGroup = H;
unicode = 0427;
},
{
glyphname = "Tse-cy";
lastChange = "2014-11-10 22:19:58 +0100";
layers = (
{
guideLines = (
{
position = "{787, -175}";
}
);
layerId = UUID0;
name = Regular;
paths = (
{
closed = 1;
nodes = (
"762 61 LINE",
"650 80 LINE",
"650 620 LINE",
"735 640 LINE",
"735 700 LINE",
"450 695 LINE",
"450 640 LINE",
"545 620 LINE",
"545 80 LINE",
"230 80 LINE",
"230 620 LINE",
"325 640 LINE",
"325 700 LINE",
"40 695 LINE",
"40 640 LINE",
"125 620 LINE",
"125 80 LINE",
"40 60 LINE",
"40 0 LINE",
"657 0 LINE",
"707 -175 LINE",
"767 -175 LINE"
);
}
);
width = 807;
}
);
leftKerningGroup = H;
rightKerningGroup = "Tse-cy";
unicode = 0426;
},
{
glyphname = "Sha-cy";
lastChange = "2014-11-10 22:19:58 +0100";
layers = (
{
layerId = UUID0;
name = Regular;
paths = (
{
closed = 1;
nodes = (
"995 60 LINE",
"910 80 LINE",
"910 620 LINE",
"995 640 LINE",
"995 700 LINE",
"730 695 LINE",
"730 640 LINE",
"805 620 LINE",
"805 80 LINE",
"570 80 LINE",
"570 620 LINE",
"645 640 LINE",
"645 700 LINE",
"390 695 LINE",
"390 640 LINE",
"465 620 LINE",
"465 80 LINE",
"230 80 LINE",
"230 620 LINE",
"305 640 LINE",
"305 700 LINE",
"40 695 LINE",
"40 640 LINE",
"125 620 LINE",
"125 80 LINE",
"40 60 LINE",
"40 0 LINE",
"995 0 LINE"
);
}
);
width = 1035;
}
);
leftKerningGroup = H;
rightKerningGroup = H;
unicode = 0428;
},
{
glyphname = "Shcha-cy";
lastChange = "2014-11-10 22:19:58 +0100";
layers = (
{
layerId = UUID0;
name = Regular;
paths = (
{
closed = 1;
nodes = (
"1021 62 LINE",
"910 80 LINE",
"910 620 LINE",
"995 640 LINE",
"995 700 LINE",
"730 695 LINE",
"730 640 LINE",
"805 620 LINE",
"805 80 LINE",
"570 80 LINE",
"570 620 LINE",
"645 640 LINE",
"645 700 LINE",
"390 695 LINE",
"390 640 LINE",
"465 620 LINE",
"465 80 LINE",
"230 80 LINE",
"230 620 LINE",
"305 640 LINE",
"305 700 LINE",
"40 695 LINE",
"40 640 LINE",
"125 620 LINE",
"125 80 LINE",
"40 60 LINE",
"40 0 LINE",
"916 0 LINE",
"966 -175 LINE",
"1026 -175 LINE"
);
}
);
width = 1066;
}
);
leftKerningGroup = H;
rightKerningGroup = "Tse-cy";
unicode = 0429;
},
{
glyphname = "Dzhe-cy";
lastChange = "2014-11-10 22:19:58 +0100";
layers = (
{
layerId = UUID0;
name = Regular;
paths = (
{
closed = 1;
nodes = (
"705 60 LINE",
"620 80 LINE",
"620 620 LINE",
"705 640 LINE",
"705 700 LINE",
"420 695 LINE",
"420 640 LINE",
"515 620 LINE",
"515 80 LINE",
"230 80 LINE",
"230 620 LINE",
"325 640 LINE",
"325 700 LINE",
"40 695 LINE",
"40 640 LINE",
"125 620 LINE",
"125 80 LINE",
"40 60 LINE",
"40 0 LINE",
"705 0 LINE"
);
},
{
closed = 1;
nodes = (
"315 0 LINE",
"337 -175 LINE",
"397 -175 LINE",
"420 0 LINE"
);
}
);
width = 745;
}
);
leftKerningGroup = H;
rightKerningGroup = H;
unicode = 040F;
},
{
glyphname = "Ia-cy";
lastChange = "2014-11-10 22:19:58 +0100";
layers = (
{
layerId = UUID0;
name = Regular;
paths = (
{
closed = 1;
nodes = (
"525 80 LINE",
"525 620 LINE",
"610 640 LINE",
"610 700 LINE",
"315 700 LINE SMOOTH",
"175 700 OFFCURVE",
"85 640 OFFCURVE",
"85 510 CURVE SMOOTH",
"85 380 OFFCURVE",
"171 327 OFFCURVE",
"246 307 CURVE",
"217 294 OFFCURVE",
"188 265 OFFCURVE",
"160 215 CURVE SMOOTH",
"81 76 LINE",
"5 60 LINE",
"5 0 LINE",
"154 0 LINE",
"240 170 LINE SMOOTH",
"289 266 OFFCURVE",
"317 290 OFFCURVE",
"365 290 CURVE SMOOTH",
"420 290 LINE",
"420 80 LINE",
"335 60 LINE",
"335 0 LINE",
"610 0 LINE",
"610 60 LINE"
);
},
{
closed = 1;
nodes = (
"365 365 LINE SMOOTH",
"265 365 OFFCURVE",
"190 398 OFFCURVE",
"190 500 CURVE SMOOTH",
"190 580 OFFCURVE",
"240 620 OFFCURVE",
"315 620 CURVE",
"420 620 LINE",
"420 365 LINE"
);
}
);
width = 650;
}
);
rightKerningGroup = H;
unicode = 042F;
},
{
glyphname = "Softsign-cy";
lastChange = "2014-11-10 22:19:58 +0100";
layers = (
{
layerId = UUID0;
name = Regular;
paths = (
{
closed = 1;
nodes = (
"225 410 LINE",
"225 620 LINE",
"325 640 LINE",
"325 700 LINE",
"40 695 LINE",
"40 640 LINE",
"125 620 LINE",
"125 80 LINE",
"40 60 LINE",
"40 0 LINE",
"325 0 LINE SMOOTH",
"480 0 OFFCURVE",
"575 70 OFFCURVE",
"575 215 CURVE SMOOTH",
"575 365 OFFCURVE",
"467 410 OFFCURVE",
"317 410 CURVE SMOOTH"
);
},
{
closed = 1;
nodes = (
"225 80 LINE",
"225 335 LINE",
"310 335 LINE SMOOTH",
"395 335 OFFCURVE",
"470 310 OFFCURVE",
"470 205 CURVE SMOOTH",
"470 125 OFFCURVE",
"415 80 OFFCURVE",
"330 80 CURVE SMOOTH"
);
}
);
width = 585;
}
);
leftKerningGroup = H;
unicode = 042C;
},
{
glyphname = "Hardsign-cy";
lastChange = "2014-11-10 22:19:58 +0100";
layers = (
{
guideLines = (
{
position = "{7, 520}";
}
);
layerId = UUID0;
name = Regular;
paths = (
{
closed = 1;
nodes = (
"318 410 LINE",
"318 620 LINE",
"418 640 LINE",
"418 700 LINE",
"10 700 LINE",
"100 620 LINE",
"215 620 LINE",
"215 80 LINE",
"120 60 LINE",
"120 0 LINE",
"418 0 LINE SMOOTH",
"573 0 OFFCURVE",
"668 70 OFFCURVE",
"668 215 CURVE SMOOTH",
"668 365 OFFCURVE",
"560 410 OFFCURVE",
"410 410 CURVE SMOOTH"
);
},
{
closed = 1;
nodes = (
"318 80 LINE",
"318 335 LINE",
"403 335 LINE SMOOTH",
"488 335 OFFCURVE",
"563 310 OFFCURVE",
"563 205 CURVE SMOOTH",
"563 125 OFFCURVE",
"508 80 OFFCURVE",
"423 80 CURVE SMOOTH"
);
},
{
closed = 1;
nodes = (
"10 520 LINE",
"75 520 LINE",
"100 620 LINE",
"10 700 LINE"
);
}
);
width = 698;
}
);
leftKerningGroup = T;
rightKerningGroup = o;
unicode = 042A;
},
{
glyphname = "Yeru-cy";
lastChange = "2014-11-10 22:19:58 +0100";
layers = (
{
layerId = UUID0;
name = Regular;
paths = (
{
closed = 1;
nodes = (
"228 410 LINE",
"228 620 LINE",
"328 640 LINE",
"328 700 LINE",
"40 695 LINE",
"40 640 LINE",
"125 620 LINE",
"125 80 LINE",
"40 60 LINE",
"40 0 LINE",
"328 0 LINE SMOOTH",
"483 0 OFFCURVE",
"578 70 OFFCURVE",
"578 215 CURVE SMOOTH",
"578 365 OFFCURVE",
"470 410 OFFCURVE",
"320 410 CURVE SMOOTH"
);
},
{
closed = 1;
nodes = (
"228 80 LINE",
"228 335 LINE",
"313 335 LINE SMOOTH",
"398 335 OFFCURVE",
"473 310 OFFCURVE",
"473 205 CURVE SMOOTH",
"473 125 OFFCURVE",
"418 80 OFFCURVE",
"333 80 CURVE SMOOTH"
);
},
{
closed = 1;
nodes = (
"873 60 LINE",
"788 80 LINE",
"788 620 LINE",
"873 640 LINE",
"873 700 LINE",
"598 695 LINE",
"598 640 LINE",
"683 620 LINE",
"683 80 LINE",
"598 60 LINE",
"598 0 LINE",
"873 0 LINE"
);
}
);
width = 913;
}
);
leftKerningGroup = H;
rightKerningGroup = H;
unicode = 042B;
},
{
glyphname = "Lje-cy";
lastChange = "2014-11-10 22:19:58 +0100";
layers = (
{
layerId = UUID0;
name = Regular;
paths = (
{
closed = 1;
nodes = (
"576 405 LINE",
"576 620 LINE",
"676 640 LINE",
"676 700 LINE",
"576 700 LINE",
"471 620 LINE",
"471 0 LINE",
"676 0 LINE SMOOTH",
"831 0 OFFCURVE",
"926 70 OFFCURVE",
"926 215 CURVE SMOOTH",
"926 360 OFFCURVE",
"818 405 OFFCURVE",
"668 405 CURVE SMOOTH"
);
},
{
closed = 1;
nodes = (
"576 80 LINE",
"576 330 LINE",
"661 330 LINE SMOOTH",
"746 330 OFFCURVE",
"821 305 OFFCURVE",
"821 205 CURVE SMOOTH",
"821 125 OFFCURVE",
"766 80 OFFCURVE",
"681 80 CURVE SMOOTH"
);
},
{
closed = 1;
nodes = (
"587 700 LINE",
"75 700 LINE",
"75 640 LINE",
"200 620 LINE",
"195 491 OFFCURVE",
"188 373 OFFCURVE",
"177 275 CURVE SMOOTH",
"164 155 OFFCURVE",
"128 110 OFFCURVE",
"63 110 CURVE SMOOTH",
"48 110 OFFCURVE",
"37 110 OFFCURVE",
"22 113 CURVE",
"5 8 LINE",
"30 1 OFFCURVE",
"59 -5 OFFCURVE",
"84 -5 CURVE SMOOTH",
"214 -5 OFFCURVE",
"239 96 OFFCURVE",
"257 266 CURVE SMOOTH",
"268 369 OFFCURVE",
"275 510 OFFCURVE",
"280 620 CURVE",
"470 620 LINE"
);
},
{
closed = 1;
nodes = (
"371 60 LINE",
"371 0 LINE",
"472 0 LINE",
"471 80 LINE"
);
}
);
width = 946;
}
);
leftKerningGroup = "De-cy";
rightKerningGroup = o;
unicode = 0409;
},
{
glyphname = "Nje-cy";
lastChange = "2014-11-10 22:19:58 +0100";
layers = (
{
guideLines = (
{
position = "{459, 405}";
}
);
layerId = UUID0;
name = Regular;
paths = (
{
closed = 1;
nodes = (
"660 405 LINE",
"660 620 LINE",
"760 640 LINE",
"760 700 LINE",
"660 700 LINE",
"555 620 LINE",
"555 0 LINE",
"760 0 LINE SMOOTH",
"915 0 OFFCURVE",
"1010 70 OFFCURVE",
"1010 215 CURVE SMOOTH",
"1010 360 OFFCURVE",
"902 405 OFFCURVE",
"752 405 CURVE SMOOTH"
);
},
{
closed = 1;
nodes = (
"660 80 LINE",
"660 330 LINE",
"745 330 LINE SMOOTH",
"830 330 OFFCURVE",
"905 305 OFFCURVE",
"905 205 CURVE SMOOTH",
"905 125 OFFCURVE",
"850 80 OFFCURVE",
"765 80 CURVE SMOOTH"
);
},
{
closed = 1;
nodes = (
"325 60 LINE",
"230 80 LINE",
"230 325 LINE",
"555 325 LINE",
"555 80 LINE",
"460 60 LINE",
"460 0 LINE",
"660 0 LINE",
"660 700 LINE",
"460 695 LINE",
"460 640 LINE",
"555 620 LINE",
"555 405 LINE",
"230 405 LINE",
"230 620 LINE",
"325 640 LINE",
"325 700 LINE",
"40 695 LINE",
"40 640 LINE",
"125 620 LINE",
"125 80 LINE",
"40 60 LINE",
"40 0 LINE",
"325 0 LINE"
);
}
);
width = 1020;
}
);
leftKerningGroup = H;
rightKerningGroup = "Softsign-cy";
unicode = 040A;
},
{
glyphname = "E-cy";
lastChange = "2014-11-10 22:19:58 +0100";
layers = (
{
guideLines = (
{
angle = 90;
position = "{596, 440}";
},
{
position = "{414, 195}";
},
{
angle = 90;
position = "{614, 452}";
}
);
layerId = UUID0;
name = Regular;
paths = (
{
closed = 1;
nodes = (
"476 319 LINE",
"476 399 LINE",
"154 399 LINE",
"154 319 LINE"
);
},
{
closed = 1;
nodes = (
"576 147 LINE",
"560 135 OFFCURVE",
"480 80 OFFCURVE",
"380 80 CURVE SMOOTH",
"265 80 OFFCURVE",
"173 160 OFFCURVE",
"173 340 CURVE SMOOTH",
"173 525 OFFCURVE",
"245 625 OFFCURVE",
"373 625 CURVE SMOOTH",
"441 625 OFFCURVE",
"479 611 OFFCURVE",
"500 605 CURVE",
"521 500 LINE",
"596 500 LINE",
"601 660 LINE",
"601 660 OFFCURVE",
"486 710 OFFCURVE",
"383 710 CURVE SMOOTH",
"180 710 OFFCURVE",
"60 565 OFFCURVE",
"60 335 CURVE SMOOTH",
"60 110 OFFCURVE",
"185 -10 OFFCURVE",
"370 -10 CURVE SMOOTH",
"500 -10 OFFCURVE",
"590 59 OFFCURVE",
"618 87 CURVE"
);
}
);
width = 661;
}
);
unicode = 0404;
},
{
glyphname = "Ereversed-cy";
lastChange = "2014-11-10 22:19:58 +0100";
layers = (
{
guideLines = (
{
position = "{248, 500}";
},
{
position = "{104, 195}";
},
{
angle = 90;
position = "{70, 420}";
}
);
layerId = UUID0;
name = Regular;
paths = (
{
closed = 1;
nodes = (
"507 399 LINE",
"195 399 LINE",
"195 319 LINE",
"507 319 LINE"
);
},
{
closed = 1;
nodes = (
"145 500 LINE",
"166 606 LINE",
"200 617 OFFCURVE",
"247 626 OFFCURVE",
"288 626 CURVE SMOOTH",
"405 626 OFFCURVE",
"490 540 OFFCURVE",
"490 360 CURVE SMOOTH",
"490 175 OFFCURVE",
"406 80 OFFCURVE",
"285 80 CURVE SMOOTH",
"176 80 OFFCURVE",
"120 126 OFFCURVE",
"90 147 CURVE",
"44 88 LINE",
"66 68 OFFCURVE",
"150 -10 OFFCURVE",
"280 -10 CURVE SMOOTH",
"464 -10 OFFCURVE",
"605 135 OFFCURVE",
"605 365 CURVE SMOOTH",
"605 590 OFFCURVE",
"496 712 OFFCURVE",
"298 710 CURVE SMOOTH",
"180 709 OFFCURVE",
"65 660 OFFCURVE",
"65 660 CURVE",
"70 500 LINE"
);
}
);
width = 661;
}
);
rightKerningGroup = O;
unicode = 042D;
},
{
glyphname = "Yi-cy";
lastChange = "2014-11-10 22:19:58 +0100";
layers = (
{
components = (
{
name = I;
transform = "{1, 0, 0, 1, 0, 0}";
}
);
layerId = UUID0;
name = Regular;
paths = (
{
closed = 1;
nodes = (
"20 787 OFFCURVE",
"41 765 OFFCURVE",
"75 765 CURVE SMOOTH",
"105 765 OFFCURVE",
"130 787 OFFCURVE",
"130 825 CURVE SMOOTH",
"130 863 OFFCURVE",
"109 885 OFFCURVE",
"75 885 CURVE SMOOTH",
"45 885 OFFCURVE",
"20 863 OFFCURVE",
"20 825 CURVE SMOOTH"
);
},
{
closed = 1;
nodes = (
"225 787 OFFCURVE",
"246 765 OFFCURVE",
"280 765 CURVE SMOOTH",
"310 765 OFFCURVE",
"335 787 OFFCURVE",
"335 825 CURVE SMOOTH",
"335 863 OFFCURVE",
"314 885 OFFCURVE",
"280 885 CURVE SMOOTH",
"250 885 OFFCURVE",
"225 863 OFFCURVE",
"225 825 CURVE SMOOTH"
);
}
);
width = 355;
}
);
leftKerningGroup = H;
rightKerningGroup = H;
unicode = 0407;
},
{
glyphname = "Tshe-cy";
lastChange = "2014-11-10 22:19:58 +0100";
layers = (
{
layerId = UUID0;
name = Regular;
paths = (
{
closed = 1;
nodes = (
"366 384 OFFCURVE",
"426 440 OFFCURVE",
"530 440 CURVE SMOOTH",
"645 440 OFFCURVE",
"695 370 OFFCURVE",
"695 260 CURVE SMOOTH",
"695 80 LINE",
"770 55 LINE",
"770 0 LINE",
"515 0 LINE",
"515 55 LINE",
"590 79 LINE",
"590 245 LINE SMOOTH",
"590 315 OFFCURVE",
"558 350 OFFCURVE",
"498 350 CURVE SMOOTH",
"393 350 OFFCURVE",
"335 270 OFFCURVE",
"335 270 CURVE",
"335 358 LINE"
);
},
{
closed = 1;
nodes = (
"415 60 LINE",
"335 80 LINE",
"335 620 LINE",
"485 620 LINE",
"510 520 LINE",
"575 520 LINE",
"575 700 LINE",
"10 700 LINE",
"10 520 LINE",
"75 520 LINE",
"100 620 LINE",
"230 620 LINE",
"230 80 LINE",
"130 60 LINE",
"130 0 LINE",
"415 0 LINE"
);
}
);
width = 790;
}
);
leftKerningGroup = T;
rightKerningGroup = n;
unicode = 040B;
},
{
glyphname = "Iu-cy";
lastChange = "2014-11-10 22:19:58 +0100";
layers = (
{
layerId = UUID0;
name = Regular;
paths = (
{
closed = 1;
nodes = (
"475 710 OFFCURVE",
"350 565 OFFCURVE",
"350 345 CURVE SMOOTH",
"350 115 OFFCURVE",
"460 -10 OFFCURVE",
"655 -10 CURVE SMOOTH",
"850 -10 OFFCURVE",
"985 140 OFFCURVE",
"985 360 CURVE SMOOTH",
"985 575 OFFCURVE",
"870 710 OFFCURVE",
"675 710 CURVE SMOOTH"
);
},
{
closed = 1;
nodes = (
"800 625 OFFCURVE",
"870 535 OFFCURVE",
"870 355 CURVE SMOOTH",
"870 165 OFFCURVE",
"790 75 OFFCURVE",
"660 75 CURVE SMOOTH",
"530 75 OFFCURVE",
"465 170 OFFCURVE",
"465 350 CURVE SMOOTH",
"465 540 OFFCURVE",
"540 625 OFFCURVE",
"670 625 CURVE SMOOTH"
);
},
{
closed = 1;
nodes = (
"230 400 LINE",
"230 620 LINE",
"325 640 LINE",
"325 700 LINE",
"40 695 LINE",
"40 640 LINE",
"125 620 LINE",
"125 80 LINE",
"40 60 LINE",
"40 0 LINE",
"325 0 LINE",
"325 60 LINE",
"230 80 LINE",
"230 320 LINE",
"414 320 LINE",
"402 400 LINE"
);
}
);
width = 1045;
}
);
leftKerningGroup = H;
rightKerningGroup = O;
unicode = 042E;
},
{
glyphname = "Dje-cy";
lastChange = "2014-11-10 22:19:58 +0100";
layers = (
{
guideLines = (
{
position = "{293, -130}";
},
{
position = "{587, 110}";
}
);
layerId = UUID0;
name = Regular;
paths = (
{
closed = 1;
nodes = (
"335 620 LINE",
"485 620 LINE",
"510 520 LINE",
"575 520 LINE",
"575 700 LINE",
"10 700 LINE",
"10 520 LINE",
"75 520 LINE",
"100 620 LINE",
"230 620 LINE",
"230 80 LINE",
"130 60 LINE",
"130 0 LINE",
"335 0 LINE"
);
},
{
closed = 1;
nodes = (
"335 275 LINE",
"335 275 OFFCURVE",
"410 345 OFFCURVE",
"485 345 CURVE SMOOTH",
"560 345 OFFCURVE",
"585 295 OFFCURVE",
"585 220 CURVE SMOOTH",
"585 135 OFFCURVE",
"575 80 OFFCURVE",
"490 80 CURVE SMOOTH",
"445 80 LINE",
"434 0 LINE",
"434 0 OFFCURVE",
"475 -5 OFFCURVE",
"500 -5 CURVE SMOOTH",
"635 -5 OFFCURVE",
"690 100 OFFCURVE",
"690 235 CURVE SMOOTH",
"690 350 OFFCURVE",
"636 435 OFFCURVE",
"521 435 CURVE SMOOTH",
"436 435 OFFCURVE",
"369 389 OFFCURVE",
"335 366 CURVE"
);
}
);
width = 735;
}
);
leftKerningGroup = T;
rightKerningGroup = j;
unicode = 0402;
},
{
glyphname = "Ustraitstroke-cy";
lastChange = "2014-11-10 22:19:58 +0100";
layers = (
{
components = (
{
name = Y;
transform = "{1, 0, 0, 1, 0, 0}";
}
);
guideLines = (
{
angle = 90;
position = "{185, 111}";
},
{
angle = 90;
position = "{460, 98}";
}
);
layerId = UUID0;
name = Regular;
paths = (
{
closed = 1;
nodes = (
"125 190 LINE",
"520 190 LINE",
"520 265 LINE",
"125 265 LINE"
);
}
);
width = 645;
}
);
leftKerningGroup = Y;
rightKerningGroup = Y;
unicode = 04B0;
},
{
glyphname = "be-cy";
lastChange = "2014-11-10 22:19:58 +0100";
layers = (
{
guideLines = (
{
position = "{136, 780}";
}
);
layerId = UUID0;
name = Regular;
paths = (
{
closed = 1;
nodes = (
"530 801 LINE",
"460 818 LINE",
"420 743 LINE",
"485 666 LINE"
);
},
{
closed = 1;
nodes = (
"420 743 LINE",
"376 737 OFFCURVE",
"309 736 OFFCURVE",
"252 722 CURVE SMOOTH",
"119 689 OFFCURVE",
"55 590 OFFCURVE",
"55 320 CURVE SMOOTH",
"55 90 OFFCURVE",
"135 -10 OFFCURVE",
"290 -10 CURVE SMOOTH",
"440 -10 OFFCURVE",
"540 105 OFFCURVE",
"540 270 CURVE SMOOTH",
"540 420 OFFCURVE",
"455 525 OFFCURVE",
"310 525 CURVE SMOOTH",
"240 525 OFFCURVE",
"174 480 OFFCURVE",
"140 430 CURVE",
"154 557 OFFCURVE",
"190 624 OFFCURVE",
"277 646 CURVE SMOOTH",
"334 660 OFFCURVE",
"406 666 OFFCURVE",
"485 666 CURVE"
);
},
{
closed = 1;
nodes = (
"190 70 OFFCURVE",
"150 155 OFFCURVE",
"150 265 CURVE SMOOTH",
"150 381 OFFCURVE",
"199 445 OFFCURVE",
"300 445 CURVE SMOOTH",
"400 445 OFFCURVE",
"435 365 OFFCURVE",
"435 265 CURVE SMOOTH",
"435 140 OFFCURVE",
"395 70 OFFCURVE",
"295 70 CURVE SMOOTH"
);
}
);
width = 580;
}
);
rightKerningGroup = o;
unicode = 0431;
},
{
glyphname = "ve-cy";
lastChange = "2014-11-10 22:19:58 +0100";
layers = (
{
layerId = UUID0;
name = Regular;
paths = (
{
closed = 1;
nodes = (
"40 0 LINE",
"312 0 LINE SMOOTH",
"457 0 OFFCURVE",
"540 45 OFFCURVE",
"540 155 CURVE SMOOTH",
"540 230 OFFCURVE",
"474 276 OFFCURVE",
"398 284 CURVE",
"468 291 OFFCURVE",
"520 325 OFFCURVE",
"520 400 CURVE SMOOTH",
"520 480 OFFCURVE",
"450 530 OFFCURVE",
"360 530 CURVE SMOOTH",
"225 530 LINE",
"40 525 LINE",
"40 470 LINE",
"125 453 LINE",
"125 77 LINE",
"40 55 LINE"
);
},
{
closed = 1;
nodes = (
"225 248 LINE",
"318 248 LINE SMOOTH",
"400 248 OFFCURVE",
"435 220 OFFCURVE",
"435 150 CURVE SMOOTH",
"435 95 OFFCURVE",
"392 73 OFFCURVE",
"317 73 CURVE SMOOTH",
"225 73 LINE"
);
},
{
closed = 1;
nodes = (
"225 457 LINE",
"342 457 LINE SMOOTH",
"392 457 OFFCURVE",
"420 430 OFFCURVE",
"420 385 CURVE SMOOTH",
"420 330 OFFCURVE",
"383 313 OFFCURVE",
"323 313 CURVE SMOOTH",
"225 313 LINE"
);
}
);
width = 595;
}
);
leftKerningGroup = n;
rightKerningGroup = "ve-cy";
unicode = 0432;
},
{
glyphname = "ge-cy";
lastChange = "2014-11-10 22:19:58 +0100";
layers = (
{
layerId = UUID0;
name = Regular;
paths = (
{
closed = 1;
nodes = (
"225 530 LINE",
"40 525 LINE",
"40 470 LINE",
"125 450 LINE",
"125 80 LINE",
"40 55 LINE",
"40 0 LINE",
"325 0 LINE",
"325 55 LINE",
"225 80 LINE",
"225 450 LINE",
"400 450 LINE",
"415 335 LINE",
"485 335 LINE",
"490 530 LINE"
);
}
);
width = 500;
}
);
leftKerningGroup = n;
rightKerningGroup = "ge-cy";
unicode = 0433;
},
{
glyphname = "gheupturn-cy";
lastChange = "2014-11-10 22:19:58 +0100";
layers = (
{
layerId = UUID0;
name = Regular;
paths = (
{
closed = 1;
nodes = (
"225 530 LINE",
"40 525 LINE",
"40 470 LINE",
"125 450 LINE",
"125 80 LINE",
"40 55 LINE",
"40 0 LINE",
"325 0 LINE",
"325 55 LINE",
"225 80 LINE",
"225 450 LINE"
);
},
{
closed = 1;
nodes = (
"485 450 LINE",
"485 665 LINE",
"415 665 LINE",
"395 530 LINE",
"225 530 LINE",
"225 450 LINE"
);
}
);
width = 495;
}
);
leftKerningGroup = n;
rightKerningGroup = "ge-cy";
unicode = 0491;
},
{
glyphname = "de-cy";
lastChange = "2014-11-10 22:19:58 +0100";
layers = (
{
guideLines = (
{
position = "{614, 450}";
}
);
layerId = UUID0;
name = Regular;
paths = (
{
closed = 1;
nodes = (
"71 530 LINE",
"71 470 LINE",
"174 450 LINE",
"395 450 LINE",
"395 530 LINE"
);
},
{
closed = 1;
nodes = (
"395 80 LINE",
"495 80 LINE",
"495 450 LINE",
"580 470 LINE",
"580 530 LINE",
"395 530 LINE"
);
},
{
closed = 1;
nodes = (
"174 450 LINE",
"170 387 OFFCURVE",
"168 355 OFFCURVE",
"158 265 CURVE SMOOTH",
"144 139 OFFCURVE",
"116 86 OFFCURVE",
"50 75 CURVE",
"97 64 LINE",
"193 64 OFFCURVE",
"217 93 OFFCURVE",
"235 263 CURVE SMOOTH",
"244 349 OFFCURVE",
"247 397 OFFCURVE",
"250 450 CURVE"
);
},
{
closed = 1;
nodes = (
"495 80 LINE",
"152 80 LINE",
"50 75 LINE",
"12 70 LINE",
"17 -160 LINE",
"87 -160 LINE",
"106 0 LINE",
"501 0 LINE",
"520 -160 LINE",
"590 -160 LINE",
"595 65 LINE"
);
}
);
width = 625;
}
);
leftKerningGroup = "el-cy";
rightKerningGroup = "tse-cy";
unicode = 0434;
},
{
glyphname = "zhe-cy";
lastChange = "2014-11-10 22:19:58 +0100";
layers = (
{
guideLines = (
{
position = "{374, 330}";
},
{
position = "{374, 257}";
}
);
layerId = UUID0;
name = Regular;
paths = (
{
closed = 1;
nodes = (
"460 451 LINE",
"370 450 LINE",
"370 80 LINE",
"310 55 LINE",
"310 0 LINE",
"520 0 LINE",
"520 55 LINE",
"460 80 LINE",
"460 230 LINE",
"547 230 LINE",
"690 0 LINE",
"825 0 LINE",
"825 55 LINE",
"750 80 LINE",
"749 80 LINE",
"620 280 LINE",
"723 458 LINE",
"724 458 LINE",
"795 470 LINE",
"795 530 LINE",
"578 525 LINE",
"578 470 LINE",
"623 456 LINE",
"548 305 LINE",
"460 305 LINE"
);
},
{
closed = 1;
nodes = (
"510 471 LINE",
"510 530 LINE",
"320 525 LINE",
"320 470 LINE",
"370 450 LINE",
"460 450 LINE"
);
},
{
closed = 1;
nodes = (
"285 305 LINE",
"210 456 LINE",
"255 470 LINE",
"255 525 LINE",
"35 530 LINE",
"35 470 LINE",
"106 458 LINE",
"107 458 LINE",
"210 280 LINE",
"81 80 LINE",
"80 80 LINE",
"5 55 LINE",
"5 0 LINE",
"137 0 LINE",
"280 230 LINE",
"370 230 LINE",
"370 305 LINE"
);
}
);
width = 830;
}
);
leftKerningGroup = x;
leftMetricsKey = "=|ka-cy";
rightKerningGroup = x;
rightMetricsKey = "ka-cy";
unicode = 0436;
},
{
glyphname = "ze-cy";
lastChange = "2014-11-10 22:19:58 +0100";
layers = (
{
guideLines = (
{
angle = 90;
position = "{19, 349}";
}
);
layerId = UUID0;
name = Regular;
paths = (
{
closed = 1;
nodes = (
"98 315 LINE",
"98 245 LINE",
"165 245 LINE SMOOTH",
"250 245 OFFCURVE",
"301 215 OFFCURVE",
"301 155 CURVE SMOOTH",
"301 98 OFFCURVE",
"257 67 OFFCURVE",
"183 67 CURVE SMOOTH",
"108 67 OFFCURVE",
"28 93 OFFCURVE",
"28 93 CURVE",
"5 25 LINE",
"5 25 OFFCURVE",
"84 -10 OFFCURVE",
"179 -10 CURVE SMOOTH",
"299 -10 OFFCURVE",
"406 33 OFFCURVE",
"406 160 CURVE SMOOTH",
"406 220 OFFCURVE",
"359 265 OFFCURVE",
"277 280 CURVE",
"354 297 OFFCURVE",
"390 340 OFFCURVE",
"390 405 CURVE SMOOTH",
"390 495 OFFCURVE",
"308 540 OFFCURVE",
"188 540 CURVE SMOOTH",
"106 540 OFFCURVE",
"16 515 OFFCURVE",
"16 515 CURVE",
"20 394 LINE",
"80 394 LINE",
"87 454 LINE",
"87 454 OFFCURVE",
"134 465 OFFCURVE",
"184 465 CURVE SMOOTH",
"249 465 OFFCURVE",
"290 443 OFFCURVE",
"290 398 CURVE SMOOTH",
"290 338 OFFCURVE",
"249 315 OFFCURVE",
"169 315 CURVE SMOOTH"
);
}
);
width = 461;
}
);
unicode = 0437;
},
{
glyphname = "ii-cy";
lastChange = "2014-11-10 22:19:58 +0100";
layers = (
{
guideLines = (
{
angle = 90;
position = "{665, 258}";
},
{
position = "{590, 530}";
},
{
position = "{411, 525}";
},
{
position = "{420, 470}";
},
{
position = "{503, 450}";
}
);
layerId = UUID0;
name = Regular;
paths = (
{
closed = 1;
nodes = (
"285 55 LINE",
"220 80 LINE",
"220 450 LINE",
"285 470 LINE",
"285 530 LINE",
"40 525 LINE",
"40 470 LINE",
"125 450 LINE",
"125 80 LINE",
"40 55 LINE",
"40 0 LINE",
"285 0 LINE"
);
},
{
closed = 1;
nodes = (
"475 425 LINE",
"220 195 LINE",
"220 105 LINE",
"475 335 LINE"
);
},
{
closed = 1;
nodes = (
"410 470 LINE",
"475 450 LINE",
"475 80 LINE",
"410 55 LINE",
"410 0 LINE",
"655 0 LINE",
"655 55 LINE",
"570 80 LINE",
"570 450 LINE",
"655 470 LINE",
"655 530 LINE",
"410 525 LINE"
);
}
);
width = 695;
}
);
leftKerningGroup = n;
unicode = 0438;
},
{
glyphname = "ka-cy";
lastChange = "2014-11-10 22:19:58 +0100";
layers = (
{
guideLines = (
{
position = "{155, 256}";
}
);
layerId = UUID0;
name = Regular;
paths = (
{
closed = 1;
nodes = (
"210 530 LINE",
"25 525 LINE",
"25 470 LINE",
"110 450 LINE",
"110 80 LINE",
"25 55 LINE",
"25 0 LINE",
"275 0 LINE",
"275 55 LINE",
"210 80 LINE",
"210 230 LINE",
"297 230 LINE",
"440 0 LINE",
"575 0 LINE",
"575 55 LINE",
"500 80 LINE",
"499 80 LINE",
"370 280 LINE",
"473 458 LINE",
"474 458 LINE",
"545 470 LINE",
"545 530 LINE",
"325 525 LINE",
"325 470 LINE",
"370 456 LINE",
"295 305 LINE",
"210 305 LINE"
);
}
);
width = 585;
}
);
leftKerningGroup = n;
rightKerningGroup = k;
unicode = 043A;
},
{
glyphname = "el-cy";
lastChange = "2014-11-10 22:19:58 +0100";
layers = (
{
layerId = UUID0;
name = Regular;
paths = (
{
closed = 1;
nodes = (
"67 530 LINE",
"67 470 LINE",
"170 450 LINE",
"391 450 LINE",
"391 530 LINE"
);
},
{
closed = 1;
nodes = (
"391 80 LINE",
"306 55 LINE",
"306 0 LINE",
"576 0 LINE",
"576 55 LINE",
"491 80 LINE",
"491 450 LINE",
"576 470 LINE",
"576 530 LINE",
"391 530 LINE"
);
},
{
closed = 1;
nodes = (
"170 450 LINE",
"167 387 OFFCURVE",
"163 334 OFFCURVE",
"156 265 CURVE SMOOTH",
"143 136 OFFCURVE",
"109 88 OFFCURVE",
"43 88 CURVE SMOOTH",
"33 88 OFFCURVE",
"23 89 OFFCURVE",
"14 91 CURVE",
"3 -2 LINE",
"23 -6 OFFCURVE",
"42 -10 OFFCURVE",
"72 -10 CURVE SMOOTH",
"179 -10 OFFCURVE",
"217 87 OFFCURVE",
"232 258 CURVE SMOOTH",
"238 325 OFFCURVE",
"242 379 OFFCURVE",
"246 450 CURVE"
);
}
);
width = 616;
}
);
leftKerningGroup = "el-cy";
unicode = 043B;
},
{
glyphname = "em-cy";
lastChange = "2014-11-10 22:19:58 +0100";
layers = (
{
layerId = UUID0;
name = Regular;
paths = (
{
closed = 1;
nodes = (
"610 80 LINE",
"545 55 LINE",
"545 0 LINE",
"785 0 LINE",
"785 55 LINE",
"700 80 LINE"
);
},
{
closed = 1;
nodes = (
"270 55 LINE",
"205 80 LINE",
"205 409 LINE",
"233 530 LINE",
"40 525 LINE",
"40 470 LINE",
"125 450 LINE",
"125 80 LINE",
"40 55 LINE",
"40 0 LINE",
"270 0 LINE"
);
},
{
closed = 1;
nodes = (
"700 80 LINE",
"700 450 LINE",
"785 470 LINE",
"785 530 LINE",
"591 525 LINE",
"610 430 LINE",
"610 80 LINE"
);
},
{
closed = 1;
nodes = (
"228 352 LINE",
"372 100 LINE",
"428 105 LINE",
"581 369 LINE",
"610 430 LINE",
"591 525 LINE",
"412 203 LINE",
"233 530 LINE",
"205 409 LINE"
);
}
);
width = 825;
}
);
leftKerningGroup = n;
unicode = 043C;
},
{
glyphname = "en-cy";
lastChange = "2014-11-10 22:19:58 +0100";
layers = (
{
layerId = UUID0;
name = Regular;
paths = (
{
closed = 1;
nodes = (
"460 80 LINE",
"395 55 LINE",
"395 0 LINE",
"645 0 LINE",
"645 55 LINE",
"560 80 LINE"
);
},
{
closed = 1;
nodes = (
"290 55 LINE",
"225 80 LINE",
"225 450 LINE",
"290 470 LINE",
"290 530 LINE",
"40 525 LINE",
"40 470 LINE",
"125 450 LINE",
"125 80 LINE",
"40 55 LINE",
"40 0 LINE",
"290 0 LINE"
);
},
{
closed = 1;
nodes = (
"560 80 LINE",
"560 450 LINE",
"645 470 LINE",
"645 530 LINE",
"395 525 LINE",
"395 470 LINE",
"460 450 LINE",
"460 80 LINE"
);
},
{
closed = 1;
nodes = (
"215 315 LINE",
"215 240 LINE",
"470 240 LINE",
"470 315 LINE"
);
}
);
width = 685;
}
);
leftKerningGroup = n;
unicode = 043D;
},
{
glyphname = "pe-cy";
lastChange = "2014-11-10 22:19:58 +0100";
layers = (
{
layerId = UUID0;
name = Regular;
paths = (
{
closed = 1;
nodes = (
"225 530 LINE",
"40 525 LINE",
"40 470 LINE",
"125 450 LINE",
"125 80 LINE",
"40 55 LINE",
"40 0 LINE",
"290 0 LINE",
"290 55 LINE",
"225 80 LINE",
"225 450 LINE",
"460 450 LINE",
"460 530 LINE"
);
},
{
closed = 1;
nodes = (
"460 80 LINE",
"395 55 LINE",
"395 0 LINE",
"645 0 LINE",
"645 55 LINE",
"560 80 LINE",
"560 450 LINE",
"645 470 LINE",
"645 530 LINE",
"460 530 LINE"
);
}
);
width = 685;
}
);
leftKerningGroup = n;
unicode = 043F;
},
{
glyphname = "te-cy";
lastChange = "2014-11-10 22:19:58 +0100";
layers = (
{
layerId = UUID0;
name = Regular;
paths = (
{
closed = 1;
nodes = (
"215 530 LINE",
"215 80 LINE",
"115 55 LINE",
"115 0 LINE",
"415 0 LINE",
"415 55 LINE",
"315 80 LINE",
"315 450 LINE",
"430 450 LINE",
"445 345 LINE",
"515 345 LINE",
"520 530 LINE"
);
},
{
closed = 1;
nodes = (
"100 450 LINE",
"85 345 LINE",
"15 345 LINE",
"10 530 LINE",
"215 530 LINE",
"215 450 LINE"
);
}
);
width = 530;
}
);
leftKerningGroup = "te-cy";
rightKerningGroup = "te-cy";
unicode = 0442;
},
{
glyphname = "ef-cy";
lastChange = "2014-11-10 22:19:58 +0100";
layers = (
{
guideLines = (
{
position = "{320, 540}";
},
{
position = "{345, -55}";
},
{
position = "{81, -230}";
},
{
position = "{121, 770}";
}
);
layerId = UUID0;
name = Regular;
paths = (
{
closed = 1;
nodes = (
"171 540 OFFCURVE",
"40 450 OFFCURVE",
"40 265 CURVE SMOOTH",
"40 80 OFFCURVE",
"156 0 OFFCURVE",
"353 0 CURVE SMOOTH",
"550 0 OFFCURVE",
"676 105 OFFCURVE",
"676 280 CURVE SMOOTH",
"676 455 OFFCURVE",
"565 540 OFFCURVE",
"368 540 CURVE SMOOTH"
);
},
{
closed = 1;
nodes = (
"510 462 OFFCURVE",
"571 402 OFFCURVE",
"571 275 CURVE SMOOTH",
"571 137 OFFCURVE",
"505 80 OFFCURVE",
"358 80 CURVE SMOOTH",
"211 80 OFFCURVE",
"145 142 OFFCURVE",
"145 270 CURVE SMOOTH",
"145 417 OFFCURVE",
"216 462 OFFCURVE",
"363 462 CURVE SMOOTH"
);
},
{
closed = 1;
nodes = (
"403 770 LINE",
"228 765 LINE",
"228 710 LINE",
"313 692 LINE",
"313 -152 LINE",
"228 -175 LINE",
"228 -230 LINE",
"488 -230 LINE",
"488 -175 LINE",
"403 -152 LINE"
);
}
);
width = 716;
}
);
leftKerningGroup = o;
leftMetricsKey = o;
rightKerningGroup = o;
rightMetricsKey = o;
unicode = 0444;
},
